<svg xmlns="http://www.w3.org/2000/svg" width="55.843" height="66.159" viewBox="0 0 55.843 66.159">
  <g id="Grupo_186964" data-name="Grupo 186964" transform="translate(-611.6 -5650)">
    <g id="Grupo_167174" data-name="Grupo 167174" transform="translate(-644.75 4652.141)">
      <g id="Grupo_163512" data-name="Grupo 163512" transform="translate(1272.566 997.86)">
        <g id="Grupo_163498" data-name="Grupo 163498" transform="translate(0.666 0.667)">
          <g id="Grupo_163490" data-name="Grupo 163490" transform="translate(2.922 49.28)">
            <path id="Trazado_228994" data-name="Trazado 228994" d="M1336.3,1116.48a3.559,3.559,0,0,1-2.989,3.737c-1.631.257-3.535.537-5.667.813-3.091.4-6.668.808-10.585,1.155-.443.145-9.054,1.127-11.23,1.371l-.5.055c-2.013,0-4.4-3.847-4.4-5.291a2.622,2.622,0,0,1,.308-1.189l1.3,2.232a2.825,2.825,0,0,0,1.724.5,24.057,24.057,0,0,0,6.068-1.563l-1.1-1.891c.019-.007.039-.013.061-.023a2.72,2.72,0,0,1,2.234.186,5.451,5.451,0,0,0,2.61.732c2.661,0,6.161-1.31,12.781-4.308.494-.225,1.008-.411,1.525-.588.058.013.119.025.18.036a10.056,10.056,0,0,0,1.743.157c2.97,0,4.626-1.04,5.673-2.3C1336.079,1110.923,1336.214,1115.045,1336.3,1116.48Z" transform="translate(-1300.937 -1110.31)" fill="#fff"/>
          </g>
          <g id="Grupo_163491" data-name="Grupo 163491" transform="translate(0 19.933)">
            <path id="Trazado_228995" data-name="Trazado 228995" d="M1296.907,1062.255a4.583,4.583,0,0,1-2.4-1.252c-.087-1.14-.152-2.27-.152-3.387,0-10.733,6.906-13,7.233-13.134.218-.087.438-.17.66-.245a13.721,13.721,0,0,0,1.572,2.99,7.976,7.976,0,0,0,.906,1.066v.01c0,2.161,1.779,3.862,4.6,3.862,2.97,0,6.276-1.13,9.583-4.1,9.445,4.674,12.556,9.1,13.478,25.523-1.047,1.255-2.7,2.3-5.673,2.3a10.056,10.056,0,0,1-1.743-.157c-.061-.011-.122-.023-.18-.036-.517.177-1.031.363-1.525.588-6.62,3-10.12,4.308-12.781,4.308a5.451,5.451,0,0,1-2.61-.732,2.72,2.72,0,0,0-2.234-.186c-.022.01-.042.016-.061.023l-2.077-3.564-7.236-.625.051-.582q0-.983.025-1.923C1296.416,1068.75,1296.65,1065.109,1296.907,1062.255Z" transform="translate(-1294.359 -1044.237)" fill="#f1dff3"/>
          </g>
          <g id="Grupo_163492" data-name="Grupo 163492" transform="translate(7.817 60.001)">
            <path id="Trazado_228996" data-name="Trazado 228996" d="M1333.774,1134.446a15.882,15.882,0,0,1-12.065,4.825,19.946,19.946,0,0,1-9.75-2.3c2.177-.244,10.787-1.226,11.23-1.371C1327.106,1135.254,1330.683,1134.851,1333.774,1134.446Z" transform="translate(-1311.959 -1134.446)" fill="#f1dff3"/>
          </g>
          <g id="Grupo_163493" data-name="Grupo 163493" transform="translate(6.444 11.714)">
            <path id="Trazado_228997" data-name="Trazado 228997" d="M1312.792,1038.008a7.987,7.987,0,0,1-.906-1.066l.266-.2a.521.521,0,0,1-.131-.356c0-.437.122-1.307.122-1.628a3.162,3.162,0,0,0-2.466-2.706,26.83,26.83,0,0,1-.812-3.923,5.079,5.079,0,0,0,.6.4c6.208,3.585,12.171-3.246,12.99-2.774.427.247.542,1.313.636,1.676,0,.077.009.154.013.228.51-.735.963-1.438,1.563-1.438a1.266,1.266,0,0,1,1.008.485c-.809,2.707-2.048,4.572-2.048,6.582a4.621,4.621,0,0,0,1.091,3.079,4.2,4.2,0,0,0,1.272.927q.505.241.986.482c-3.307,2.973-6.614,4.1-9.583,4.1-2.819,0-4.6-1.7-4.6-3.862Z" transform="translate(-1308.866 -1025.733)" fill="#fff"/>
          </g>
          <g id="Grupo_163494" data-name="Grupo 163494" transform="translate(4.402)">
            <path id="Trazado_228998" data-name="Trazado 228998" d="M1323.808,1007.374a15.967,15.967,0,0,1-.69,4.674,1.267,1.267,0,0,0-1.008-.485c-.6,0-1.053.7-1.563,1.438,0-.074-.01-.151-.013-.228-.093-.363-.209-1.428-.635-1.676-.819-.472-6.782,6.359-12.99,2.774a5.062,5.062,0,0,1-.6-.4,5.314,5.314,0,0,1-.96-.979,3.4,3.4,0,0,1-1.082-2.469c0-2.289,2-4.411,3.561-5.981.934-2.63,5.088-4.678,8.2-4.678,2.61,0,4.264,1.021,5.076,2.956h.035C1323.42,1002.317,1323.808,1005.4,1323.808,1007.374Z" transform="translate(-1304.269 -999.361)" fill="#5c22c3"/>
          </g>
          <g id="Grupo_163495" data-name="Grupo 163495" transform="translate(0.289 51.056)">
            <path id="Trazado_228999" data-name="Trazado 228999" d="M1305.942,1118.635l1.1,1.891a24.058,24.058,0,0,1-6.068,1.563,2.825,2.825,0,0,1-1.724-.5l-4.241-7.278,8.854.764Z" transform="translate(-1295.01 -1114.307)" fill="#ebd3ef"/>
          </g>
          <g id="Grupo_163496" data-name="Grupo 163496" transform="translate(7.256 18.03)">
            <path id="Trazado_229000" data-name="Trazado 229000" d="M1313.169,1044.643l-.267.2a13.882,13.882,0,0,1-1.571-2.99,20.049,20.049,0,0,1-.637-1.9,3.162,3.162,0,0,1,2.466,2.706c0,.321-.122,1.191-.122,1.628A.52.52,0,0,0,1313.169,1044.643Z" transform="translate(-1310.694 -1039.953)" fill="#fff"/>
          </g>
          <g id="Grupo_163497" data-name="Grupo 163497" transform="translate(0.152 36.699)">
            <path id="Trazado_229001" data-name="Trazado 229001" d="M1297.1,1083.236c-.257,2.854-.491,6.5-.564,10.739a64.106,64.106,0,0,1-1.508-8.2c-.13-1.278-.223-2.546-.323-3.792A4.584,4.584,0,0,0,1297.1,1083.236Z" transform="translate(-1294.702 -1081.984)" fill="#fff"/>
          </g>
        </g>
        <g id="Grupo_163511" data-name="Grupo 163511" transform="translate(0 0)">
          <g id="Grupo_163499" data-name="Grupo 163499" transform="translate(7.817 60.002)">
            <path id="Trazado_229002" data-name="Trazado 229002" d="M1320.876,1139.1a20.514,20.514,0,0,1-10.069-2.38.666.666,0,0,1,.638-1.17,19.212,19.212,0,0,0,9.432,2.218,15.34,15.34,0,0,0,11.6-4.632.666.666,0,1,1,.936.948A16.582,16.582,0,0,1,1320.876,1139.1Z" transform="translate(-1310.459 -1132.947)" fill="#5c22c3"/>
          </g>
          <g id="Grupo_163500" data-name="Grupo 163500" transform="translate(10.37 23.755)">
            <path id="Trazado_229003" data-name="Trazado 229003" d="M1321.469,1056.78c-3.05,0-5.263-1.9-5.263-4.528a.67.67,0,0,1,.666-.671.662.662,0,0,1,.666.661c0,1.891,1.616,3.206,3.931,3.206a13.634,13.634,0,0,0,9.141-3.935.666.666,0,0,1,.891.99A14.916,14.916,0,0,1,1321.469,1056.78Z" transform="translate(-1316.206 -1051.341)" fill="#5c22c3"/>
          </g>
          <g id="Grupo_163501" data-name="Grupo 163501" transform="translate(0 19.933)">
            <path id="Trazado_229004" data-name="Trazado 229004" d="M1295.508,1072.826a.666.666,0,0,1-.641-.485,64.317,64.317,0,0,1-1.53-8.315c-.121-1.193-.213-2.383-.3-3.534l-.021-.272c-.105-1.352-.155-2.445-.155-3.439,0-10.373,6.352-13.268,7.625-13.742.258-.1.49-.191.724-.269a.666.666,0,0,1,.421,1.264c-.209.07-.417.149-.623.231l-.056.021c-1.129.421-6.758,3-6.758,12.494,0,.958.048,2.018.151,3.335l.021.272c.089,1.144.18,2.327.3,3.5a62.9,62.9,0,0,0,1.487,8.086.667.667,0,0,1-.46.823A.658.658,0,0,1,1295.508,1072.826Z" transform="translate(-1292.859 -1042.736)" fill="#5c22c3"/>
          </g>
          <g id="Grupo_163502" data-name="Grupo 163502" transform="translate(1.958 31.026)">
            <path id="Trazado_229005" data-name="Trazado 229005" d="M1297.934,1088.631h0a.666.666,0,0,1-.663-.67c0-.658.013-1.3.025-1.932.071-3.752.262-7.381.567-10.786.391-4.37.828-6.876.846-6.981a.666.666,0,1,1,1.312.231c0,.025-.446,2.562-.832,6.869-.3,3.373-.491,6.971-.562,10.692-.012.623-.022,1.262-.025,1.913A.667.667,0,0,1,1297.934,1088.631Z" transform="translate(-1297.268 -1067.711)" fill="#5c22c3"/>
          </g>
          <g id="Grupo_163503" data-name="Grupo 163503" transform="translate(0.153 36.699)">
            <path id="Trazado_229006" data-name="Trazado 229006" d="M1296.265,1083.068a.691.691,0,0,1-.107-.008,5.22,5.22,0,0,1-2.745-1.424.666.666,0,1,1,.911-.972,3.921,3.921,0,0,0,2.045,1.08.666.666,0,0,1-.1,1.324Z" transform="translate(-1293.203 -1080.483)" fill="#5c22c3"/>
          </g>
          <g id="Grupo_163504" data-name="Grupo 163504" transform="translate(11.222 49.281)">
            <path id="Trazado_229007" data-name="Trazado 229007" d="M1323.694,1117.141a6.113,6.113,0,0,1-2.938-.818,2.039,2.039,0,0,0-1.685-.139s-.034.013-.066.025a.666.666,0,0,1-.432-1.261h0l.052-.019a3.377,3.377,0,0,1,2.784.234,4.831,4.831,0,0,0,2.283.646c2.642,0,6.284-1.431,12.506-4.249.541-.246,1.1-.447,1.584-.611a.669.669,0,0,1,.362-.02c.047.011.1.021.146.029a9.356,9.356,0,0,0,1.631.147,6.283,6.283,0,0,0,5.161-2.056.666.666,0,1,1,1.023.854,7.531,7.531,0,0,1-6.184,2.535,10.806,10.806,0,0,1-1.858-.167l-.019,0c-.409.142-.866.31-1.3.505C1330.354,1115.671,1326.579,1117.141,1323.694,1117.141Z" transform="translate(-1318.123 -1108.81)" fill="#5c22c3"/>
          </g>
          <g id="Grupo_163505" data-name="Grupo 163505" transform="translate(29.264 42.119)">
            <path id="Trazado_229008" data-name="Trazado 229008" d="M1360.756,1103.318a.666.666,0,0,1-.662-.6c-.382-3.562-.807-6.5-1.34-9.245a.666.666,0,1,1,1.308-.254c.54,2.783.97,5.756,1.356,9.356a.666.666,0,0,1-.591.733A.65.65,0,0,1,1360.756,1103.318Z" transform="translate(-1358.742 -1092.685)" fill="#5c22c3"/>
          </g>
          <g id="Grupo_163506" data-name="Grupo 163506" transform="translate(0.289 51.057)">
            <path id="Trazado_229009" data-name="Trazado 229009" d="M1306.209,1120.359a.666.666,0,0,1-.577-.331l-3-5.156-7.231-.624,2.294,3.936a.666.666,0,1,1-1.151.671l-2.941-5.045a.666.666,0,0,1,.633-1l8.855.764a.666.666,0,0,1,.518.328l3.178,5.455a.666.666,0,0,1-.575,1Z" transform="translate(-1293.509 -1112.808)" fill="#5c22c3"/>
          </g>
          <g id="Grupo_163507" data-name="Grupo 163507" transform="translate(3.23 56.102)">
            <path id="Trazado_229010" data-name="Trazado 229010" d="M1302.1,1127.732a.665.665,0,0,1-.576-.331l-1.3-2.232a.666.666,0,0,1,1.152-.671l1.3,2.232a.666.666,0,0,1-.575,1Z" transform="translate(-1300.13 -1124.167)" fill="#5c22c3"/>
          </g>
          <g id="Grupo_163508" data-name="Grupo 163508" transform="translate(4.53 57.275)">
            <path id="Trazado_229011" data-name="Trazado 229011" d="M1305.448,1129.7a3.51,3.51,0,0,1-2.094-.617.666.666,0,0,1,.74-1.108,2.178,2.178,0,0,0,1.354.392,23.778,23.778,0,0,0,5.792-1.5.666.666,0,0,1,.551,1.214A24.443,24.443,0,0,1,1305.448,1129.7Z" transform="translate(-1303.058 -1126.808)" fill="#5c22c3"/>
          </g>
          <g id="Grupo_163509" data-name="Grupo 163509" transform="translate(6.444 14.107)">
            <path id="Trazado_229012" data-name="Trazado 229012" d="M1315.355,1042.34a5.409,5.409,0,0,1-3.864-1.7,8.816,8.816,0,0,1-.98-1.153,14.646,14.646,0,0,1-1.65-3.134c-.234-.593-.449-1.235-.658-1.964a28.413,28.413,0,0,1-.832-4.019.666.666,0,0,1,1.321-.175,27.036,27.036,0,0,0,.792,3.828c.2.687.4,1.289.617,1.842a13.343,13.343,0,0,0,1.494,2.847,7.522,7.522,0,0,0,.831.978,4.126,4.126,0,0,0,2.93,1.314,3.385,3.385,0,0,0,2.577-1.3c.12-.12.234-.234.347-.339a.666.666,0,0,1,.907.976c-.1.094-.2.2-.312.305A4.651,4.651,0,0,1,1315.355,1042.34Z" transform="translate(-1307.366 -1029.619)" fill="#5c22c3"/>
          </g>
          <g id="Grupo_163510" data-name="Grupo 163510" transform="translate(2.922)">
            <path id="Trazado_229013" data-name="Trazado 229013" d="M1304.5,1061.775c-2.416,0-5.064-4.182-5.064-5.957a3.257,3.257,0,0,1,.379-1.489.666.666,0,1,1,1.19.6,1.964,1.964,0,0,0-.237.889c0,1.167,2.175,4.582,3.7,4.624l.451-.05c5.018-.566,10.638-1.23,11.12-1.349a.481.481,0,0,1,.126-.024c3.548-.315,7.1-.7,10.557-1.152,1.936-.252,3.836-.525,5.649-.811a2.884,2.884,0,0,0,2.428-3.04c-.1-1.582-.153-2.994-.165-4.313-.028-.622-.06-1.249-.095-1.859-.931-16.363-3.935-20.4-13.109-24.965-.318-.158-.641-.317-.975-.476a4.851,4.851,0,0,1-1.474-1.077,5.321,5.321,0,0,1-1.269-3.531,10.981,10.981,0,0,1,1.1-4.107c.288-.71.584-1.44.846-2.249a.6.6,0,0,0-.24-.044c-.219,0-.65.622-.935,1.034l-.082.118a.666.666,0,0,1-1.213-.35l-.009-.161c-.016-.071-.033-.156-.052-.252a5.938,5.938,0,0,0-.192-.778c-.264.148-.67.421-1.014.653-2.312,1.556-7.125,4.8-12.038,1.956a5.833,5.833,0,0,1-.675-.457,6,6,0,0,1-1.049-1.062,4.045,4.045,0,0,1-1.247-2.911c0-2.428,1.867-4.547,3.654-6.349,1.134-2.858,5.521-4.976,8.775-4.976,2.673,0,4.527,1,5.516,2.987,1.9.261,2.926,2.26,2.926,5.693a16.736,16.736,0,0,1-.716,4.857l-.006.02c-.31,1.034-.684,1.958-1.015,2.774a10.068,10.068,0,0,0-1,3.606,3.969,3.969,0,0,0,.939,2.656,3.514,3.514,0,0,0,1.046.75c.338.161.669.324.994.486,9.546,4.749,12.885,9.184,13.846,26.082q.053.923.1,1.9c.012,1.319.065,2.707.163,4.267a4.212,4.212,0,0,1-3.55,4.437c-1.824.288-3.737.562-5.684.816-3.465.451-7.025.839-10.579,1.155-1.026.205-7.407.939-11.248,1.372C1304.552,1061.775,1304.547,1061.775,1304.5,1061.775Zm8.845-62.582c-2.807,0-6.728,1.849-7.575,4.235a.666.666,0,0,1-.155.247c-1.629,1.635-3.366,3.545-3.366,5.511a2.771,2.771,0,0,0,.881,1.993.607.607,0,0,1,.066.074,4.686,4.686,0,0,0,.84.857,4.454,4.454,0,0,0,.519.352c4.2,2.423,8.38-.394,10.628-1.907,1.188-.8,1.784-1.2,2.361-.867a1.657,1.657,0,0,1,.673.934,1.7,1.7,0,0,1,1.206-.557,1.955,1.955,0,0,1,.6.093,15.062,15.062,0,0,0,.427-3.616c0-1.32-.195-4.39-2-4.39a.717.717,0,0,1-.65-.409C1317.088,1000.026,1315.629,999.193,1313.346,999.193Z" transform="translate(-1299.437 -997.86)" fill="#5c22c3"/>
          </g>
        </g>
      </g>
      <g id="Grupo_163518" data-name="Grupo 163518" transform="translate(1256.35 1025.268)">
        <g id="Grupo_163513" data-name="Grupo 163513" transform="translate(0.666 0.665)">
          <path id="Trazado_229014" data-name="Trazado 229014" d="M1274.431,1077.673a8.332,8.332,0,0,0-2.234-.919v3.125c0,1.232-.866,1.732-1.934,1.117l-10.482-6.051a4.288,4.288,0,0,1-1.931-3.35v-9.154c0-1.232.866-1.733,1.931-1.114l10.482,6.051a4.27,4.27,0,0,1,1.934,3.347v2.3c.184.094.368.192.557.3a17.7,17.7,0,0,1,7.5,10.7A16.332,16.332,0,0,0,1274.431,1077.673Z" transform="translate(-1257.85 -1061.062)" fill="#fff"/>
        </g>
        <g id="Grupo_163517" data-name="Grupo 163517">
          <g id="Grupo_163514" data-name="Grupo 163514">
            <path id="Trazado_229015" data-name="Trazado 229015" d="M1279.418,1083.854a.666.666,0,0,1-.586-.349,15.694,15.694,0,0,0-5.568-6.086,8.522,8.522,0,0,0-1.234-.594v2.222a1.832,1.832,0,0,1-2.933,1.694l-10.483-6.051a4.957,4.957,0,0,1-2.264-3.927v-9.154a1.829,1.829,0,0,1,2.932-1.69l10.481,6.049a4.94,4.94,0,0,1,2.267,3.924v1.895c.075.042.151.084.226.129a18.306,18.306,0,0,1,7.811,11.119.666.666,0,0,1-.413.774A.654.654,0,0,1,1279.418,1083.854Zm-21.335-22.957a.335.335,0,0,0-.167.038.792.792,0,0,0-.233.674v9.154a3.611,3.611,0,0,0,1.6,2.774l10.481,6.05a.78.78,0,0,0,.7.134c.146-.084.234-.336.234-.674v-3.124a.666.666,0,0,1,.819-.648,9,9,0,0,1,2.414.99,13.878,13.878,0,0,1,2.827,2.211,15.574,15.574,0,0,0-5.174-5.409c-.177-.1-.35-.2-.523-.285a.666.666,0,0,1-.363-.593v-2.3a3.593,3.593,0,0,0-1.6-2.77l-10.482-6.051A1.13,1.13,0,0,0,1258.083,1060.9Z" transform="translate(-1256.35 -1059.566)" fill="#5c22c3"/>
          </g>
          <g id="Grupo_163515" data-name="Grupo 163515" transform="translate(3.761 6.42)">
            <path id="Trazado_229016" data-name="Trazado 229016" d="M1272.7,1079.517a.661.661,0,0,1-.332-.09l-7.219-4.165a.666.666,0,0,1,.666-1.154l7.219,4.165a.666.666,0,0,1-.334,1.243Z" transform="translate(-1264.817 -1074.02)" fill="#5c22c3"/>
          </g>
          <g id="Grupo_163516" data-name="Grupo 163516" transform="translate(3.761 9.837)">
            <path id="Trazado_229017" data-name="Trazado 229017" d="M1270.3,1085.829a.661.661,0,0,1-.332-.089l-4.822-2.783a.666.666,0,1,1,.666-1.154l4.822,2.784a.666.666,0,0,1-.334,1.243Z" transform="translate(-1264.817 -1081.713)" fill="#5c22c3"/>
          </g>
        </g>
      </g>
    </g>
  </g>
</svg>
