<svg xmlns="http://www.w3.org/2000/svg" width="63" height="69" viewBox="0 0 63 69">
  <g id="Grupo_186956" data-name="Grupo 186956" transform="translate(-296 -719)">
    <g id="Grupo_160621" data-name="Grupo 160621">
      <g id="Grupo_80450" data-name="Grupo 80450" transform="translate(107.814 -1148.879)">
        <path id="Rectángulo_33860" data-name="Rectángulo 33860" d="M20,0H63a0,0,0,0,1,0,0V49A20,20,0,0,1,43,69H0a0,0,0,0,1,0,0V20A20,20,0,0,1,20,0Z" transform="translate(188.186 1867.879)" fill="#64b5f6"/>
        <g id="Grupo_80449" data-name="Grupo 80449" transform="translate(198.548 1881.293)">
          <circle id="Elipse_4740" data-name="Elipse 4740" cx="20.744" cy="20.744" r="20.744" fill="#fff"/>
        </g>
      </g>
      <g id="folder" transform="translate(-1803.078 271.658)">
        <g id="Grupo_160609" data-name="Grupo 160609" transform="translate(2118.372 466.636)">
          <g id="Grupo_160605" data-name="Grupo 160605" transform="translate(19.975 12.457)">
            <path id="Trazado_226630" data-name="Trazado 226630" d="M2226.559,532.457l-3.963,17.81-1.219-4.187,3.216-14.758Z" transform="translate(-2221.376 -531.323)" fill="#373a3a"/>
          </g>
          <g id="Grupo_160606" data-name="Grupo 160606" transform="translate(8.597 0)">
            <path id="Trazado_226631" data-name="Trazado 226631" d="M2170.732,481.2l-.091-.308-4.292-2.477c-.884-.511-1.482-.267-1.538.625-.052.853-.6,1.109-1.422.685l2.554-11.881,13.108,7.566-4.284,19.648Z" transform="translate(-2163.39 -467.841)" fill="#fef536"/>
          </g>
          <g id="Grupo_160607" data-name="Grupo 160607" transform="translate(0 6.921)">
            <path id="Trazado_226632" data-name="Trazado 226632" d="M2139.553,523.4l1.219,4.187-16.91-9.766-4.284-14.714s8.558,4.941,8.6,4.961c.831.41,1.37.168,1.422-.685.056-.892.654-1.136,1.538-.625l4.292,2.477Z" transform="translate(-2119.578 -503.11)" fill="#fff"/>
          </g>
          <g id="Grupo_160608" data-name="Grupo 160608" transform="translate(6.697 3.829)">
            <path id="Trazado_226633" data-name="Trazado 226633" d="M2157.108,488.421l-1.5,6.985c-.039-.019-.076-.039-.118-.062l-1.782-1.031,1.548-6.96Z" transform="translate(-2153.708 -487.353)" fill="#373a3a"/>
          </g>
        </g>
        <g id="Grupo_160620" data-name="Grupo 160620" transform="translate(2118.078 466.342)">
          <g id="Grupo_160610" data-name="Grupo 160610" transform="translate(0 6.92)">
            <path id="Trazado_226634" data-name="Trazado 226634" d="M2139.566,526.68a.3.3,0,0,1-.135-.033h0s0,0,0,0h0l-.006,0-16.91-9.766a.293.293,0,0,1-.135-.172l-4.284-14.714a.294.294,0,0,1,.43-.337c2.92,1.686,8.473,4.891,8.591,4.957a.879.879,0,0,0,.758.112.694.694,0,0,0,.229-.556,1.169,1.169,0,0,1,.555-1.053,1.423,1.423,0,0,1,1.424.191l4.292,2.477a.293.293,0,0,1,.135.173l5.025,17.251,3.667-16.48-1.779-1.026a.294.294,0,1,1,.294-.51l1.966,1.134a.294.294,0,0,1,.14.319l-3.962,17.8a.29.29,0,0,1-.023.068h0l-.012.023h0a.292.292,0,0,1-.162.129l-.017,0A.292.292,0,0,1,2139.566,526.68Zm-16.66-10.256,16.173,9.34-5.108-17.535-4.189-2.418c-.364-.211-.674-.277-.851-.182s-.235.4-.246.57a1.171,1.171,0,0,1-.521,1.029,1.357,1.357,0,0,1-1.325-.1c-.012-.006-.046-.023-7.979-4.6Z" transform="translate(-2118.078 -501.61)" fill="#373a3a"/>
          </g>
          <g id="Grupo_160611" data-name="Grupo 160611" transform="translate(6.697 3.829)">
            <path id="Trazado_226635" data-name="Trazado 226635" d="M2152.5,493.4a.295.295,0,0,1-.288-.358l1.548-6.96a.294.294,0,0,1,.434-.191l1.852,1.068a.294.294,0,1,1-.294.51l-1.505-.868-1.461,6.568A.3.3,0,0,1,2152.5,493.4Z" transform="translate(-2152.208 -485.853)" fill="#373a3a"/>
          </g>
          <g id="Grupo_160612" data-name="Grupo 160612" transform="translate(8.597)">
            <path id="Trazado_226636" data-name="Trazado 226636" d="M2173.562,494.144a.287.287,0,0,1-.063-.007.3.3,0,0,1-.225-.35l4.238-19.438-12.572-7.257-2.469,11.486a.294.294,0,0,1-.575-.124l2.554-11.881a.294.294,0,0,1,.435-.193l13.109,7.566a.3.3,0,0,1,.141.318l-4.284,19.648A.3.3,0,0,1,2173.562,494.144Z" transform="translate(-2161.889 -466.342)" fill="#373a3a"/>
          </g>
          <g id="Grupo_160613" data-name="Grupo 160613" transform="translate(12.183 5.9)">
            <path id="Trazado_226637" data-name="Trazado 226637" d="M2189.353,502.129a.291.291,0,0,1-.147-.04l-8.891-5.13a.294.294,0,0,1,.294-.51l8.891,5.13a.295.295,0,0,1-.147.549Z" transform="translate(-2180.168 -496.41)" fill="#373a3a"/>
          </g>
          <g id="Grupo_160614" data-name="Grupo 160614" transform="translate(11.827 7.456)">
            <path id="Trazado_226638" data-name="Trazado 226638" d="M2187.536,510.061a.3.3,0,0,1-.147-.039l-8.888-5.13a.294.294,0,1,1,.294-.51l8.888,5.13a.294.294,0,0,1-.147.549Z" transform="translate(-2178.354 -504.342)" fill="#373a3a"/>
          </g>
          <g id="Grupo_160615" data-name="Grupo 160615" transform="translate(11.469 9.015)">
            <path id="Trazado_226639" data-name="Trazado 226639" d="M2185.711,518a.294.294,0,0,1-.147-.039l-8.888-5.13a.294.294,0,0,1,.294-.51l8.888,5.13a.294.294,0,0,1-.147.549Z" transform="translate(-2176.529 -512.284)" fill="#373a3a"/>
          </g>
          <g id="Grupo_160616" data-name="Grupo 160616" transform="translate(15.94 13.357)">
            <path id="Trazado_226640" data-name="Trazado 226640" d="M2203.665,537.344a.3.3,0,0,1-.147-.039l-4.06-2.345a.294.294,0,0,1,.294-.51l4.06,2.345a.294.294,0,0,1-.147.549Z" transform="translate(-2199.311 -534.411)" fill="#373a3a"/>
          </g>
          <g id="Grupo_160617" data-name="Grupo 160617" transform="translate(16.556 15.476)">
            <path id="Trazado_226641" data-name="Trazado 226641" d="M2205.835,547.583a.294.294,0,0,1-.147-.04l-3.088-1.784a.294.294,0,1,1,.294-.51l3.088,1.784a.294.294,0,0,1-.147.549Z" transform="translate(-2202.453 -545.211)" fill="#373a3a"/>
          </g>
          <g id="Grupo_160618" data-name="Grupo 160618" transform="translate(17.175 17.597)">
            <path id="Trazado_226642" data-name="Trazado 226642" d="M2208.012,557.829a.292.292,0,0,1-.147-.04l-2.111-1.219a.294.294,0,1,1,.294-.51l2.111,1.219a.294.294,0,0,1-.147.549Z" transform="translate(-2205.607 -556.021)" fill="#373a3a"/>
          </g>
          <g id="Grupo_160619" data-name="Grupo 160619" transform="translate(17.86 19.952)">
            <path id="Trazado_226643" data-name="Trazado 226643" d="M2210.12,569.032a.289.289,0,0,1-.146-.04l-.729-.42a.294.294,0,1,1,.294-.51l.729.42a.294.294,0,0,1-.147.549Z" transform="translate(-2209.098 -568.023)" fill="#373a3a"/>
          </g>
        </g>
      </g>
    </g>
  </g>
</svg>
