<svg xmlns="http://www.w3.org/2000/svg" width="976.835" height="515.553" viewBox="0 0 976.835 515.553">
  <g id="Grupo_186960" data-name="Grupo 186960" transform="translate(-253.319 -4553.328)">
    <g id="Grupo_186819" data-name="Grupo 186819">
      <path id="Trazado_228207" data-name="Trazado 228207" d="M599.672,309.964a7.232,7.232,0,0,0-6.54,0c-1.808,1.043-1.808,2.734,0,3.777a7.226,7.226,0,0,0,6.54,0C601.478,312.7,601.477,311.007,599.672,309.964Z" transform="translate(350.32 4545.627)"/>
      <g id="Grupo_162494" data-name="Grupo 162494" transform="translate(0 -65.969)">
        <g id="Grupo_162479" data-name="Grupo 162479" transform="translate(350.32 4611.596)">
          <path id="Trazado_228113" data-name="Trazado 228113" d="M470.852,264.184c-4.331-2.5-11.417-2.5-15.749,0L222.477,398.494c-4.33,2.5-4.33,6.591,0,9.093L376.67,496.613c4.331,2.5,11.419,2.5,15.748,0L625.047,362.3c4.329-2.5,4.329-6.593,0-9.092Z" fill="#fff"/>
          <path id="Trazado_228114" data-name="Trazado 228114" d="M463.554,72.258c0-2.6-.967-4.4-2.5-5.174-.022-.011-.041-.028-.066-.04L454.8,63.485c-1.415-.748-3.33-.606-5.431.608L216.737,198.4c-4.33,2.5-7.876,8.638-7.876,13.639l0,178.046c0,2.5.885,4.255,2.31,5.077l6.264,3.6c1.431.857,3.419.761,5.613-.5L455.683,263.943c4.33-2.5,7.875-8.637,7.875-13.638Z" fill="#fff"/>
          <path id="Trazado_228115" data-name="Trazado 228115" d="M219.228,403.041l0,8.982c-.048,1.685,1.035,3.379,3.247,4.656L376.67,505.706c4.331,2.5,11.419,2.5,15.748,0L625.047,371.395c2.164-1.249,3.246-2.9,3.248-4.542l-.007-8.91c0-.03,0-.06,0-.092-.042,1.617-1.116,3.225-3.239,4.45L392.418,496.613c-4.329,2.5-11.417,2.5-15.748,0L222.477,407.587c-2.188-1.263-3.27-2.932-3.249-4.6Z" fill="#9ac0db"/>
          <path id="Trazado_228116" data-name="Trazado 228116" d="M229.352,381.885c-1.733,1-3.151.179-3.151-1.82l0-163.5a6.99,6.99,0,0,1,3.152-5.458L449.379,84.08c1.733-1,3.15-.182,3.15,1.818l0,163.5a6.991,6.991,0,0,1-3.148,5.456Z" fill="#9ac0db"/>
          <path id="Trazado_228117" data-name="Trazado 228117" d="M625.047,377.975l-5.7-3.29L392.418,505.708c-4.329,2.5-11.417,2.5-15.748,0L228.177,419.969l-5.7,3.291c-4.33,2.5-4.33,6.592,0,9.093L376.67,521.378c4.331,2.5,11.419,2.5,15.748,0L625.047,387.066C629.376,384.567,629.376,380.475,625.047,377.975Z" fill="#9ac0db"/>
          <g id="Grupo_162400" data-name="Grupo 162400">
            <path id="Trazado_228118" data-name="Trazado 228118" d="M527.76,333.341a3.446,3.446,0,0,1-1.7-.41l-2.261-1.3a1.206,1.206,0,0,1,0-2.252l9.589-5.535a3.846,3.846,0,0,1,3.4,0l2.26,1.3a1.206,1.206,0,0,1,0,2.251l-9.589,5.535A3.448,3.448,0,0,1,527.76,333.341Zm7.328-9.41a2.952,2.952,0,0,0-1.45.341l-9.589,5.536a.72.72,0,0,0,0,1.386l2.261,1.3a3.378,3.378,0,0,0,2.9,0l9.589-5.536a.721.721,0,0,0,0-1.386l-2.26-1.3A2.959,2.959,0,0,0,535.088,323.931Z"/>
          </g>
          <g id="Grupo_162401" data-name="Grupo 162401">
            <path id="Trazado_228119" data-name="Trazado 228119" d="M270.8,413.768a3.454,3.454,0,0,1-1.7-.41l-9.59-5.539a1.2,1.2,0,0,1,0-2.248l9.59-5.538a3.863,3.863,0,0,1,3.4,0l9.59,5.539a1.206,1.206,0,0,1,0,2.251l-9.591,5.536A3.447,3.447,0,0,1,270.8,413.768Zm0-13.643a2.955,2.955,0,0,0-1.45.341L259.756,406a.719.719,0,0,0,0,1.384l9.59,5.538a3.335,3.335,0,0,0,2.9,0l9.591-5.536a.721.721,0,0,0,0-1.386l-9.59-5.538A2.966,2.966,0,0,0,270.8,400.125Z"/>
          </g>
          <g id="Grupo_162402" data-name="Grupo 162402">
            <path id="Trazado_228120" data-name="Trazado 228120" d="M285.469,405.293a3.461,3.461,0,0,1-1.7-.407l-9.588-5.535a1.2,1.2,0,0,1,0-2.252l9.587-5.536a3.844,3.844,0,0,1,3.4,0l9.589,5.536a1.205,1.205,0,0,1,0,2.252l-9.589,5.535A3.457,3.457,0,0,1,285.469,405.293Zm0-13.639a2.945,2.945,0,0,0-1.451.342l-9.587,5.536a.719.719,0,0,0,0,1.386l9.588,5.535a3.4,3.4,0,0,0,2.9,0l9.589-5.535a.72.72,0,0,0,0-1.386L286.918,392A2.981,2.981,0,0,0,285.469,391.654Z"/>
          </g>
          <g id="Grupo_162403" data-name="Grupo 162403">
            <path id="Trazado_228121" data-name="Trazado 228121" d="M300.143,396.822a3.483,3.483,0,0,1-1.7-.407l-9.586-5.538a1.2,1.2,0,0,1,0-2.251l9.586-5.536a3.852,3.852,0,0,1,3.4,0l9.59,5.536a1.205,1.205,0,0,1,0,2.251l-9.59,5.537A3.458,3.458,0,0,1,300.143,396.822Zm0-13.64a2.963,2.963,0,0,0-1.452.341l-9.586,5.536a.719.719,0,0,0,0,1.385l9.586,5.537a3.356,3.356,0,0,0,2.9,0l9.59-5.537a.719.719,0,0,0,0-1.384l-9.59-5.538A2.962,2.962,0,0,0,300.143,383.182Z"/>
          </g>
          <g id="Grupo_162404" data-name="Grupo 162404">
            <path id="Trazado_228122" data-name="Trazado 228122" d="M314.815,388.35a3.452,3.452,0,0,1-1.7-.408l-9.59-5.537a1.205,1.205,0,0,1,0-2.251l9.59-5.537a3.862,3.862,0,0,1,3.4,0l9.589,5.538a1.205,1.205,0,0,1,0,2.25l-9.588,5.537A3.462,3.462,0,0,1,314.815,388.35Zm0-13.641a2.962,2.962,0,0,0-1.449.341l-9.59,5.537a.72.72,0,0,0,0,1.385l9.59,5.537a3.4,3.4,0,0,0,2.9,0l9.588-5.537a.72.72,0,0,0,0-1.385l-9.588-5.537A2.981,2.981,0,0,0,314.815,374.709Z"/>
          </g>
          <g id="Grupo_162405" data-name="Grupo 162405">
            <path id="Trazado_228123" data-name="Trazado 228123" d="M329.489,379.878a3.472,3.472,0,0,1-1.7-.407l-9.589-5.538a1.205,1.205,0,0,1,0-2.25l9.589-5.537a3.855,3.855,0,0,1,3.4,0l9.588,5.537a1.2,1.2,0,0,1,0,2.252l-9.588,5.535A3.449,3.449,0,0,1,329.489,379.878Zm0-13.64a2.994,2.994,0,0,0-1.45.341l-9.589,5.537a.719.719,0,0,0,0,1.384l9.589,5.538a3.4,3.4,0,0,0,2.9,0l9.588-5.536a.719.719,0,0,0,0-1.386l-9.589-5.537A2.987,2.987,0,0,0,329.489,366.238Z"/>
          </g>
          <g id="Grupo_162406" data-name="Grupo 162406">
            <path id="Trazado_228124" data-name="Trazado 228124" d="M344.163,371.406a3.442,3.442,0,0,1-1.7-.409l-9.592-5.536a1.207,1.207,0,0,1,0-2.252l9.593-5.534a3.831,3.831,0,0,1,3.4,0l9.59,5.534a1.205,1.205,0,0,1,0,2.252L345.861,371A3.44,3.44,0,0,1,344.163,371.406Zm0-13.641a2.99,2.99,0,0,0-1.449.342l-9.592,5.535a.722.722,0,0,0,0,1.387l9.592,5.535a3.375,3.375,0,0,0,2.9,0l9.59-5.535a.721.721,0,0,0,0-1.387l-9.59-5.535A2.989,2.989,0,0,0,344.163,357.765Z"/>
          </g>
          <g id="Grupo_162407" data-name="Grupo 162407">
            <path id="Trazado_228125" data-name="Trazado 228125" d="M358.836,362.936a3.454,3.454,0,0,1-1.7-.408l-9.591-5.538a1.2,1.2,0,0,1,0-2.25l9.589-5.537a3.852,3.852,0,0,1,3.4,0l9.588,5.538a1.2,1.2,0,0,1,0,2.25l-9.588,5.537A3.458,3.458,0,0,1,358.836,362.936Zm0-13.643a2.961,2.961,0,0,0-1.45.342l-9.589,5.538a.719.719,0,0,0,0,1.384l9.591,5.538a3.354,3.354,0,0,0,2.9,0l9.587-5.537a.719.719,0,0,0,0-1.384l-9.588-5.538A2.964,2.964,0,0,0,358.836,349.293Z"/>
          </g>
          <g id="Grupo_162408" data-name="Grupo 162408">
            <path id="Trazado_228126" data-name="Trazado 228126" d="M373.509,354.463a3.459,3.459,0,0,1-1.7-.409l-9.588-5.536a1.205,1.205,0,0,1,0-2.252l9.588-5.536a3.851,3.851,0,0,1,3.4,0l9.59,5.536a1.205,1.205,0,0,1,0,2.252l-9.588,5.536A3.466,3.466,0,0,1,373.509,354.463Zm0-13.642a2.994,2.994,0,0,0-1.45.342l-9.588,5.536a.72.72,0,0,0,0,1.386l9.588,5.536a3.346,3.346,0,0,0,2.9,0l9.588-5.536a.72.72,0,0,0,0-1.386l-9.59-5.536A2.993,2.993,0,0,0,373.509,340.821Z"/>
          </g>
          <g id="Grupo_162409" data-name="Grupo 162409">
            <path id="Trazado_228127" data-name="Trazado 228127" d="M388.183,345.991a3.448,3.448,0,0,1-1.7-.409l-9.589-5.536a1.206,1.206,0,0,1,0-2.252l9.589-5.535a3.844,3.844,0,0,1,3.4,0l9.588,5.535a1.205,1.205,0,0,1,0,2.252l-9.587,5.536A3.455,3.455,0,0,1,388.183,345.991Zm0-13.641a2.986,2.986,0,0,0-1.45.342l-9.589,5.535a.72.72,0,0,0,0,1.386l9.589,5.536a3.363,3.363,0,0,0,2.9,0l9.587-5.536a.72.72,0,0,0,0-1.386l-9.588-5.535A2.986,2.986,0,0,0,388.183,332.35Z"/>
          </g>
          <g id="Grupo_162410" data-name="Grupo 162410">
            <path id="Trazado_228128" data-name="Trazado 228128" d="M402.855,337.52a3.458,3.458,0,0,1-1.7-.41l-9.586-5.535a1.2,1.2,0,0,1,0-2.252l9.586-5.535a3.842,3.842,0,0,1,3.4,0l9.588,5.535a1.205,1.205,0,0,1,0,2.252l-9.588,5.535A3.449,3.449,0,0,1,402.855,337.52Zm0-13.642a2.953,2.953,0,0,0-1.451.342l-9.586,5.535a.72.72,0,0,0,0,1.387l9.586,5.535a3.341,3.341,0,0,0,2.9,0l9.588-5.535a.721.721,0,0,0,0-1.387l-9.588-5.535A2.948,2.948,0,0,0,402.855,323.878Z"/>
          </g>
          <g id="Grupo_162411" data-name="Grupo 162411">
            <path id="Trazado_228129" data-name="Trazado 228129" d="M417.53,329.048a3.468,3.468,0,0,1-1.7-.409l-9.587-5.536a1.205,1.205,0,0,1,0-2.252l9.587-5.535a3.857,3.857,0,0,1,3.4,0l9.59,5.539a1.2,1.2,0,0,1,0,2.251l-9.588,5.536A3.455,3.455,0,0,1,417.53,329.048Zm0-13.642a2.956,2.956,0,0,0-1.453.343l-9.587,5.535a.72.72,0,0,0,0,1.386l9.587,5.536a3.351,3.351,0,0,0,2.9,0l9.588-5.536a.719.719,0,0,0,0-1.385l-9.59-5.538A2.94,2.94,0,0,0,417.532,315.406Z"/>
          </g>
          <g id="Grupo_162412" data-name="Grupo 162412">
            <path id="Trazado_228130" data-name="Trazado 228130" d="M432.2,320.575a3.437,3.437,0,0,1-1.7-.409l-9.59-5.537a1.2,1.2,0,0,1,0-2.25l9.59-5.537a3.854,3.854,0,0,1,3.4,0l9.589,5.537a1.2,1.2,0,0,1,0,2.251l-9.586,5.536A3.459,3.459,0,0,1,432.2,320.575Zm0-13.64a3,3,0,0,0-1.448.34l-9.59,5.537a.719.719,0,0,0,0,1.384l9.59,5.538a3.378,3.378,0,0,0,2.9,0l9.586-5.536a.718.718,0,0,0,0-1.385l-9.589-5.537A3,3,0,0,0,432.2,306.935Z"/>
          </g>
          <g id="Grupo_162413" data-name="Grupo 162413">
            <path id="Trazado_228131" data-name="Trazado 228131" d="M446.877,312.1a3.463,3.463,0,0,1-1.7-.408l-9.587-5.538a1.2,1.2,0,0,1,0-2.25l9.587-5.537a3.857,3.857,0,0,1,3.4,0l9.589,5.537a1.2,1.2,0,0,1,0,2.251l-9.589,5.537A3.455,3.455,0,0,1,446.877,312.1Zm0-13.641a2.959,2.959,0,0,0-1.451.341l-9.587,5.537a.719.719,0,0,0,0,1.384l9.587,5.538a3.375,3.375,0,0,0,2.9,0l9.589-5.537a.719.719,0,0,0,0-1.385l-9.589-5.537A2.989,2.989,0,0,0,446.877,298.462Z"/>
          </g>
          <g id="Grupo_162414" data-name="Grupo 162414">
            <path id="Trazado_228132" data-name="Trazado 228132" d="M256.291,405.391a3.461,3.461,0,0,1-1.7-.408l-4.264-2.463a1.2,1.2,0,0,1,0-2.25l10.049-5.8a3.856,3.856,0,0,1,3.4,0l4.263,2.463a1.205,1.205,0,0,1,0,2.25l-10.049,5.8A3.444,3.444,0,0,1,256.291,405.391Zm5.784-10.831a2.954,2.954,0,0,0-1.449.341l-10.049,5.8a.719.719,0,0,0,0,1.384l4.264,2.463a3.348,3.348,0,0,0,2.9,0l10.049-5.8a.72.72,0,0,0,0-1.385l-4.263-2.462A2.989,2.989,0,0,0,262.075,394.56Z"/>
          </g>
          <g id="Grupo_162415" data-name="Grupo 162415">
            <path id="Trazado_228133" data-name="Trazado 228133" d="M271.493,396.614a3.468,3.468,0,0,1-1.7-.408l-4.262-2.461a1.207,1.207,0,0,1,0-2.253l10.049-5.8a3.846,3.846,0,0,1,3.4,0l4.265,2.46a1.206,1.206,0,0,1,0,2.253l-10.047,5.8A3.459,3.459,0,0,1,271.493,396.614Zm5.784-10.831a2.939,2.939,0,0,0-1.448.342l-10.049,5.8a.721.721,0,0,0,0,1.387l4.262,2.461a3.356,3.356,0,0,0,2.9,0l10.047-5.8a.721.721,0,0,0,0-1.388l-4.265-2.46A2.947,2.947,0,0,0,277.277,385.783Z"/>
          </g>
          <g id="Grupo_162416" data-name="Grupo 162416">
            <path id="Trazado_228134" data-name="Trazado 228134" d="M286.7,387.836a3.458,3.458,0,0,1-1.7-.409l-4.262-2.46a1.206,1.206,0,0,1,0-2.253l10.047-5.8a3.853,3.853,0,0,1,3.4,0l4.263,2.463a1.2,1.2,0,0,1,0,2.252l-10.048,5.8A3.444,3.444,0,0,1,286.7,387.836Zm5.786-10.831a2.958,2.958,0,0,0-1.452.342l-10.047,5.8a.72.72,0,0,0,0,1.387l4.262,2.46a3.337,3.337,0,0,0,2.9,0l10.048-5.8a.72.72,0,0,0,0-1.386l-4.263-2.463A2.952,2.952,0,0,0,292.481,377.005Z"/>
          </g>
          <g id="Grupo_162417" data-name="Grupo 162417">
            <path id="Trazado_228135" data-name="Trazado 228135" d="M301.9,379.06a3.472,3.472,0,0,1-1.7-.408l-4.261-2.461a1.205,1.205,0,0,1,0-2.253l10.047-5.8a3.86,3.86,0,0,1,3.4,0l4.262,2.462a1.2,1.2,0,0,1,0,2.252l-10.046,5.8A3.459,3.459,0,0,1,301.9,379.06Zm5.785-10.831a3,3,0,0,0-1.451.341l-10.047,5.8a.72.72,0,0,0,0,1.387l4.261,2.46a3.358,3.358,0,0,0,2.9,0l10.046-5.8a.72.72,0,0,0,0-1.386l-4.262-2.461A3,3,0,0,0,307.683,368.229Z"/>
          </g>
          <g id="Grupo_162418" data-name="Grupo 162418">
            <path id="Trazado_228136" data-name="Trazado 228136" d="M317.1,370.282a3.468,3.468,0,0,1-1.7-.408l-4.262-2.462a1.2,1.2,0,0,1,0-2.251l10.047-5.8a3.856,3.856,0,0,1,3.4,0l4.265,2.462a1.206,1.206,0,0,1,0,2.251l-10.047,5.8A3.47,3.47,0,0,1,317.1,370.282Zm5.784-10.831a2.994,2.994,0,0,0-1.45.341l-10.047,5.8a.719.719,0,0,0,0,1.384l4.261,2.463a3.362,3.362,0,0,0,2.9,0l10.047-5.8a.72.72,0,0,0,0-1.385l-4.265-2.463A3,3,0,0,0,322.884,359.451Z"/>
          </g>
          <g id="Grupo_162419" data-name="Grupo 162419">
            <path id="Trazado_228137" data-name="Trazado 228137" d="M332.3,361.505a3.456,3.456,0,0,1-1.7-.409l-4.262-2.461a1.205,1.205,0,0,1,0-2.252l10.049-5.8a3.858,3.858,0,0,1,3.4,0l4.263,2.462a1.207,1.207,0,0,1,0,2.252L334,361.1A3.451,3.451,0,0,1,332.3,361.505Zm5.784-10.832a2.99,2.99,0,0,0-1.449.341l-10.049,5.8a.721.721,0,0,0,0,1.387l4.262,2.46a3.348,3.348,0,0,0,2.9,0l10.048-5.8a.721.721,0,0,0,0-1.387l-4.263-2.462A2.993,2.993,0,0,0,338.087,350.673Z"/>
          </g>
          <g id="Grupo_162420" data-name="Grupo 162420">
            <path id="Trazado_228138" data-name="Trazado 228138" d="M347.5,352.728a3.444,3.444,0,0,1-1.7-.41l-4.263-2.46a1.207,1.207,0,0,1,0-2.253l10.048-5.8a3.861,3.861,0,0,1,3.4,0l4.264,2.461a1.207,1.207,0,0,1,0,2.252l-10.048,5.8A3.452,3.452,0,0,1,347.5,352.728Zm5.786-10.831a2.955,2.955,0,0,0-1.45.341l-10.048,5.8a.721.721,0,0,0,0,1.387l4.263,2.46a3.361,3.361,0,0,0,2.9,0l10.048-5.8a.721.721,0,0,0,0-1.387l-4.264-2.46A2.954,2.954,0,0,0,353.289,341.9Z"/>
          </g>
          <g id="Grupo_162421" data-name="Grupo 162421">
            <path id="Trazado_228139" data-name="Trazado 228139" d="M362.707,343.95a3.451,3.451,0,0,1-1.7-.408l-4.264-2.462a1.2,1.2,0,0,1,0-2.25l10.048-5.8a3.857,3.857,0,0,1,3.4,0l4.262,2.463a1.2,1.2,0,0,1,0,2.25l-10.047,5.8A3.455,3.455,0,0,1,362.707,343.95Zm5.785-10.83a2.959,2.959,0,0,0-1.451.34l-10.048,5.8a.719.719,0,0,0,0,1.384l4.264,2.463a3.348,3.348,0,0,0,2.9,0l10.047-5.8a.719.719,0,0,0,0-1.384l-4.262-2.463A3,3,0,0,0,368.492,333.12Z"/>
          </g>
          <g id="Grupo_162422" data-name="Grupo 162422">
            <path id="Trazado_228140" data-name="Trazado 228140" d="M377.91,335.172a3.469,3.469,0,0,1-1.7-.407l-4.264-2.463a1.2,1.2,0,0,1,0-2.251l10.046-5.8a3.862,3.862,0,0,1,3.4,0l4.264,2.463a1.2,1.2,0,0,1,0,2.25l-10.047,5.8A3.457,3.457,0,0,1,377.91,335.172Zm5.784-10.831a2.951,2.951,0,0,0-1.451.342l-10.047,5.8a.719.719,0,0,0,0,1.385l4.265,2.463a3.352,3.352,0,0,0,2.9,0l10.047-5.8a.719.719,0,0,0,0-1.384l-4.264-2.463A2.958,2.958,0,0,0,383.694,324.341Z"/>
          </g>
          <g id="Grupo_162423" data-name="Grupo 162423">
            <path id="Trazado_228141" data-name="Trazado 228141" d="M393.111,326.4a3.468,3.468,0,0,1-1.7-.409l-4.262-2.461a1.206,1.206,0,0,1,0-2.252l10.047-5.8a3.839,3.839,0,0,1,3.4,0l4.262,2.46a1.2,1.2,0,0,1,0,2.252l-10.048,5.8A3.455,3.455,0,0,1,393.111,326.4Zm5.784-10.832a2.96,2.96,0,0,0-1.45.342l-10.047,5.8a.721.721,0,0,0,0,1.387l4.262,2.46a3.344,3.344,0,0,0,2.9,0l10.048-5.8a.72.72,0,0,0,0-1.386l-4.262-2.461A2.959,2.959,0,0,0,398.895,315.564Z"/>
          </g>
          <g id="Grupo_162424" data-name="Grupo 162424">
            <path id="Trazado_228142" data-name="Trazado 228142" d="M408.314,317.618a3.449,3.449,0,0,1-1.7-.41l-4.263-2.46a1.205,1.205,0,0,1,0-2.252l10.048-5.8a3.838,3.838,0,0,1,3.4,0l4.263,2.461a1.205,1.205,0,0,1,0,2.251l-10.05,5.8A3.431,3.431,0,0,1,408.314,317.618Zm5.785-10.831a3,3,0,0,0-1.45.341l-10.048,5.8a.72.72,0,0,0,0,1.386l4.263,2.46a3.373,3.373,0,0,0,2.9,0l10.051-5.8a.721.721,0,0,0,0-1.387l-4.263-2.461A2.993,2.993,0,0,0,414.1,306.787Z"/>
          </g>
          <g id="Grupo_162425" data-name="Grupo 162425">
            <path id="Trazado_228143" data-name="Trazado 228143" d="M423.516,308.841a3.479,3.479,0,0,1-1.7-.407l-4.262-2.464a1.2,1.2,0,0,1,0-2.25l10.049-5.8a3.843,3.843,0,0,1,3.4,0l4.262,2.46a1.206,1.206,0,0,1,0,2.253l-10.046,5.8A3.47,3.47,0,0,1,423.516,308.841Zm5.785-10.833a2.94,2.94,0,0,0-1.449.343l-10.049,5.8a.719.719,0,0,0,0,1.384L422.064,308a3.362,3.362,0,0,0,2.9,0l10.046-5.8a.72.72,0,0,0,0-1.387l-4.262-2.46A2.946,2.946,0,0,0,429.3,298.008Z"/>
          </g>
          <g id="Grupo_162426" data-name="Grupo 162426">
            <path id="Trazado_228144" data-name="Trazado 228144" d="M438.719,300.063a3.459,3.459,0,0,1-1.7-.408l-4.263-2.461a1.205,1.205,0,0,1,0-2.252l10.047-5.8a3.85,3.85,0,0,1,3.4,0l4.262,2.463a1.206,1.206,0,0,1,0,2.251l-10.046,5.8A3.461,3.461,0,0,1,438.719,300.063Zm5.785-10.831a2.986,2.986,0,0,0-1.451.343l-10.047,5.8a.721.721,0,0,0,0,1.387l4.263,2.46a3.392,3.392,0,0,0,2.9,0l10.046-5.8a.721.721,0,0,0,0-1.386l-4.262-2.463A2.99,2.99,0,0,0,444.5,289.232Z"/>
          </g>
          <g id="Grupo_162427" data-name="Grupo 162427">
            <path id="Trazado_228145" data-name="Trazado 228145" d="M453.962,291.264a3.444,3.444,0,0,1-1.7-.41L448,288.393a1.206,1.206,0,0,1,0-2.252l10.047-5.8a3.851,3.851,0,0,1,3.4,0l4.264,2.463a1.206,1.206,0,0,1,0,2.253l-10.046,5.8A3.45,3.45,0,0,1,453.962,291.264Zm5.787-10.833a2.991,2.991,0,0,0-1.452.343l-10.047,5.8a.72.72,0,0,0,0,1.386l4.265,2.461a3.332,3.332,0,0,0,2.9,0l10.046-5.8a.72.72,0,0,0,0-1.387l-4.264-2.463A2.957,2.957,0,0,0,459.749,280.431Z"/>
          </g>
          <g id="Grupo_162428" data-name="Grupo 162428">
            <path id="Trazado_228146" data-name="Trazado 228146" d="M461.589,303.607a3.454,3.454,0,0,1-1.7-.407l-9.59-5.538a1.2,1.2,0,0,1,0-2.249l16.927-9.773a3.843,3.843,0,0,1,3.4,0l9.59,5.535a1.206,1.206,0,0,1,0,2.253L463.291,303.2A3.472,3.472,0,0,1,461.589,303.607Zm7.337-17.876a2.94,2.94,0,0,0-1.449.342l-16.927,9.773a.718.718,0,0,0,0,1.383l9.59,5.538a3.356,3.356,0,0,0,2.9,0l16.924-9.772a.72.72,0,0,0,0-1.387l-9.59-5.535A2.945,2.945,0,0,0,468.926,285.731Z"/>
          </g>
          <g id="Grupo_162429" data-name="Grupo 162429">
            <path id="Trazado_228147" data-name="Trazado 228147" d="M329.63,447.734a3.472,3.472,0,0,1-1.7-.407l-9.589-5.537a1.205,1.205,0,0,1,0-2.251L327.93,434a3.851,3.851,0,0,1,3.4,0l9.588,5.538a1.2,1.2,0,0,1,0,2.25l-9.588,5.537A3.468,3.468,0,0,1,329.63,447.734Zm0-13.641a2.994,2.994,0,0,0-1.45.342l-9.589,5.537a.72.72,0,0,0,0,1.385l9.589,5.537a3.4,3.4,0,0,0,2.9,0l9.588-5.537a.719.719,0,0,0,0-1.384l-9.588-5.538A2.993,2.993,0,0,0,329.63,434.093Z"/>
          </g>
          <g id="Grupo_162430" data-name="Grupo 162430">
            <path id="Trazado_228148" data-name="Trazado 228148" d="M344.3,439.263a3.455,3.455,0,0,1-1.7-.409l-9.589-5.535a1.205,1.205,0,0,1,0-2.252l9.589-5.537a3.867,3.867,0,0,1,3.4,0l9.59,5.538a1.207,1.207,0,0,1,0,2.252L346,438.854A3.44,3.44,0,0,1,344.3,439.263Zm0-13.64a3.009,3.009,0,0,0-1.451.34l-9.589,5.536a.721.721,0,0,0,0,1.387l9.589,5.536a3.394,3.394,0,0,0,2.9,0l9.591-5.536a.721.721,0,0,0,0-1.387l-9.59-5.537A3.009,3.009,0,0,0,344.3,425.623Z"/>
          </g>
          <g id="Grupo_162431" data-name="Grupo 162431">
            <path id="Trazado_228149" data-name="Trazado 228149" d="M358.977,430.791a3.449,3.449,0,0,1-1.7-.411l-9.589-5.535a1.2,1.2,0,0,1,0-2.252l9.589-5.535a3.866,3.866,0,0,1,3.4,0l9.588,5.536a1.206,1.206,0,0,1,0,2.253l-9.589,5.536A3.456,3.456,0,0,1,358.977,430.791Zm0-13.641a2.97,2.97,0,0,0-1.453.341l-9.588,5.535a.72.72,0,0,0,0,1.386l9.589,5.536a3.347,3.347,0,0,0,2.9,0l9.589-5.536a.72.72,0,0,0,0-1.387l-9.587-5.536A2.971,2.971,0,0,0,358.977,417.15Z"/>
          </g>
          <g id="Grupo_162432" data-name="Grupo 162432">
            <path id="Trazado_228150" data-name="Trazado 228150" d="M505.616,337.5a3.451,3.451,0,0,1-1.7-.408l-2.261-1.306a1.205,1.205,0,0,1,0-2.25L511.245,328a3.857,3.857,0,0,1,3.4,0l2.261,1.307a1.2,1.2,0,0,1,0,2.251l-9.588,5.536A3.463,3.463,0,0,1,505.616,337.5Zm7.33-9.409a2.951,2.951,0,0,0-1.451.341l-9.588,5.537a.719.719,0,0,0,0,1.384l2.261,1.306a3.39,3.39,0,0,0,2.9,0l9.588-5.536a.719.719,0,0,0,0-1.385l-2.261-1.307A3,3,0,0,0,512.946,328.091Z"/>
          </g>
          <g id="Grupo_162433" data-name="Grupo 162433">
            <path id="Trazado_228151" data-name="Trazado 228151" d="M498.413,350.285a3.458,3.458,0,0,1-1.7-.407l-2.26-1.308a1.2,1.2,0,0,1,0-2.251l9.589-5.535a3.844,3.844,0,0,1,3.4,0l2.259,1.3a1.2,1.2,0,0,1,0,2.252l-9.587,5.537A3.458,3.458,0,0,1,498.413,350.285Zm7.329-9.411a2.944,2.944,0,0,0-1.45.343l-9.589,5.534a.72.72,0,0,0,0,1.386l2.261,1.308a3.356,3.356,0,0,0,2.9,0l9.587-5.537a.72.72,0,0,0,0-1.387l-2.259-1.3A2.947,2.947,0,0,0,505.742,340.874Z"/>
          </g>
          <g id="Grupo_162434" data-name="Grupo 162434">
            <path id="Trazado_228152" data-name="Trazado 228152" d="M513.087,341.812a3.446,3.446,0,0,1-1.7-.409l-2.26-1.3a1.205,1.205,0,0,1,0-2.252l9.59-5.535a3.833,3.833,0,0,1,3.4,0l2.259,1.3a1.206,1.206,0,0,1,0,2.252l-9.587,5.535A3.448,3.448,0,0,1,513.087,341.812Zm7.328-9.41a2.983,2.983,0,0,0-1.448.342l-9.59,5.535a.721.721,0,0,0,0,1.387l2.26,1.305a3.392,3.392,0,0,0,2.9,0l9.587-5.535a.721.721,0,0,0,0-1.387l-2.259-1.305A2.994,2.994,0,0,0,520.415,332.4Z"/>
          </g>
          <g id="Grupo_162435" data-name="Grupo 162435">
            <path id="Trazado_228153" data-name="Trazado 228153" d="M373.649,422.319a3.457,3.457,0,0,1-1.7-.408l-9.589-5.537a1.2,1.2,0,0,1,0-2.25l9.589-5.538a3.845,3.845,0,0,1,3.4,0l9.588,5.536a1.205,1.205,0,0,1,0,2.252l-9.588,5.537A3.459,3.459,0,0,1,373.649,422.319Zm0-13.642a2.992,2.992,0,0,0-1.449.342l-9.589,5.538a.718.718,0,0,0,0,1.384l9.589,5.537a3.39,3.39,0,0,0,2.9,0l9.588-5.537a.72.72,0,0,0,0-1.386l-9.588-5.536A3,3,0,0,0,373.649,408.677Z"/>
          </g>
          <g id="Grupo_162436" data-name="Grupo 162436">
            <path id="Trazado_228154" data-name="Trazado 228154" d="M388.325,413.848a3.443,3.443,0,0,1-1.7-.411l-9.589-5.536a1.2,1.2,0,0,1,0-2.251l75.677-43.694a3.859,3.859,0,0,1,3.4,0l9.588,5.537a1.2,1.2,0,0,1,0,2.251l-75.677,43.7A3.443,3.443,0,0,1,388.325,413.848Zm66.087-51.8a2.959,2.959,0,0,0-1.451.341l-75.677,43.694a.719.719,0,0,0,0,1.385l9.59,5.536a3.376,3.376,0,0,0,2.9,0l75.677-43.7a.719.719,0,0,0,0-1.385l-9.588-5.537A2.955,2.955,0,0,0,454.412,362.048Z"/>
          </g>
          <g id="Grupo_162437" data-name="Grupo 162437">
            <path id="Trazado_228155" data-name="Trazado 228155" d="M469.046,367.24a3.456,3.456,0,0,1-1.7-.408l-9.589-5.538a1.2,1.2,0,0,1,0-2.25l9.589-5.537a3.844,3.844,0,0,1,3.4,0l9.59,5.538a1.2,1.2,0,0,1,0,2.25l-9.587,5.537A3.459,3.459,0,0,1,469.046,367.24Zm0-13.642a2.992,2.992,0,0,0-1.449.342l-9.589,5.538a.718.718,0,0,0,0,1.383L467.6,366.4a3.392,3.392,0,0,0,2.9,0l9.587-5.537a.718.718,0,0,0,0-1.384l-9.59-5.538A2.983,2.983,0,0,0,469.045,353.6Z"/>
          </g>
          <g id="Grupo_162438" data-name="Grupo 162438">
            <path id="Trazado_228156" data-name="Trazado 228156" d="M483.719,358.768a3.446,3.446,0,0,1-1.7-.41l-9.589-5.534a1.207,1.207,0,0,1,0-2.253l9.589-5.535a3.847,3.847,0,0,1,3.4,0l9.591,5.535a1.207,1.207,0,0,1,0,2.253l-9.591,5.534A3.443,3.443,0,0,1,483.719,358.768Zm0-13.642a2.947,2.947,0,0,0-1.45.343L472.68,351a.721.721,0,0,0,0,1.387l9.589,5.535a3.34,3.34,0,0,0,2.9,0l9.591-5.535a.721.721,0,0,0,0-1.387l-9.591-5.535A2.95,2.95,0,0,0,483.719,345.126Z"/>
          </g>
          <g id="Grupo_162439" data-name="Grupo 162439">
            <path id="Trazado_228157" data-name="Trazado 228157" d="M307.518,409.509a3.446,3.446,0,0,1-1.7-.41l-9.59-5.536a1.206,1.206,0,0,1,0-2.251l9.59-5.535a3.846,3.846,0,0,1,3.4,0l9.592,5.537a1.205,1.205,0,0,1,0,2.251l-9.592,5.536A3.443,3.443,0,0,1,307.518,409.509Zm0-13.642a3,3,0,0,0-1.451.342l-9.59,5.535a.721.721,0,0,0,0,1.387l9.59,5.535a3.377,3.377,0,0,0,2.9,0l9.592-5.535a.721.721,0,0,0,0-1.387l-9.592-5.536A2.946,2.946,0,0,0,307.519,395.867Z"/>
          </g>
          <g id="Grupo_162440" data-name="Grupo 162440">
            <path id="Trazado_228158" data-name="Trazado 228158" d="M285.469,422.238a3.451,3.451,0,0,1-1.7-.409l-9.588-5.536a1.2,1.2,0,0,1,0-2.252l16.924-9.772a3.849,3.849,0,0,1,3.4,0l9.589,5.538a1.206,1.206,0,0,1,0,2.253l-16.927,9.769A3.447,3.447,0,0,1,285.469,422.238Zm7.337-17.878a2.951,2.951,0,0,0-1.451.342l-16.924,9.772a.72.72,0,0,0,0,1.387l9.588,5.535a3.383,3.383,0,0,0,2.9,0l16.927-9.769a.721.721,0,0,0,0-1.387l-9.589-5.538A2.947,2.947,0,0,0,292.806,404.36Z"/>
          </g>
          <g id="Grupo_162441" data-name="Grupo 162441">
            <path id="Trazado_228159" data-name="Trazado 228159" d="M322.191,401.036a3.461,3.461,0,0,1-1.7-.408l-9.589-5.536a1.206,1.206,0,0,1,0-2.252l9.589-5.535a3.839,3.839,0,0,1,3.4,0l9.587,5.536a1.205,1.205,0,0,1,0,2.251l-9.587,5.535A3.455,3.455,0,0,1,322.191,401.036Zm0-13.641a2.958,2.958,0,0,0-1.45.342l-9.589,5.536a.721.721,0,0,0,0,1.387l9.589,5.535a3.353,3.353,0,0,0,2.9,0l9.587-5.534a.72.72,0,0,0,0-1.386l-9.587-5.537A2.962,2.962,0,0,0,322.191,387.395Z"/>
          </g>
          <g id="Grupo_162442" data-name="Grupo 162442">
            <path id="Trazado_228160" data-name="Trazado 228160" d="M336.865,392.564a3.472,3.472,0,0,1-1.7-.408l-9.587-5.537a1.206,1.206,0,0,1,0-2.251l9.588-5.537a3.86,3.86,0,0,1,3.4,0l9.589,5.538a1.2,1.2,0,0,1,0,2.25l-9.588,5.537A3.445,3.445,0,0,1,336.865,392.564Zm0-13.641a3,3,0,0,0-1.452.341l-9.588,5.537a.72.72,0,0,0,0,1.385l9.587,5.537a3.4,3.4,0,0,0,2.9,0l9.589-5.537a.718.718,0,0,0,0-1.384l-9.59-5.538A2.983,2.983,0,0,0,336.865,378.923Z"/>
          </g>
          <g id="Grupo_162443" data-name="Grupo 162443">
            <path id="Trazado_228161" data-name="Trazado 228161" d="M351.538,384.092a3.461,3.461,0,0,1-1.7-.408l-9.59-5.538a1.2,1.2,0,0,1,0-2.25l9.59-5.537a3.861,3.861,0,0,1,3.4,0l9.59,5.537a1.205,1.205,0,0,1,0,2.251l-9.59,5.537A3.46,3.46,0,0,1,351.538,384.092Zm0-13.64a2.955,2.955,0,0,0-1.45.34l-9.59,5.537a.719.719,0,0,0,0,1.384l9.59,5.538a3.348,3.348,0,0,0,2.9,0l9.59-5.536a.719.719,0,0,0,0-1.384l-9.59-5.538A2.953,2.953,0,0,0,351.538,370.452Z"/>
          </g>
          <g id="Grupo_162444" data-name="Grupo 162444">
            <path id="Trazado_228162" data-name="Trazado 228162" d="M366.211,375.62a3.455,3.455,0,0,1-1.7-.408l-9.589-5.535a1.205,1.205,0,0,1,0-2.252l9.589-5.538a3.86,3.86,0,0,1,3.4,0l9.587,5.538a1.2,1.2,0,0,1,0,2.252l-9.586,5.535A3.461,3.461,0,0,1,366.211,375.62Zm0-13.641a2.959,2.959,0,0,0-1.449.341l-9.589,5.538a.72.72,0,0,0,0,1.386l9.589,5.535a3.353,3.353,0,0,0,2.9,0l9.586-5.535a.72.72,0,0,0,0-1.386l-9.586-5.538A2.977,2.977,0,0,0,366.211,361.979Z"/>
          </g>
          <g id="Grupo_162445" data-name="Grupo 162445">
            <path id="Trazado_228163" data-name="Trazado 228163" d="M380.885,367.148a3.448,3.448,0,0,1-1.7-.409L369.6,361.2a1.206,1.206,0,0,1,0-2.252l9.588-5.536a3.839,3.839,0,0,1,3.4,0l9.588,5.536a1.207,1.207,0,0,1,0,2.252l-9.589,5.535A3.455,3.455,0,0,1,380.885,367.148Zm0-13.642a2.941,2.941,0,0,0-1.45.343l-9.588,5.535a.721.721,0,0,0,0,1.387l9.588,5.535a3.339,3.339,0,0,0,2.9,0l9.588-5.535a.721.721,0,0,0,0-1.387l-9.588-5.535A2.951,2.951,0,0,0,380.885,353.506Z"/>
          </g>
          <g id="Grupo_162446" data-name="Grupo 162446">
            <path id="Trazado_228164" data-name="Trazado 228164" d="M395.56,358.676a3.455,3.455,0,0,1-1.7-.409l-9.59-5.536a1.206,1.206,0,0,1,0-2.251l9.59-5.538a3.86,3.86,0,0,1,3.4,0l9.588,5.538a1.2,1.2,0,0,1,0,2.251l-9.588,5.536A3.447,3.447,0,0,1,395.56,358.676Zm0-13.641a2.959,2.959,0,0,0-1.451.34l-9.59,5.538a.721.721,0,0,0,0,1.386l9.59,5.535a3.344,3.344,0,0,0,2.9,0L406.6,352.3a.72.72,0,0,0,0-1.386l-9.588-5.538A2.956,2.956,0,0,0,395.56,345.035Z"/>
          </g>
          <g id="Grupo_162447" data-name="Grupo 162447">
            <path id="Trazado_228165" data-name="Trazado 228165" d="M410.232,350.2a3.458,3.458,0,0,1-1.7-.408l-9.589-5.536a1.206,1.206,0,0,1,0-2.253l9.589-5.536a3.858,3.858,0,0,1,3.4,0l9.588,5.538a1.205,1.205,0,0,1,0,2.252l-9.588,5.535A3.448,3.448,0,0,1,410.232,350.2Zm0-13.641a2.987,2.987,0,0,0-1.449.341l-9.589,5.536a.72.72,0,0,0,0,1.387l9.589,5.536a3.373,3.373,0,0,0,2.9,0l9.588-5.535a.72.72,0,0,0,0-1.386l-9.588-5.538A2.968,2.968,0,0,0,410.232,336.563Z"/>
          </g>
          <g id="Grupo_162448" data-name="Grupo 162448">
            <path id="Trazado_228166" data-name="Trazado 228166" d="M424.906,341.731a3.464,3.464,0,0,1-1.7-.407l-9.588-5.538a1.2,1.2,0,0,1,0-2.25L423.206,328a3.855,3.855,0,0,1,3.4,0l9.59,5.538a1.205,1.205,0,0,1,0,2.252l-9.59,5.535A3.455,3.455,0,0,1,424.906,341.731Zm0-13.64a2.99,2.99,0,0,0-1.449.341l-9.588,5.537a.719.719,0,0,0,0,1.384l9.588,5.538a3.355,3.355,0,0,0,2.9,0l9.59-5.536a.72.72,0,0,0,0-1.386l-9.59-5.538A3,3,0,0,0,424.9,328.091Z"/>
          </g>
          <g id="Grupo_162449" data-name="Grupo 162449">
            <path id="Trazado_228167" data-name="Trazado 228167" d="M439.578,333.259a3.445,3.445,0,0,1-1.7-.408l-9.59-5.536a1.205,1.205,0,0,1,0-2.251l9.59-5.537a3.85,3.85,0,0,1,3.4,0l9.589,5.537a1.2,1.2,0,0,1,0,2.251l-9.586,5.536A3.459,3.459,0,0,1,439.578,333.259Zm0-13.64a2.983,2.983,0,0,0-1.448.341l-9.59,5.537a.72.72,0,0,0,0,1.385l9.59,5.536a3.392,3.392,0,0,0,2.9,0l9.586-5.536a.719.719,0,0,0,0-1.385l-9.589-5.537A2.993,2.993,0,0,0,439.578,319.619Z"/>
          </g>
          <g id="Grupo_162450" data-name="Grupo 162450">
            <path id="Trazado_228168" data-name="Trazado 228168" d="M454.253,324.789a3.463,3.463,0,0,1-1.7-.408l-9.588-5.539a1.205,1.205,0,0,1,0-2.251l9.588-5.535a3.86,3.86,0,0,1,3.4,0l9.588,5.538a1.2,1.2,0,0,1,0,2.25l-9.586,5.537A3.458,3.458,0,0,1,454.253,324.789Zm0-13.641a2.958,2.958,0,0,0-1.45.341l-9.588,5.534a.721.721,0,0,0,0,1.387l9.588,5.538a3.358,3.358,0,0,0,2.9,0l9.586-5.537a.718.718,0,0,0,0-1.384l-9.588-5.538A2.966,2.966,0,0,0,454.252,311.148Z"/>
          </g>
          <g id="Grupo_162451" data-name="Grupo 162451">
            <path id="Trazado_228169" data-name="Trazado 228169" d="M468.924,316.316a3.46,3.46,0,0,1-1.7-.407l-9.59-5.538a1.2,1.2,0,0,1,0-2.25l9.59-5.537a3.859,3.859,0,0,1,3.4,0l9.59,5.539a1.2,1.2,0,0,1,0,2.25l-9.59,5.534A3.452,3.452,0,0,1,468.924,316.316Zm0-13.64a2.951,2.951,0,0,0-1.449.341l-9.59,5.537a.719.719,0,0,0,0,1.384l9.59,5.538a3.37,3.37,0,0,0,2.9,0l9.59-5.536a.718.718,0,0,0,0-1.383l-9.591-5.538A2.956,2.956,0,0,0,468.926,302.676Z"/>
          </g>
          <g id="Grupo_162452" data-name="Grupo 162452">
            <path id="Trazado_228170" data-name="Trazado 228170" d="M483.6,307.844a3.444,3.444,0,0,1-1.7-.409L472.31,301.9a1.205,1.205,0,0,1,0-2.252l9.591-5.535a3.848,3.848,0,0,1,3.4,0l9.588,5.537a1.2,1.2,0,0,1,0,2.25l-9.588,5.536A3.456,3.456,0,0,1,483.6,307.844Zm0-13.641a2.94,2.94,0,0,0-1.449.342l-9.591,5.535a.72.72,0,0,0,0,1.386L482.151,307a3.342,3.342,0,0,0,2.9,0l9.588-5.536a.719.719,0,0,0,0-1.384l-9.588-5.537A2.952,2.952,0,0,0,483.6,294.2Z"/>
          </g>
          <g id="Grupo_162453" data-name="Grupo 162453">
            <path id="Trazado_228171" data-name="Trazado 228171" d="M325.641,415.988a3.453,3.453,0,0,1-1.7-.408l-9.589-5.538a1.2,1.2,0,0,1,0-2.251l9.589-5.536a3.862,3.862,0,0,1,3.4,0l9.589,5.538a1.2,1.2,0,0,1,0,2.25l-9.589,5.537A3.463,3.463,0,0,1,325.641,415.988Zm0-13.64a3,3,0,0,0-1.45.34l-9.589,5.536a.719.719,0,0,0,0,1.385l9.589,5.538a3.391,3.391,0,0,0,2.9,0l9.589-5.537a.719.719,0,0,0,0-1.384l-9.589-5.538A3.009,3.009,0,0,0,325.641,402.348Z"/>
          </g>
          <g id="Grupo_162454" data-name="Grupo 162454">
            <path id="Trazado_228172" data-name="Trazado 228172" d="M300.143,430.71a3.459,3.459,0,0,1-1.7-.41l-9.586-5.535a1.2,1.2,0,0,1,0-2.252l20.414-11.786a3.843,3.843,0,0,1,3.4,0l9.589,5.537a1.205,1.205,0,0,1,0,2.251L301.842,430.3A3.447,3.447,0,0,1,300.143,430.71Zm10.825-19.892a2.94,2.94,0,0,0-1.449.342l-20.414,11.786a.72.72,0,0,0,0,1.387l9.586,5.535a3.346,3.346,0,0,0,2.9,0l20.414-11.786a.72.72,0,0,0,0-1.385l-9.589-5.537A2.945,2.945,0,0,0,310.968,410.818Z"/>
          </g>
          <g id="Grupo_162455" data-name="Grupo 162455">
            <path id="Trazado_228173" data-name="Trazado 228173" d="M340.313,407.516a3.463,3.463,0,0,1-1.7-.407l-9.589-5.538a1.207,1.207,0,0,1,0-2.252l9.589-5.535a3.844,3.844,0,0,1,3.4,0l9.59,5.535a1.206,1.206,0,0,1,0,2.252l-9.59,5.537A3.455,3.455,0,0,1,340.313,407.516Zm0-13.642a2.945,2.945,0,0,0-1.449.343l-9.589,5.535a.721.721,0,0,0,0,1.387l9.589,5.537a3.357,3.357,0,0,0,2.9,0l9.59-5.536a.721.721,0,0,0,0-1.387l-9.59-5.535A2.948,2.948,0,0,0,340.313,393.874Z"/>
          </g>
          <g id="Grupo_162456" data-name="Grupo 162456">
            <path id="Trazado_228174" data-name="Trazado 228174" d="M354.988,399.044a3.455,3.455,0,0,1-1.7-.409L343.7,393.1a1.206,1.206,0,0,1,0-2.252l9.589-5.536a3.843,3.843,0,0,1,3.4,0l9.588,5.536a1.2,1.2,0,0,1,0,2.252l-9.588,5.535A3.445,3.445,0,0,1,354.988,399.044Zm0-13.641a2.993,2.993,0,0,0-1.449.342l-9.589,5.535a.721.721,0,0,0,0,1.387l9.587,5.535a3.364,3.364,0,0,0,2.9,0l9.588-5.535a.72.72,0,0,0,0-1.387l-9.588-5.535A2.993,2.993,0,0,0,354.988,385.4Z"/>
          </g>
          <g id="Grupo_162457" data-name="Grupo 162457">
            <path id="Trazado_228175" data-name="Trazado 228175" d="M369.661,390.573a3.438,3.438,0,0,1-1.7-.41l-9.592-5.536a1.206,1.206,0,0,1,0-2.252l9.592-5.535a3.839,3.839,0,0,1,3.4,0l9.591,5.535a1.206,1.206,0,0,1,0,2.253l-9.591,5.535A3.438,3.438,0,0,1,369.661,390.573Zm0-13.642a3,3,0,0,0-1.448.341l-9.592,5.536a.72.72,0,0,0,0,1.386l9.592,5.536a3.376,3.376,0,0,0,2.9,0L380.7,384.2a.72.72,0,0,0,0-1.386l-9.591-5.537A3,3,0,0,0,369.661,376.931Z"/>
          </g>
          <g id="Grupo_162458" data-name="Grupo 162458">
            <path id="Trazado_228176" data-name="Trazado 228176" d="M384.334,382.1a3.455,3.455,0,0,1-1.7-.408l-9.59-5.537a1.205,1.205,0,0,1,0-2.252l9.59-5.535a3.841,3.841,0,0,1,3.4,0l9.59,5.535a1.207,1.207,0,0,1,0,2.252l-9.592,5.537A3.455,3.455,0,0,1,384.334,382.1Zm0-13.642a2.962,2.962,0,0,0-1.451.342l-9.59,5.535a.721.721,0,0,0,0,1.387l9.59,5.537a3.346,3.346,0,0,0,2.9,0l9.592-5.537a.721.721,0,0,0,0-1.387l-9.59-5.535A2.954,2.954,0,0,0,384.336,368.459Z"/>
          </g>
          <g id="Grupo_162459" data-name="Grupo 162459">
            <path id="Trazado_228177" data-name="Trazado 228177" d="M399.009,373.629a3.439,3.439,0,0,1-1.7-.41l-9.59-5.535a1.2,1.2,0,0,1,0-2.252l9.587-5.537a3.857,3.857,0,0,1,3.4,0l9.586,5.538a1.2,1.2,0,0,1,0,2.251l-9.586,5.535A3.458,3.458,0,0,1,399.009,373.629Zm0-13.642a2.956,2.956,0,0,0-1.451.341l-9.587,5.537a.719.719,0,0,0,0,1.386l9.59,5.536a3.364,3.364,0,0,0,2.9,0l9.586-5.536a.719.719,0,0,0,0-1.385l-9.586-5.538A2.966,2.966,0,0,0,399.008,359.987Z"/>
          </g>
          <g id="Grupo_162460" data-name="Grupo 162460">
            <path id="Trazado_228178" data-name="Trazado 228178" d="M413.683,365.155a3.459,3.459,0,0,1-1.7-.409l-9.586-5.536a1.2,1.2,0,0,1,0-2.252l9.586-5.535a3.864,3.864,0,0,1,3.4,0l9.588,5.535a1.205,1.205,0,0,1,0,2.252l-9.587,5.536A3.453,3.453,0,0,1,413.683,365.155Zm0-13.639a2.974,2.974,0,0,0-1.452.34l-9.586,5.535a.72.72,0,0,0,0,1.387l9.586,5.535a3.345,3.345,0,0,0,2.9,0l9.587-5.535a.72.72,0,0,0,0-1.387l-9.588-5.535A2.957,2.957,0,0,0,413.683,351.516Z"/>
          </g>
          <g id="Grupo_162461" data-name="Grupo 162461">
            <path id="Trazado_228179" data-name="Trazado 228179" d="M428.353,356.684a3.469,3.469,0,0,1-1.7-.407l-9.59-5.538a1.207,1.207,0,0,1,0-2.252l9.589-5.535a3.844,3.844,0,0,1,3.4,0l9.589,5.535a1.205,1.205,0,0,1,0,2.252l-9.589,5.535A3.456,3.456,0,0,1,428.353,356.684Zm0-13.642a2.956,2.956,0,0,0-1.451.343l-9.589,5.535a.721.721,0,0,0,0,1.386l9.589,5.538a3.354,3.354,0,0,0,2.9,0l9.589-5.535a.72.72,0,0,0,0-1.386l-9.589-5.536A2.956,2.956,0,0,0,428.356,343.042Z"/>
          </g>
          <g id="Grupo_162462" data-name="Grupo 162462">
            <path id="Trazado_228180" data-name="Trazado 228180" d="M443.029,348.212a3.447,3.447,0,0,1-1.7-.41l-9.59-5.535a1.2,1.2,0,0,1,0-2.251l9.59-5.536a3.843,3.843,0,0,1,3.4,0l9.591,5.536a1.205,1.205,0,0,1,0,2.251l-9.589,5.535A3.444,3.444,0,0,1,443.029,348.212Zm0-13.641a2.982,2.982,0,0,0-1.449.342l-9.59,5.535a.72.72,0,0,0,0,1.386l9.59,5.536a3.388,3.388,0,0,0,2.9,0l9.589-5.536a.72.72,0,0,0,0-1.386l-9.591-5.535A2.981,2.981,0,0,0,443.029,334.571Z"/>
          </g>
          <g id="Grupo_162463" data-name="Grupo 162463">
            <path id="Trazado_228181" data-name="Trazado 228181" d="M457.7,339.741a3.445,3.445,0,0,1-1.7-.41l-9.588-5.536a1.2,1.2,0,0,1,0-2.252L456,326.008a3.842,3.842,0,0,1,3.4,0l9.589,5.535a1.205,1.205,0,0,1,0,2.252l-9.589,5.536A3.444,3.444,0,0,1,457.7,339.741Zm0-13.642a2.944,2.944,0,0,0-1.45.342l-9.588,5.535a.72.72,0,0,0,0,1.386l9.588,5.536a3.331,3.331,0,0,0,2.9,0l9.589-5.536a.72.72,0,0,0,0-1.386l-9.589-5.535A2.943,2.943,0,0,0,457.7,326.1Z"/>
          </g>
          <g id="Grupo_162464" data-name="Grupo 162464">
            <path id="Trazado_228182" data-name="Trazado 228182" d="M472.376,331.269a3.446,3.446,0,0,1-1.7-.41l-9.589-5.537a1.2,1.2,0,0,1,0-2.251l9.587-5.534a3.843,3.843,0,0,1,3.4,0l9.589,5.535a1.206,1.206,0,0,1,0,2.252l-9.586,5.535A3.45,3.45,0,0,1,472.376,331.269Zm0-13.642a2.983,2.983,0,0,0-1.45.342l-9.587,5.535a.719.719,0,0,0,0,1.385l9.589,5.538a3.4,3.4,0,0,0,2.9,0l9.586-5.536a.721.721,0,0,0,0-1.387l-9.589-5.535A2.987,2.987,0,0,0,472.376,317.627Z"/>
          </g>
          <g id="Grupo_162465" data-name="Grupo 162465">
            <path id="Trazado_228183" data-name="Trazado 228183" d="M487.049,322.8a3.444,3.444,0,0,1-1.7-.41l-9.588-5.535a1.2,1.2,0,0,1,0-2.252l20.81-12.016a3.848,3.848,0,0,1,3.4,0l9.588,5.538a1.2,1.2,0,0,1,0,2.25l-20.814,12.015A3.447,3.447,0,0,1,487.049,322.8Zm11.223-20.123a2.947,2.947,0,0,0-1.45.343l-20.81,12.016a.72.72,0,0,0,0,1.386l9.588,5.536a3.388,3.388,0,0,0,2.9,0l20.814-12.017a.718.718,0,0,0,0-1.383l-9.588-5.538A2.955,2.955,0,0,0,498.272,302.674Z"/>
          </g>
          <g id="Grupo_162466" data-name="Grupo 162466">
            <path id="Trazado_228184" data-name="Trazado 228184" d="M347.8,420.14a3.455,3.455,0,0,1-1.7-.409l-9.589-5.536a1.205,1.205,0,0,1,0-2.251l9.591-5.538a3.858,3.858,0,0,1,3.4,0l9.588,5.538a1.205,1.205,0,0,1,0,2.251l-9.588,5.536A3.454,3.454,0,0,1,347.8,420.14Zm0-13.641a2.959,2.959,0,0,0-1.449.34l-9.591,5.537a.721.721,0,0,0,0,1.387l9.589,5.535a3.349,3.349,0,0,0,2.9,0l9.588-5.535a.721.721,0,0,0,0-1.387l-9.588-5.537A2.966,2.966,0,0,0,347.8,406.5Z"/>
          </g>
          <g id="Grupo_162467" data-name="Grupo 162467">
            <path id="Trazado_228185" data-name="Trazado 228185" d="M314.817,439.183a3.443,3.443,0,0,1-1.7-.411l-9.589-5.535a1.2,1.2,0,0,1,0-2.25l27.868-16.09a3.844,3.844,0,0,1,3.4,0l9.588,5.536a1.206,1.206,0,0,1,0,2.252l-27.864,16.089A3.458,3.458,0,0,1,314.817,439.183Zm18.276-24.2a2.987,2.987,0,0,0-1.449.342l-27.868,16.089a.72.72,0,0,0,0,1.385l9.59,5.536a3.39,3.39,0,0,0,2.9,0l27.864-16.089a.72.72,0,0,0,0-1.386l-9.588-5.536A2.957,2.957,0,0,0,333.093,414.988Z"/>
          </g>
          <g id="Grupo_162468" data-name="Grupo 162468">
            <path id="Trazado_228186" data-name="Trazado 228186" d="M362.469,411.667a3.472,3.472,0,0,1-1.7-.407l-9.588-5.536a1.205,1.205,0,0,1,0-2.252l9.588-5.537a3.848,3.848,0,0,1,3.4,0l9.591,5.536a1.2,1.2,0,0,1,0,2.251l-9.591,5.535A3.457,3.457,0,0,1,362.469,411.667Zm0-13.64a2.951,2.951,0,0,0-1.449.341l-9.588,5.537a.72.72,0,0,0,0,1.386l9.588,5.536a3.373,3.373,0,0,0,2.9,0l9.591-5.536a.719.719,0,0,0,0-1.385l-9.591-5.536A2.936,2.936,0,0,0,362.468,398.027Z"/>
          </g>
          <g id="Grupo_162469" data-name="Grupo 162469">
            <path id="Trazado_228187" data-name="Trazado 228187" d="M377.144,403.2a3.448,3.448,0,0,1-1.7-.41l-9.59-5.536a1.207,1.207,0,0,1,0-2.252l9.59-5.536a3.859,3.859,0,0,1,3.4,0L388.432,395a1.2,1.2,0,0,1,0,2.25l-9.587,5.537A3.458,3.458,0,0,1,377.144,403.2Zm0-13.642a2.958,2.958,0,0,0-1.45.341l-9.59,5.537a.721.721,0,0,0,0,1.386l9.59,5.535a3.336,3.336,0,0,0,2.9,0l9.587-5.537a.719.719,0,0,0,0-1.384L378.6,389.9A2.973,2.973,0,0,0,377.144,389.556Z"/>
          </g>
          <g id="Grupo_162470" data-name="Grupo 162470">
            <path id="Trazado_228188" data-name="Trazado 228188" d="M391.816,394.724a3.468,3.468,0,0,1-1.7-.407l-9.588-5.538a1.206,1.206,0,0,1,0-2.251l9.588-5.536a3.86,3.86,0,0,1,3.4,0l9.588,5.538a1.2,1.2,0,0,1,0,2.25l-9.588,5.537A3.455,3.455,0,0,1,391.816,394.724Zm0-13.641a3,3,0,0,0-1.449.341l-9.588,5.537a.72.72,0,0,0,0,1.385l9.588,5.538a3.362,3.362,0,0,0,2.9,0l9.588-5.537a.719.719,0,0,0,0-1.384l-9.588-5.538A3.009,3.009,0,0,0,391.816,381.083Z"/>
          </g>
          <g id="Grupo_162471" data-name="Grupo 162471">
            <path id="Trazado_228189" data-name="Trazado 228189" d="M406.488,386.252a3.457,3.457,0,0,1-1.7-.408l-9.589-5.537a1.205,1.205,0,0,1,0-2.25l9.589-5.537a3.859,3.859,0,0,1,3.4,0l9.589,5.536a1.206,1.206,0,0,1,0,2.253l-9.589,5.534A3.456,3.456,0,0,1,406.488,386.252Zm0-13.64a2.96,2.96,0,0,0-1.452.341l-9.589,5.536a.72.72,0,0,0,0,1.385l9.589,5.537a3.37,3.37,0,0,0,2.9,0l9.589-5.536a.72.72,0,0,0,0-1.386l-9.589-5.536A2.945,2.945,0,0,0,406.491,372.612Z"/>
          </g>
          <g id="Grupo_162472" data-name="Grupo 162472">
            <path id="Trazado_228190" data-name="Trazado 228190" d="M421.164,377.78a3.461,3.461,0,0,1-1.7-.407l-9.59-5.539a1.2,1.2,0,0,1,0-2.251l9.588-5.535a3.845,3.845,0,0,1,3.4,0l9.588,5.535a1.2,1.2,0,0,1,0,2.252l-9.588,5.537A3.455,3.455,0,0,1,421.164,377.78Zm0-13.641a2.958,2.958,0,0,0-1.45.341l-9.588,5.536a.719.719,0,0,0,0,1.385l9.59,5.538a3.352,3.352,0,0,0,2.9,0L432.2,371.4a.72.72,0,0,0,0-1.386l-9.588-5.536A2.948,2.948,0,0,0,421.164,364.139Z"/>
          </g>
          <g id="Grupo_162473" data-name="Grupo 162473">
            <path id="Trazado_228191" data-name="Trazado 228191" d="M435.838,369.309a3.455,3.455,0,0,1-1.7-.41l-9.586-5.535a1.205,1.205,0,0,1,0-2.253l9.586-5.534a3.843,3.843,0,0,1,3.4,0l9.589,5.535a1.206,1.206,0,0,1,0,2.252l-9.589,5.535A3.448,3.448,0,0,1,435.838,369.309Zm0-13.642a2.959,2.959,0,0,0-1.451.342l-9.586,5.535a.72.72,0,0,0,0,1.387l9.586,5.535a3.339,3.339,0,0,0,2.9,0l9.589-5.535a.72.72,0,0,0,0-1.386l-9.589-5.536A2.955,2.955,0,0,0,435.838,355.667Z"/>
          </g>
          <g id="Grupo_162474" data-name="Grupo 162474">
            <path id="Trazado_228192" data-name="Trazado 228192" d="M450.512,360.836a3.452,3.452,0,0,1-1.7-.409l-9.588-5.535a1.207,1.207,0,0,1,0-2.254l9.588-5.535a3.862,3.862,0,0,1,3.4,0l9.59,5.538a1.205,1.205,0,0,1,0,2.251l-9.588,5.535A3.448,3.448,0,0,1,450.512,360.836Zm0-13.641a3,3,0,0,0-1.451.341l-9.588,5.535a.721.721,0,0,0,0,1.388l9.588,5.535a3.381,3.381,0,0,0,2.9,0l9.588-5.535a.72.72,0,0,0,0-1.385l-9.59-5.538A2.994,2.994,0,0,0,450.512,347.2Z"/>
          </g>
          <g id="Grupo_162475" data-name="Grupo 162475">
            <path id="Trazado_228193" data-name="Trazado 228193" d="M465.185,352.364a3.453,3.453,0,0,1-1.7-.408l-9.59-5.538a1.205,1.205,0,0,1,0-2.25l9.59-5.537a3.859,3.859,0,0,1,3.4,0l9.587,5.537a1.2,1.2,0,0,1,0,2.25l-9.587,5.538A3.468,3.468,0,0,1,465.185,352.364Zm0-13.64a3,3,0,0,0-1.45.34l-9.59,5.537a.719.719,0,0,0,0,1.384l9.59,5.538a3.4,3.4,0,0,0,2.9,0l9.587-5.537a.719.719,0,0,0,0-1.384l-9.587-5.537A3.012,3.012,0,0,0,465.185,338.724Z"/>
          </g>
          <g id="Grupo_162476" data-name="Grupo 162476">
            <path id="Trazado_228194" data-name="Trazado 228194" d="M479.858,343.892a3.462,3.462,0,0,1-1.7-.408l-9.591-5.538a1.2,1.2,0,0,1,0-2.25l9.588-5.537a3.86,3.86,0,0,1,3.4,0l9.588,5.538a1.2,1.2,0,0,1,0,2.251l-9.588,5.537A3.459,3.459,0,0,1,479.858,343.892Zm0-13.641a2.994,2.994,0,0,0-1.45.341l-9.588,5.537a.72.72,0,0,0,0,1.385l9.591,5.537a3.4,3.4,0,0,0,2.9,0l9.588-5.537a.719.719,0,0,0,0-1.385l-9.588-5.538A3,3,0,0,0,479.858,330.251Z"/>
          </g>
          <g id="Grupo_162477" data-name="Grupo 162477">
            <path id="Trazado_228195" data-name="Trazado 228195" d="M494.531,335.42a3.463,3.463,0,0,1-1.7-.408l-9.59-5.537a1.207,1.207,0,0,1,0-2.252l28-16.167a3.837,3.837,0,0,1,3.4,0l9.588,5.535a1.2,1.2,0,0,1,0,2.252l-28,16.168A3.451,3.451,0,0,1,494.531,335.42Zm18.415-24.274a2.962,2.962,0,0,0-1.451.342l-28,16.168a.721.721,0,0,0,0,1.386l9.59,5.537a3.342,3.342,0,0,0,2.9,0l28-16.168a.72.72,0,0,0,0-1.387l-9.588-5.535A2.993,2.993,0,0,0,512.946,311.146Z"/>
          </g>
          <g id="Grupo_162478" data-name="Grupo 162478">
            <path id="Trazado_228196" data-name="Trazado 228196" d="M629.036,357.879c.057-2.051-1.226-3.941-3.614-5.319l-154.2-89.026a16.769,16.769,0,0,0-8.249-1.975,19.554,19.554,0,0,0-3.628.337c2.914-3.153,4.958-7.69,4.958-11.591l0-178.047c0-2.776-1.061-4.905-2.942-5.864l-6.213-3.572c-1.7-.9-3.907-.677-6.156.622l-232.631,134.3c-4.55,2.628-8.251,9.038-8.251,14.288l0,178.046c0,2.7.955,4.729,2.687,5.728l6.252,3.587a4.787,4.787,0,0,0,2.469.664,5,5,0,0,0-1.043,2.958h.151l-.151,0h.247l-.249.017,0,8.961c-.058,2.023,1.262,3.965,3.622,5.327L376.3,506.355a16.756,16.756,0,0,0,8.251,1.978h0a16.76,16.76,0,0,0,8.246-1.976L625.422,372.044c2.334-1.346,3.621-3.189,3.623-5.191ZM215.551,393.7V215.657a17.01,17.01,0,0,1,7.685-13.313L455.868,68.036a6.7,6.7,0,0,1,3.31-1.016c.113,0,.215.026.324.034l1.107.636.106.063c1.346.683,2.089,2.283,2.089,4.505l0,178.047c0,4.528-3.2,10.212-7.074,12.716-.347.16-.686.329-1.006.513L222.1,397.845c-.105.061-.2.128-.3.191a4.338,4.338,0,0,1-3.991.068l-1.289-.739A6.389,6.389,0,0,1,215.551,393.7Zm4.427,9.324h0c.007-1.33.887-2.605,2.474-3.632a10.4,10.4,0,0,0,.973-.5L456.058,264.592c.129-.075.256-.164.385-.245a16.108,16.108,0,0,1,6.535-1.288,15.265,15.265,0,0,1,7.5,1.774l154.2,89.025c1.888,1.091,2.905,2.5,2.864,3.979v1.5a6.414,6.414,0,0,1-2.678,2.642L392.23,496.289a17.1,17.1,0,0,1-15.373,0L222.665,407.263a6.408,6.408,0,0,1-2.687-2.66Zm-10.363-12.945,0-178.046c0-4.692,3.436-10.641,7.5-12.99l232.631-134.3a6.419,6.419,0,0,1,3.119-.967,3.343,3.343,0,0,1,1.563.36l3.844,2.21a8.159,8.159,0,0,0-2.776,1.041L222.861,201.694c-4.444,2.565-8.06,8.829-8.06,13.963V393.7a8.027,8.027,0,0,0,.541,2.983l-3.792-2.176C210.3,393.791,209.617,392.219,209.615,390.083Zm415.057-19.337L392.043,505.059a16.728,16.728,0,0,1-15,0L222.852,416.03c-1.9-1.094-2.915-2.509-2.872-4.007v-6.035a8.175,8.175,0,0,0,2.311,1.924l154.192,89.026a17.834,17.834,0,0,0,16.123,0L625.234,362.625a8.167,8.167,0,0,0,2.3-1.914l.006,6.142C627.543,368.3,626.523,369.678,624.672,370.746Z"/>
            <path id="Trazado_228197" data-name="Trazado 228197" d="M227.954,382.56a3.072,3.072,0,0,0,1.523-.459L449.508,255.068a7.252,7.252,0,0,0,3.273-5.672l0-163.5c0-1.515-.785-2.5-2-2.5a3.067,3.067,0,0,0-1.525.461L229.225,210.894a7.252,7.252,0,0,0-3.277,5.674l0,163.5C225.951,381.581,226.737,382.56,227.954,382.56Zm1.521-171.233L449.5,84.3a2.626,2.626,0,0,1,1.275-.393c.925,0,1.5.764,1.5,2l0,163.5a6.7,6.7,0,0,1-3.023,5.239L229.227,381.668a2.614,2.614,0,0,1-1.273.392c-.927,0-1.5-.764-1.5-1.995l0-163.5A6.7,6.7,0,0,1,229.475,211.327Z"/>
            <path id="Trazado_228198" data-name="Trazado 228198" d="M242.088,402.735l86.189,49.339a4.027,4.027,0,0,0,3.655-.005L547.776,327.447a1.448,1.448,0,0,0-.009-2.682l-86.191-49.336a4.118,4.118,0,0,0-3.654,0L242.078,400.054a1.447,1.447,0,0,0,.01,2.681Zm.49-1.815L458.422,276.3a3.015,3.015,0,0,1,2.657,0l86.19,49.337c.252.145.4.323.4.475s-.149.329-.4.474L331.433,451.2a3.18,3.18,0,0,1-2.661,0l-86.188-49.338c-.252-.144-.4-.322-.4-.474S242.329,401.063,242.578,400.92Z"/>
            <path id="Trazado_228199" data-name="Trazado 228199" d="M536.59,401.874,484.214,371.63a3.856,3.856,0,0,0-3.4,0l-71.985,41.561a1.2,1.2,0,0,0,0,2.251l52.378,30.242a3.75,3.75,0,0,0,3.4,0l71.986-41.562a1.2,1.2,0,0,0,0-2.251Zm-.25,1.818-71.986,41.561a3.4,3.4,0,0,1-2.9,0l-52.378-30.241a.721.721,0,0,1,0-1.387l71.985-41.561a3.255,3.255,0,0,1,2.9,0l52.376,30.244a.719.719,0,0,1,0,1.385Z"/>
          </g>
        </g>
        <path id="Trazado_228200" data-name="Trazado 228200" d="M557.165,100.434l-.125-.073-12.782,7.38a19.473,19.473,0,0,0-17.507.069c-2.4,1.387-3.726,3.246-3.726,5.235s1.324,3.85,3.726,5.237a19.46,19.46,0,0,0,17.638,0c2.4-1.387,3.725-3.246,3.725-5.236,0-1.885-1.2-3.649-3.369-5.009l12.295-7.1,52.231,30.156.25-.433Zm-9.551,12.612c0,1.8-1.234,3.509-3.475,4.8a18.967,18.967,0,0,1-17.138,0c-2.241-1.294-3.476-3-3.476-4.8s1.235-3.508,3.476-4.8a18.971,18.971,0,0,1,17.138,0C546.38,109.537,547.614,111.243,547.614,113.046Z" transform="translate(350.32 4611.596)"/>
        <path id="Trazado_228201" data-name="Trazado 228201" d="M245.031,138.976l-.125.071v18.135l-14.662,8.137a19.471,19.471,0,0,0-17.51.067c-2.4,1.387-3.725,3.247-3.725,5.236s1.323,3.849,3.725,5.236a19.463,19.463,0,0,0,17.639,0c2.4-1.387,3.726-3.246,3.726-5.234,0-1.884-1.2-3.646-3.363-5.006l14.67-8.142v-18.14l29.808-17.209-.25-.433ZM233.6,170.624c0,1.8-1.235,3.507-3.476,4.8a18.969,18.969,0,0,1-17.139,0c-2.241-1.294-3.475-3-3.475-4.8s1.234-3.509,3.475-4.8a18.973,18.973,0,0,1,17.139,0C232.364,167.114,233.6,168.82,233.6,170.624Z" transform="translate(350.32 4611.596)"/>
        <path id="Trazado_228202" data-name="Trazado 228202" d="M406.456,62.835a19.467,19.467,0,0,0-17.639,0c-2.4,1.388-3.725,3.247-3.725,5.236,0,1.886,1.2,3.65,3.371,5.01l-51.676,30.152L317.566,92.168V54.25l-92.457,53.379.25.433,91.707-52.945v37.34l19.6,11.281.126.072,52.16-30.435a19.473,19.473,0,0,0,17.507-.069c2.4-1.387,3.726-3.245,3.726-5.235S408.858,64.222,406.456,62.835Zm-.25,10.039a18.978,18.978,0,0,1-17.139,0c-2.241-1.295-3.475-3-3.475-4.8s1.234-3.508,3.475-4.8a18.973,18.973,0,0,1,17.139,0c2.241,1.294,3.476,3,3.476,4.8S408.447,71.58,406.206,72.874Z" transform="translate(350.32 4611.596)"/>
        <path id="Trazado_228203" data-name="Trazado 228203" d="M400.907,66.182a7.234,7.234,0,0,0-6.541,0c-1.806,1.043-1.806,2.734,0,3.776a7.228,7.228,0,0,0,6.541,0C402.714,68.916,402.713,67.225,400.907,66.182Z" transform="translate(350.32 4611.596)"/>
        <path id="Trazado_228204" data-name="Trazado 228204" d="M538.84,111.157a7.232,7.232,0,0,0-6.54,0c-1.807,1.044-1.807,2.734,0,3.777a7.226,7.226,0,0,0,6.54,0C540.646,113.891,540.645,112.2,538.84,111.157Z" transform="translate(350.32 4611.596)"/>
        <path id="Trazado_228205" data-name="Trazado 228205" d="M224.824,168.734a7.228,7.228,0,0,0-6.541,0c-1.806,1.043-1.806,2.734,0,3.776a7.228,7.228,0,0,0,6.541,0C226.631,171.468,226.63,169.777,224.824,168.734Z" transform="translate(350.32 4611.596)"/>
        <path id="Trazado_228206" data-name="Trazado 228206" d="M605.221,306.617a19.462,19.462,0,0,0-17.639,0c-.172.1-.326.206-.486.31l-91.312-52.718V203.784h-.5V254.5l91.349,52.737a5.828,5.828,0,0,0-2.777,4.617c0,1.989,1.324,3.848,3.726,5.235a19.463,19.463,0,0,0,17.639,0c2.4-1.386,3.725-3.245,3.725-5.234S607.623,308,605.221,306.617Zm-.25,10.039a18.978,18.978,0,0,1-17.139,0c-2.241-1.3-3.476-3-3.476-4.8s1.235-3.509,3.476-4.8a18.978,18.978,0,0,1,17.139,0c2.241,1.295,3.475,3,3.475,4.8S607.212,315.362,604.971,316.656Z" transform="translate(350.32 4611.596)"/>
        <path id="Trazado_228208" data-name="Trazado 228208" d="M183.561,283.927V248.393l-14.321-8.139V201.973h-.5v38.572l14.321,8.139v34.971a8.088,8.088,0,0,0-3.755-1.067c-3.166,0-5.213,2.612-5.213,6.653,0,5.79,4.079,12.855,9.093,15.75a8.344,8.344,0,0,0,4.131,1.258c3.166,0,5.212-2.611,5.212-6.652C192.529,293.855,188.517,286.866,183.561,283.927Zm3.756,21.822a7.853,7.853,0,0,1-3.881-1.191c-4.876-2.815-8.843-9.686-8.843-15.317,0-3.795,1.806-6.153,4.713-6.153a7.848,7.848,0,0,1,3.88,1.192c4.876,2.815,8.843,9.686,8.843,15.317C192.029,303.392,190.224,305.749,187.317,305.749Z" transform="translate(350.32 4611.596)"/>
        <path id="Trazado_228209" data-name="Trazado 228209" d="M183.311,290.008c-2.109-1.218-3.82-.23-3.82,2.206a8.445,8.445,0,0,0,3.82,6.616c2.11,1.218,3.821.231,3.821-2.206A8.445,8.445,0,0,0,183.311,290.008Z" transform="translate(350.32 4611.596)"/>
        <g id="Grupo_162481" data-name="Grupo 162481" transform="translate(350.32 4611.596)" opacity="0.8" style="mix-blend-mode: multiply;isolation: isolate">
          <path id="Trazado_228210" data-name="Trazado 228210" d="M494.3,139.124a14.99,14.99,0,0,1-6.757,11.7L368.982,219.339c-3.715,2.145-6.755.39-6.755-3.9V193.856a14.993,14.993,0,0,1,6.755-11.7l118.557-68.511c3.716-2.145,6.757-.391,6.757,3.9Z" fill="#9ac0db"/>
        </g>
        <path id="Trazado_228211" data-name="Trazado 228211" d="M195.545,101.264,216.81,88.987a3.6,3.6,0,0,1,3.442-.4l5.392,3.088h0c-.033-.016-.069-.027-.1-.043,1.021.476,1.67,1.636,1.669,3.342v24.553a11.164,11.164,0,0,1-5.033,8.717l-21.264,12.277a3.457,3.457,0,0,1-3.648.279c.022.015.042.034.065.048h0l-5.42-3.107a3.582,3.582,0,0,1-1.4-3.2V109.981A11.16,11.16,0,0,1,195.545,101.264Z" transform="translate(350.32 4611.596)" fill="#fff"/>
        <path id="Trazado_228212" data-name="Trazado 228212" d="M505.913,121.391l-4.133-2.4c-1.2-.59-2.808-.451-4.566.564L378.658,188.068a14.994,14.994,0,0,0-6.757,11.7v21.582c0,2.049.7,3.516,1.826,4.258L377.819,228c1.224.712,2.911.619,4.771-.455l118.555-68.511a14.99,14.99,0,0,0,6.757-11.7V125.749C507.9,123.6,507.141,122.1,505.913,121.391Z" transform="translate(350.32 4611.596)" fill="#fff"/>
        <g id="Grupo_162482" data-name="Grupo 162482" transform="translate(350.32 4611.596)" opacity="0.8" style="mix-blend-mode: multiply;isolation: isolate">
          <path id="Trazado_228213" data-name="Trazado 228213" d="M494.3,201.512a14.989,14.989,0,0,1-6.758,11.7L368.982,281.727c-3.715,2.146-6.755.391-6.755-3.9V256.244a14.991,14.991,0,0,1,6.755-11.7l118.556-68.512c3.717-2.146,6.758-.39,6.758,3.9Z" fill="#9ac0db"/>
        </g>
        <path id="Trazado_228214" data-name="Trazado 228214" d="M505.913,183.779l-4.133-2.4a4.855,4.855,0,0,0-4.566.564L378.658,250.457a14.991,14.991,0,0,0-6.758,11.7v21.581c0,2.049.7,3.517,1.826,4.257l4.093,2.391c1.223.711,2.911.618,4.77-.456l118.556-68.511a14.992,14.992,0,0,0,6.757-11.7V188.137C507.9,185.991,507.14,184.483,505.913,183.779Z" transform="translate(350.32 4611.596)" fill="#fff"/>
        <path id="Trazado_228215" data-name="Trazado 228215" d="M408.038,238.055l-25.449,14.693a14.989,14.989,0,0,0-6.756,11.7v21.582c0,4.291,3.04,6.047,6.756,3.9l25.449-14.692Z" transform="translate(350.32 4611.596)" fill="#ba68c8"/>
        <path id="Trazado_228216" data-name="Trazado 228216" d="M375.83,286.033V264.451a14.992,14.992,0,0,1,6.756-11.7l25.449-14.693-3.932-2.29-25.448,14.692a14.991,14.991,0,0,0-6.758,11.7v21.581c0,2.049.7,3.517,1.827,4.257l4.013,2.344C376.56,289.617,375.83,288.131,375.83,286.033Z" transform="translate(350.32 4611.596)" fill="#9045a0"/>
        <path id="Trazado_228217" data-name="Trazado 228217" d="M195.882,137.611V113.058a11.167,11.167,0,0,1,5.033-8.717l21.265-12.277a3.59,3.59,0,0,1,3.464-.393h0l-5.392-3.088a3.6,3.6,0,0,0-3.442.4l-21.265,12.277a11.16,11.16,0,0,0-5.033,8.717v24.554a3.582,3.582,0,0,0,1.4,3.2l5.42,3.107h0A3.548,3.548,0,0,1,195.882,137.611Z" transform="translate(350.32 4611.596)" fill="#9ac0db"/>
        <path id="Trazado_228218" data-name="Trazado 228218" d="M227.711,94.97a3.969,3.969,0,0,0-1.822-3.727l0-.007-5.414-3.1a4.1,4.1,0,0,0-3.918.418l-21.265,12.277a11.692,11.692,0,0,0-5.283,9.15v24.554a4.061,4.061,0,0,0,1.652,3.637l5.419,3.1,0,0a3.09,3.09,0,0,0,1.6.423,4.992,4.992,0,0,0,2.477-.745l21.264-12.277a11.692,11.692,0,0,0,5.283-9.15Zm-31.454,42.641V113.058a10.729,10.729,0,0,1,4.846-8.392l21.264-12.277a4.217,4.217,0,0,1,2.049-.632,2.445,2.445,0,0,1,.451.045l.476.273,0,.009a2.975,2.975,0,0,1,1.373,2.886v24.553a10.749,10.749,0,0,1-4.783,8.284l-21.264,12.276a3.033,3.033,0,0,1-3.128.293l0,.007-.494-.282A3.679,3.679,0,0,1,196.257,137.611Zm-5.245-3.076V109.981a10.747,10.747,0,0,1,4.783-8.284L217.06,89.42a3.251,3.251,0,0,1,2.943-.4l3.649,2.092a5.41,5.41,0,0,0-1.661.632l-21.264,12.277a11.56,11.56,0,0,0-5.221,9.042v24.553a5.461,5.461,0,0,0,.279,1.771l-3.607-2.067A3.12,3.12,0,0,1,191.012,134.535Z" transform="translate(350.32 4611.596)"/>
        <path id="Trazado_228219" data-name="Trazado 228219" d="M153.213,180.746l21.265-12.277a3.605,3.605,0,0,1,3.442-.406l5.392,3.089h0c-.032-.016-.068-.028-.1-.043,1.022.476,1.67,1.636,1.669,3.342v24.553a11.162,11.162,0,0,1-5.033,8.717L158.583,220a3.457,3.457,0,0,1-3.648.279c.022.015.042.034.065.048h0l-5.419-3.107a3.58,3.58,0,0,1-1.4-3.2V189.463A11.163,11.163,0,0,1,153.213,180.746Z" transform="translate(350.32 4611.596)" fill="#5c22c3"/>
        <path id="Trazado_228220" data-name="Trazado 228220" d="M153.55,217.093V192.54a11.17,11.17,0,0,1,5.033-8.717l21.265-12.277a3.59,3.59,0,0,1,3.464-.393h0l-5.392-3.089a3.605,3.605,0,0,0-3.442.406l-21.265,12.277a11.163,11.163,0,0,0-5.033,8.717v24.554a3.58,3.58,0,0,0,1.4,3.2L155,220.327h0A3.551,3.551,0,0,1,153.55,217.093Z" transform="translate(350.32 4611.596)" fill="#5c22c3"/>
        <path id="Trazado_228221" data-name="Trazado 228221" d="M185.379,174.452a3.969,3.969,0,0,0-1.822-3.727l0-.007-5.413-3.1a4.1,4.1,0,0,0-3.919.418l-21.265,12.277a11.692,11.692,0,0,0-5.283,9.15v24.554a4.061,4.061,0,0,0,1.652,3.637l5.419,3.1,0-.005a3.091,3.091,0,0,0,1.6.423,4.991,4.991,0,0,0,2.476-.745L180.1,208.155a11.692,11.692,0,0,0,5.283-9.15Zm-31.454,42.641V192.54a10.732,10.732,0,0,1,4.846-8.393l21.265-12.276a4.211,4.211,0,0,1,2.048-.632,2.457,2.457,0,0,1,.452.045l.475.273,0,.009a2.975,2.975,0,0,1,1.373,2.886v24.553a10.748,10.748,0,0,1-4.783,8.284l-21.264,12.276a3.031,3.031,0,0,1-3.127.293l0,.007-.495-.282A3.679,3.679,0,0,1,153.925,217.093Zm-5.245-3.076V189.463a10.749,10.749,0,0,1,4.783-8.284L174.728,168.9a3.251,3.251,0,0,1,2.943-.4l3.65,2.092a5.4,5.4,0,0,0-1.661.632L158.4,183.5a11.56,11.56,0,0,0-5.221,9.042v24.553a5.46,5.46,0,0,0,.28,1.771l-3.608-2.067A3.122,3.122,0,0,1,148.68,214.017Z" transform="translate(350.32 4611.596)" fill="#240666"/>
        <path id="Trazado_228222" data-name="Trazado 228222" d="M616.406,113.025l-21.264-12.277a3.6,3.6,0,0,0-3.443-.4l-5.391,3.088h0c.032-.016.068-.028.1-.043-1.021.476-1.67,1.636-1.669,3.341v24.554A11.166,11.166,0,0,0,589.772,140l21.264,12.277a3.463,3.463,0,0,0,3.649.28c-.023.014-.042.033-.066.046h0l5.42-3.106a3.584,3.584,0,0,0,1.4-3.2V121.742A11.162,11.162,0,0,0,616.406,113.025Z" transform="translate(350.32 4611.596)" fill="#fff"/>
        <path id="Trazado_228223" data-name="Trazado 228223" d="M616.069,149.372V124.819a11.167,11.167,0,0,0-5.033-8.717l-21.265-12.277a3.586,3.586,0,0,0-3.463-.393h0l5.391-3.088a3.6,3.6,0,0,1,3.443.4l21.264,12.277a11.162,11.162,0,0,1,5.033,8.717v24.553a3.584,3.584,0,0,1-1.4,3.2l-5.42,3.106h0A3.544,3.544,0,0,0,616.069,149.372Z" transform="translate(350.32 4611.596)" fill="#9ac0db"/>
        <path id="Trazado_228224" data-name="Trazado 228224" d="M616.656,112.592l-21.264-12.277a4.057,4.057,0,0,0-3.942-.406L586.06,103l0,0a3.965,3.965,0,0,0-1.823,3.727v24.554a11.692,11.692,0,0,0,5.283,9.15l21.264,12.277a4.989,4.989,0,0,0,2.478.746,3.087,3.087,0,0,0,1.6-.423l0,.005,5.438-3.117a4.062,4.062,0,0,0,1.633-3.627V121.742A11.692,11.692,0,0,0,616.656,112.592Zm-29.12-9.074a4.215,4.215,0,0,1,2.049.631l21.265,12.277a10.733,10.733,0,0,1,4.845,8.393v24.553a3.825,3.825,0,0,1-.695,2.411c-.02.024-.045.041-.065.065l-.518.3,0-.007a3.034,3.034,0,0,1-3.126-.293l-21.264-12.277a10.749,10.749,0,0,1-4.783-8.284V106.73a2.967,2.967,0,0,1,1.379-2.887l-.006-.011.468-.269A2.489,2.489,0,0,1,587.536,103.518Zm33.4,42.777a3.122,3.122,0,0,1-1.149,2.77l-3.624,2.077a5.473,5.473,0,0,0,.278-1.77V124.819a11.56,11.56,0,0,0-5.22-9.042L589.96,103.5a5.38,5.38,0,0,0-1.663-.633l3.629-2.078a3.18,3.18,0,0,1,2.966.392l21.264,12.277a10.748,10.748,0,0,1,4.783,8.284Z" transform="translate(350.32 4611.596)"/>
        <path id="Trazado_228225" data-name="Trazado 228225" d="M557.165,163.033l-.125-.072-12.782,7.38a19.477,19.477,0,0,0-17.507.068c-2.4,1.387-3.726,3.247-3.726,5.236s1.324,3.849,3.726,5.236a19.46,19.46,0,0,0,17.638,0c2.4-1.386,3.725-3.246,3.725-5.235,0-1.885-1.2-3.649-3.369-5.009l12.295-7.1,52.231,30.155.25-.432Zm-9.551,12.613c0,1.8-1.234,3.509-3.475,4.8a18.976,18.976,0,0,1-17.138,0c-2.241-1.295-3.476-3-3.476-4.8s1.235-3.509,3.476-4.8a18.976,18.976,0,0,1,17.138,0C546.38,172.137,547.614,173.843,547.614,175.646Z" transform="translate(350.32 4637.411)"/>
        <path id="Trazado_228226" data-name="Trazado 228226" d="M538.84,173.757a7.226,7.226,0,0,0-6.54,0c-1.807,1.043-1.807,2.734,0,3.777a7.226,7.226,0,0,0,6.54,0C540.646,176.491,540.645,174.8,538.84,173.757Z" transform="translate(350.32 4637.411)"/>
        <path id="Trazado_228227" data-name="Trazado 228227" d="M616.406,175.625l-21.264-12.277a3.6,3.6,0,0,0-3.443-.406l-5.391,3.088v0c.032-.017.068-.028.1-.043-1.021.475-1.67,1.636-1.669,3.341v24.553a11.166,11.166,0,0,0,5.033,8.718l21.264,12.277a3.461,3.461,0,0,0,3.649.279c-.023.014-.042.034-.066.047h0l5.42-3.106a3.585,3.585,0,0,0,1.4-3.2V184.342A11.162,11.162,0,0,0,616.406,175.625Z" transform="translate(350.32 4637.411)" fill="#fff"/>
        <path id="Trazado_228228" data-name="Trazado 228228" d="M616.069,211.972V187.419a11.169,11.169,0,0,0-5.033-8.718l-21.265-12.277a3.585,3.585,0,0,0-3.463-.392v0l5.391-3.088a3.6,3.6,0,0,1,3.443.406l21.264,12.277a11.162,11.162,0,0,1,5.033,8.717V208.9a3.585,3.585,0,0,1-1.4,3.2l-5.42,3.106h0A3.544,3.544,0,0,0,616.069,211.972Z" transform="translate(350.32 4637.411)" fill="#9ac0db"/>
        <path id="Trazado_228229" data-name="Trazado 228229" d="M616.656,175.192l-21.264-12.277a4.055,4.055,0,0,0-3.942-.406l-5.39,3.089,0,0a3.965,3.965,0,0,0-1.823,3.727v24.553a11.692,11.692,0,0,0,5.283,9.151l21.264,12.277a5,5,0,0,0,2.478.745,3.087,3.087,0,0,0,1.6-.422l0,.005,5.438-3.117a4.064,4.064,0,0,0,1.633-3.627V184.342A11.692,11.692,0,0,0,616.656,175.192Zm-29.12-9.075a4.217,4.217,0,0,1,2.049.632l21.265,12.277a10.731,10.731,0,0,1,4.845,8.393v24.553a3.82,3.82,0,0,1-.695,2.41c-.02.025-.045.042-.065.065l-.518.3,0-.006a3.034,3.034,0,0,1-3.126-.294l-21.264-12.276a10.751,10.751,0,0,1-4.783-8.285V169.33a2.966,2.966,0,0,1,1.379-2.887l-.006-.012.468-.268A2.489,2.489,0,0,1,587.536,166.117Zm33.4,42.778a3.123,3.123,0,0,1-1.149,2.77l-3.624,2.076a5.463,5.463,0,0,0,.278-1.769V187.419a11.559,11.559,0,0,0-5.22-9.042L589.96,166.1a5.38,5.38,0,0,0-1.663-.633l3.629-2.079a3.178,3.178,0,0,1,2.966.393l21.264,12.277a10.747,10.747,0,0,1,4.783,8.284Z" transform="translate(350.32 4637.411)"/>
        <path id="Trazado_228230" data-name="Trazado 228230" d="M268.43,107.444l21.263-12.277a3.606,3.606,0,0,1,3.444-.4l5.391,3.088v0c-.033-.018-.068-.028-.1-.044,1.021.476,1.67,1.636,1.669,3.342V125.7a11.165,11.165,0,0,1-5.034,8.717L273.8,146.7a3.459,3.459,0,0,1-3.648.28c.023.014.042.033.066.047h0l-5.421-3.107a3.583,3.583,0,0,1-1.4-3.2V116.161A11.162,11.162,0,0,1,268.43,107.444Z" transform="translate(350.32 4611.596)" fill="#fff"/>
        <path id="Trazado_228231" data-name="Trazado 228231" d="M268.767,143.791V119.238a11.169,11.169,0,0,1,5.032-8.717l21.265-12.277a3.587,3.587,0,0,1,3.464-.392v0l-5.391-3.088a3.606,3.606,0,0,0-3.444.4L268.43,107.444a11.162,11.162,0,0,0-5.034,8.717v24.554a3.583,3.583,0,0,0,1.4,3.2l5.421,3.107h0A3.545,3.545,0,0,1,268.767,143.791Z" transform="translate(350.32 4611.596)" fill="#9ac0db"/>
        <path id="Trazado_228232" data-name="Trazado 228232" d="M300.6,101.15a3.972,3.972,0,0,0-1.823-3.727l0-.007-5.413-3.1a4.11,4.11,0,0,0-3.92.418L268.18,107.011a11.693,11.693,0,0,0-5.284,9.15v24.554a4.068,4.068,0,0,0,1.651,3.638l5.4,3.092.023.013,0,0a3.09,3.09,0,0,0,1.6.422,5,5,0,0,0,2.477-.745l21.264-12.277a11.693,11.693,0,0,0,5.284-9.15Zm-31.454,42.641V119.238a10.727,10.727,0,0,1,4.844-8.392l21.266-12.277a4.214,4.214,0,0,1,2.049-.632,2.554,2.554,0,0,1,.451.045l.476.273,0,.01a2.973,2.973,0,0,1,1.373,2.885V125.7a10.749,10.749,0,0,1-4.784,8.284l-21.264,12.277a3.033,3.033,0,0,1-3.127.292l0,.008-.493-.282A3.675,3.675,0,0,1,269.142,143.791Zm-5.246-3.076V116.161a10.749,10.749,0,0,1,4.784-8.284L289.943,95.6a3.253,3.253,0,0,1,2.945-.406l3.649,2.092a5.4,5.4,0,0,0-1.661.632L273.61,110.2a11.561,11.561,0,0,0-5.219,9.042v24.553a5.463,5.463,0,0,0,.279,1.772l-3.609-2.067A3.125,3.125,0,0,1,263.9,140.715Z" transform="translate(350.32 4611.596)"/>
        <path id="Trazado_228233" data-name="Trazado 228233" d="M339.857,209.776l-16.941-9.51c-20.312-8.564-51.055,10.177-70.346,43.59-19.706,34.133-20.178,70.963-1.413,83.545l8.452,4.879-4.54,7.645-2.091-1.243L179.094,456.488a11.742,11.742,0,1,0,20.745,10.979L267.1,347.084l-1.895-1.126,4.739-7.992,0,0c20.314,8.125,50.76-10.582,69.916-43.761C360.048,259.232,360.047,221.433,339.857,209.776Z" transform="translate(350.32 4611.596)" fill="#fff"/>
        <path id="Trazado_228234" data-name="Trazado 228234" d="M339.857,209.776c-20.191-11.657-52.925,7.242-73.116,42.213s-20.19,72.769,0,84.427,52.926-7.243,73.116-42.213S360.047,221.433,339.857,209.776Zm-6.821,80.488c-16.423,28.444-43.049,43.817-59.472,34.335s-16.423-40.227,0-68.672,43.048-43.816,59.47-34.334S349.458,261.82,333.036,290.264Z" transform="translate(350.32 4611.596)" fill="#9ac0db"/>
        <g id="Grupo_162483" data-name="Grupo 162483" transform="translate(350.32 4611.596)">
          <path id="Trazado_228235" data-name="Trazado 228235" d="M340.225,209.122l-17.018-9.547a28.04,28.04,0,0,0-10.957-2.125c-20.189,0-44.434,18.5-60.329,46.031-19.916,34.5-20.436,71.633-1.139,84.57l7.795,4.5-3.769,6.347-2.076-1.234L178.443,456.115a12.491,12.491,0,1,0,22.05,11.718L267.756,347.45l.356-.637-1.878-1.117,4.035-6.8a28.393,28.393,0,0,0,9.913,1.71h0c20.186,0,44.428-18.5,60.323-46.026C360.871,259.3,360.748,220.972,340.225,209.122ZM260.16,333.076l6.014,3.474c.18.112.361.223.547.33a23.924,23.924,0,0,0,2.309,1.16l-4.132,6.968-8.762-5.212Zm6.77,3.015c-9.645-5.569-14.956-17.34-14.956-33.146,0-15.881,5.359-33.911,15.092-50.769,15.7-27.2,39.554-45.468,59.354-45.468a27.306,27.306,0,0,1,9.14,1.516l3.922,2.2c19.8,11.432,19.677,48.846-.273,83.4-15.637,27.083-39.357,45.278-59.027,45.276a26.743,26.743,0,0,1-9.825-1.782l-.141-.056-.138.349A24.413,24.413,0,0,1,266.93,336.091Zm-15.355-9.313c-18.6-12.471-17.879-48.731,1.645-82.547,15.636-27.084,39.359-45.281,59.03-45.281a26.574,26.574,0,0,1,10.3,1.969l10.2,5.724a29.17,29.17,0,0,0-6.325-.685c-20.059,0-44.172,18.423-60,45.843-9.8,16.97-15.192,35.133-15.192,51.144,0,13.235,3.693,23.7,10.506,30.171l-1.3-.75.211-.356Zm-52.41,140.36a10.992,10.992,0,1,1-19.436-10.252l73.5-117.185,2.106,1.253.335-.565,8.85,5.264-.336.567,1.911,1.136Z"/>
          <path id="Trazado_228236" data-name="Trazado 228236" d="M270.276,322.837c.064.02.129.034.193.054a20.826,20.826,0,0,0,2.908,2.032,21.924,21.924,0,0,0,11.118,2.852c16.339,0,35.977-15,48.866-37.324,7.975-13.813,12.366-28.6,12.366-41.634,0-13.109-4.441-22.893-12.505-27.549a20.587,20.587,0,0,0-3.584-1.626c-.056-.049-.107-.1-.163-.153l-.061.071a23.023,23.023,0,0,0-7.309-1.143c-16.339,0-35.977,15-48.866,37.323-7.975,13.813-12.367,28.6-12.367,41.634,0,11.334,3.324,20.173,9.435,25.371Zm74.7-74.02c0,12.906-4.356,27.558-12.266,41.259-12.759,22.1-32.136,36.949-48.216,36.949a21.187,21.187,0,0,1-10.743-2.751c-.479-.276-.943-.573-1.4-.887a23.888,23.888,0,0,0,5.107.546c16.063,0,35.907-14.732,48.984-37.382,14.673-25.414,16.456-52.978,4.591-65.545a19.866,19.866,0,0,1,1.809.911C340.669,226.434,344.977,235.987,344.977,248.817Zm-83.355,48.557c0-12.9,4.356-27.558,12.268-41.259,12.758-22.1,32.134-36.948,48.215-36.948a22.364,22.364,0,0,1,6.773,1.012l-.058.066c13.209,11.439,11.817,39.73-3.238,65.806-14.885,25.777-38.534,41.179-55,35.835l-.025.078C264.772,316.883,261.622,308.33,261.622,297.374Z"/>
        </g>
        <path id="Trazado_228237" data-name="Trazado 228237" d="M314.36,196.235c-20.311-8.563-51.054,10.178-70.345,43.591-19.708,34.133-20.179,70.963-1.413,83.546l8.451,4.878-4.539,7.645-2.091-1.243-28.888,46.06v17.672l37.443-59.7,2.091,1.243,4.54-7.645-8.452-4.879c-18.765-12.582-18.293-49.412,1.413-83.545,18.24-31.593,46.715-50.054,66.933-44.733Z" transform="translate(350.32 4611.596)" fill="#9ac0db"/>
        <path id="Trazado_228238" data-name="Trazado 228238" d="M507.84,187.173c-.011-.087-.024-.17-.037-.254a5.973,5.973,0,0,0-.146-.681c-.016-.061-.029-.125-.047-.184a4.919,4.919,0,0,0-.281-.706c-.035-.073-.076-.138-.114-.207a4.056,4.056,0,0,0-.268-.416c-.053-.071-.1-.142-.159-.208a3.389,3.389,0,0,0-.432-.432c-.07-.058-.148-.1-.222-.154s-.144-.108-.221-.152l-4.133-2.4a3.541,3.541,0,0,0-1.573-.349,6.069,6.069,0,0,0-2.993.913L378.658,250.457a14.991,14.991,0,0,0-6.758,11.7v21.581c0,2.049.7,3.517,1.826,4.257l4.093,2.391c.039.022.082.039.122.06.073.038.145.076.221.109a3.377,3.377,0,0,0,.55.183c.067.016.136.027.2.039a3.9,3.9,0,0,0,.6.061c.024,0,.046.008.071.008a5,5,0,0,0,1.441-.227c.069-.02.14-.054.209-.077.185-.063.368-.124.557-.207a8.289,8.289,0,0,0,.795-.4l118.556-68.511a14.992,14.992,0,0,0,6.757-11.7V188.137A7.966,7.966,0,0,0,507.84,187.173ZM506.4,209.719a13.5,13.5,0,0,1-6.008,10.4L381.838,288.635a4.645,4.645,0,0,1-2.241.712,2,2,0,0,1-1.022-.253l-1.3-.759a5.421,5.421,0,0,1-.442-2.3V264.451a14.067,14.067,0,0,1,6.256-10.838L501.645,185.1a5.4,5.4,0,0,1,2.249-.76l1.272.738c.786.451,1.236,1.565,1.236,3.057Zm-133,74.023V262.161a13.5,13.5,0,0,1,6.008-10.405l118.556-68.512a4.651,4.651,0,0,1,2.243-.712,2.085,2.085,0,0,1,.873.177l1.516.879a7.531,7.531,0,0,0-1.451.648L382.589,252.748a14.989,14.989,0,0,0-6.756,11.7v21.582a7.319,7.319,0,0,0,.173,1.561l-1.486-.867A3.542,3.542,0,0,1,373.4,283.742Z" transform="translate(350.32 4611.596)"/>
        <g id="Grupo_162484" data-name="Grupo 162484" transform="translate(350.32 4611.596)" opacity="0.8" style="mix-blend-mode: multiply;isolation: isolate">
          <path id="Trazado_228239" data-name="Trazado 228239" d="M463.671,99.148a14.994,14.994,0,0,1-6.757,11.7l-118.556,68.51c-3.716,2.146-6.756.39-6.756-3.9V153.879a14.989,14.989,0,0,1,6.756-11.7L456.914,73.664c3.716-2.145,6.757-.39,6.757,3.9Z" fill="#9ac0db"/>
        </g>
        <path id="Trazado_228240" data-name="Trazado 228240" d="M475.288,81.415l-4.133-2.4a4.853,4.853,0,0,0-4.566.565L348.033,148.092a14.992,14.992,0,0,0-6.757,11.7v21.582c0,2.049.7,3.517,1.826,4.258l4.092,2.39c1.224.711,2.911.618,4.771-.456L470.52,119.058a14.99,14.99,0,0,0,6.757-11.7V85.772C477.277,83.626,476.516,82.118,475.288,81.415Z" transform="translate(350.32 4611.596)" fill="#fff"/>
        <path id="Trazado_228241" data-name="Trazado 228241" d="M377.413,135.69l-25.448,14.693a14.99,14.99,0,0,0-6.757,11.7v21.582c0,4.291,3.041,6.047,6.757,3.9l25.448-14.692Z" transform="translate(350.32 4611.596)" fill="#fef536"/>
        <path id="Trazado_228242" data-name="Trazado 228242" d="M345.206,183.668V162.086a14.989,14.989,0,0,1,6.756-11.7L377.41,135.69l-3.931-2.29L348.03,148.092a14.992,14.992,0,0,0-6.757,11.7v21.582c0,2.049.7,3.517,1.827,4.258l4.012,2.343C345.935,187.252,345.206,185.766,345.206,183.668Z" transform="translate(350.32 4611.596)" fill="#fef536"/>
        <path id="Trazado_228243" data-name="Trazado 228243" d="M477.215,84.808c-.011-.086-.024-.17-.037-.254a6.027,6.027,0,0,0-.146-.684c-.016-.059-.028-.122-.047-.18a4.83,4.83,0,0,0-.281-.708c-.035-.071-.075-.136-.113-.2a3.855,3.855,0,0,0-.27-.419c-.052-.07-.1-.142-.157-.207a3.442,3.442,0,0,0-.428-.426c-.074-.061-.155-.11-.233-.164s-.14-.1-.215-.147l-4.133-2.4a3.554,3.554,0,0,0-1.573-.349,6.061,6.061,0,0,0-2.993.914L348.033,148.092a14.992,14.992,0,0,0-6.757,11.7v21.582c0,2.049.7,3.517,1.826,4.258l4.092,2.39c.04.023.083.039.124.061.072.038.143.075.218.107a3.22,3.22,0,0,0,.552.184c.066.017.135.027.2.039a3.788,3.788,0,0,0,.6.062c.024,0,.045.007.07.007a5.515,5.515,0,0,0,2.207-.511,8.067,8.067,0,0,0,.795-.4L470.52,119.058a14.99,14.99,0,0,0,6.757-11.7V85.772A7.98,7.98,0,0,0,477.215,84.808Zm-1.438,22.546a13.5,13.5,0,0,1-6.008,10.405L351.215,186.271a4.663,4.663,0,0,1-2.243.711,2.014,2.014,0,0,1-1.022-.252l-1.3-.759a5.426,5.426,0,0,1-.442-2.3V162.086a14.062,14.062,0,0,1,6.257-10.837L471.02,82.737a5.393,5.393,0,0,1,2.249-.759l1.273.738c.785.45,1.235,1.564,1.235,3.056Zm-133,74.023V159.795a13.5,13.5,0,0,1,6.008-10.4L467.339,80.879a4.662,4.662,0,0,1,2.243-.712,2.085,2.085,0,0,1,.873.177l1.515.879a7.489,7.489,0,0,0-1.45.648L351.965,150.383a14.99,14.99,0,0,0-6.757,11.7v21.582a7.321,7.321,0,0,0,.173,1.562l-1.485-.867A3.544,3.544,0,0,1,342.776,181.377Z" transform="translate(350.32 4611.596)"/>
        <path id="Trazado_228244" data-name="Trazado 228244" d="M408.038,175.667,382.59,190.359a14.994,14.994,0,0,0-6.757,11.7v21.582c0,4.291,3.041,6.046,6.757,3.9l25.448-14.693Z" transform="translate(350.32 4611.596)" fill="#64b5f6"/>
        <path id="Trazado_228245" data-name="Trazado 228245" d="M375.831,223.645V202.063a14.993,14.993,0,0,1,6.756-11.7l25.448-14.692-3.931-2.291-25.449,14.692a14.994,14.994,0,0,0-6.757,11.7v21.582c0,2.049.7,3.516,1.826,4.258l4.013,2.343C376.56,227.229,375.831,225.743,375.831,223.645Z" transform="translate(350.32 4611.596)" fill="#64b5f6"/>
        <path id="Trazado_228246" data-name="Trazado 228246" d="M506.289,120.742l-4.179-2.422a5.605,5.605,0,0,0-5.271.588L378.283,187.419a15.789,15.789,0,0,0-7.132,12.353v21.582c0,2.235.769,3.97,2.2,4.9l4.093,2.391a4.229,4.229,0,0,0,2.155.559,6.775,6.775,0,0,0,3.368-1.014L501.52,159.684a15.783,15.783,0,0,0,7.132-12.353V125.749C508.652,123.394,507.811,121.615,506.289,120.742Zm.613,5.007v21.582a14.062,14.062,0,0,1-6.257,10.838L382.09,226.68a5.168,5.168,0,0,1-2.5.781c-1.725,0-2.755-1.426-2.755-3.816V202.063a14.063,14.063,0,0,1,6.257-10.838l118.555-68.511a5.171,5.171,0,0,1,2.5-.782C505.872,121.932,506.9,123.359,506.9,125.749ZM372.651,221.354V199.772a14.347,14.347,0,0,1,6.382-11.054l118.556-68.511a5.383,5.383,0,0,1,2.617-.813,2.8,2.8,0,0,1,1.2.248l2.286,1.327a6.433,6.433,0,0,0-2.545.879L382.59,190.359a14.994,14.994,0,0,0-6.757,11.7v21.582a6.414,6.414,0,0,0,.508,2.625l-2.2-1.285A4.148,4.148,0,0,1,372.651,221.354Z" transform="translate(350.32 4611.596)"/>
      </g>
      <path id="Trazado_228248" data-name="Trazado 228248" d="M0,0,13.084,13.084,0,26.168" transform="matrix(-0.966, -0.259, 0.259, -0.966, 506.349, 4707.788)" fill="none" stroke="#3a3a3a" stroke-linecap="round" stroke-miterlimit="10" stroke-width="3"/>
      <path id="Trazado_228250" data-name="Trazado 228250" d="M0,0,13.084,13.084,0,26.168" transform="translate(899.989 4575.406)" fill="none" stroke="#3a3a3a" stroke-linecap="round" stroke-miterlimit="10" stroke-width="3"/>
      <path id="Trazado_228251" data-name="Trazado 228251" d="M0,0,13.084,13.084,0,26.168" transform="translate(988.068 4694.573)" fill="none" stroke="#3a3a3a" stroke-linecap="round" stroke-miterlimit="10" stroke-width="3"/>
      <path id="Trazado_228255" data-name="Trazado 228255" d="M0,30.736,13.084,15.368,0,0" transform="translate(1111.497 4922.293) rotate(90)" fill="none" stroke="#3a3a3a" stroke-linecap="round" stroke-miterlimit="10" stroke-width="3"/>
      <path id="Trazado_228253" data-name="Trazado 228253" d="M0,0,13.084,13.084,0,26.168" transform="translate(986.916 4784.573)" fill="none" stroke="#3a3a3a" stroke-linecap="round" stroke-miterlimit="10" stroke-width="3"/>
      <path id="Trazado_228247" data-name="Trazado 228247" d="M0,0,13.084,13.084,0,26.168" transform="translate(406.452 4898.325) rotate(90)" fill="none" stroke="#3a3a3a" stroke-linecap="round" stroke-miterlimit="10" stroke-width="3"/>
      <path id="Trazado_122962" data-name="Trazado 122962" d="M-7098.871-9689.85v-67.031h138.409" transform="translate(7492.239 14597.936)" fill="none" stroke="#3a3a3a" stroke-linecap="round" stroke-linejoin="round" stroke-width="3"/>
      <g id="Grupo_132166" data-name="Grupo 132166" transform="translate(312 4653.751)">
        <path id="Trazado_117854" data-name="Trazado 117854" d="M-3432.841,1663.843s46,4.394,82.872,2.925c16.613-.662,60.113-4.5,71.123-2.925" transform="translate(3442.343 -1626.565)" fill="#5c22c3"/>
        <path id="Trazado_117855" data-name="Trazado 117855" d="M-3384.4,1712.812c-31.724,0-63.708-10.812-65.28-11.35-7.108-2.436-12.082-18.843-11.109-36.645s7.522-30.26,14.628-27.828h0c.427.145,43.128,14.555,76.619,9.769,4.537-.649,11.7-2.331,19.281-4.113,25.809-6.065,43.369-9.709,51.968-5.292,7.028,3.609,11.557,20.806,10.115,38.409s-8.309,28.946-15.334,25.337c-5.49-2.792-31.718,3.372-44.323,6.334-8.165,1.919-15.216,3.575-20.227,4.292A115.937,115.937,0,0,1-3384.4,1712.812Z" transform="translate(3460.911 -1635.4)" fill="#5c22c3"/>
      </g>
      <g id="Grupo_162486" data-name="Grupo 162486" transform="translate(924.652 4553.328)">
        <path id="Trazado_117854-2" data-name="Trazado 117854" d="M-3432.841,1663.843s46,4.394,82.872,2.925c16.613-.662,60.113-4.5,71.123-2.925" transform="translate(3442.343 -1626.565)" fill="#ab8dd9"/>
        <path id="Trazado_117855-2" data-name="Trazado 117855" d="M-3384.4,1712.812c-31.724,0-63.708-10.812-65.28-11.35-7.108-2.436-12.082-18.843-11.109-36.645s7.522-30.26,14.628-27.828h0c.427.145,43.128,14.555,76.619,9.769,4.537-.649,11.7-2.331,19.281-4.113,25.809-6.065,43.369-9.709,51.968-5.292,7.028,3.609,11.557,20.806,10.115,38.409s-8.309,28.946-15.334,25.337c-5.49-2.792-31.718,3.372-44.323,6.334-8.165,1.919-15.216,3.575-20.227,4.292A115.937,115.937,0,0,1-3384.4,1712.812Z" transform="translate(3460.911 -1635.4)" fill="#ab8dd9"/>
      </g>
      <text id="Validar_la_necesidad_de_una_nueva_vacante" data-name="Validar la necesidad de una nueva vacante" transform="translate(318 4670.751)" fill="#fff" font-size="16" font-family="Roboto-Regular, Roboto"><tspan x="-71.488" y="17">Validar la necesidad </tspan><tspan x="-77.02" y="41">de una nueva vacante</tspan></text>
      <text id="Aplicacin_de_posibles_candidatos" data-name="Aplicacin de posibles candidatos" transform="translate(932.652 4570.535)" fill="#fff" font-size="16" font-family="Roboto-Regular, Roboto"><tspan x="-47.965" y="17">Aplicacin de </tspan><tspan x="-71.383" y="41">posibles candidatos</tspan></text>
      <path id="Trazado_122962-2" data-name="Trazado 122962" d="M-7132.859-9682.992v-73.889h22.537" transform="translate(-9184.582 11825.316) rotate(90)" fill="none" stroke="#3a3a3a" stroke-linecap="round" stroke-linejoin="round" stroke-width="3"/>
      <path id="Trazado_228249" data-name="Trazado 228249" d="M-7132.859-9756.881v162.348h22.537" transform="translate(-8847.023 11721.35) rotate(90)" fill="none" stroke="#3a3a3a" stroke-linecap="round" stroke-linejoin="round" stroke-width="3"/>
      <path id="Trazado_228252" data-name="Trazado 228252" d="M-7083.5-9756.881v113.2h-49.358" transform="translate(-8756.727 11791.532) rotate(90)" fill="none" stroke="#3a3a3a" stroke-linecap="round" stroke-linejoin="round" stroke-width="3"/>
      <path id="Trazado_228256" data-name="Trazado 228256" d="M149.847,76.9V0H0" transform="translate(946.721 4857.48)" fill="none" stroke="#3a3a3a" stroke-linecap="round" stroke-linejoin="round" stroke-width="3"/>
      <path id="Trazado_228254" data-name="Trazado 228254" d="M-7083.5-9756.881v113.2h-49.358" transform="translate(-8757.879 11881.532) rotate(90)" fill="none" stroke="#3a3a3a" stroke-linecap="round" stroke-linejoin="round" stroke-width="3"/>
      <g id="Grupo_162492" data-name="Grupo 162492" transform="translate(25.569 299.835)">
        <g id="Grupo_162487" data-name="Grupo 162487" transform="translate(965 4639)">
          <path id="Trazado_117854-3" data-name="Trazado 117854" d="M-3432.841,1663.843s65.7,4.394,118.351,2.925c23.726-.662,85.847-4.5,101.571-2.925" transform="translate(3442.343 -1626.565)" fill="#5c22c3"/>
          <path id="Trazado_117855-3" data-name="Trazado 117855" d="M-3355.243,1712.812c-43.814,0-87.987-10.812-90.158-11.35-9.816-2.436-16.686-18.843-15.343-36.645s10.388-30.26,20.2-27.828h0c.59.145,59.564,14.555,105.818,9.769,6.266-.649,16.157-2.331,26.628-4.113,35.644-6.065,59.9-9.709,71.772-5.292,9.706,3.609,15.961,20.806,13.97,38.409s-11.476,28.946-21.178,25.337c-7.583-2.792-43.805,3.372-61.214,6.334-11.276,1.919-21.015,3.575-27.936,4.292A220.305,220.305,0,0,1-3355.243,1712.812Z" transform="translate(3460.911 -1635.4)" fill="#5c22c3"/>
        </g>
        <text id="Contratacin_y_capacitacin_del_nuevo_empleado" data-name="Contratacin y capacitacin del nuevo empleado" transform="translate(981 4658)" fill="#fff" font-size="16" font-family="Roboto-Regular, Roboto"><tspan x="-99.094" y="17">Contratacin y capacitacin </tspan><tspan x="-71.387" y="41">del nuevo empleado</tspan></text>
      </g>
      <g id="Grupo_162495" data-name="Grupo 162495" transform="translate(-719.681 -83.096)">
        <g id="Grupo_162490" data-name="Grupo 162490" transform="translate(973 4991.421)">
          <path id="Trazado_117854-4" data-name="Trazado 117854" d="M-3432.841,1663.843s78,4.394,140.506,2.925c28.167-.662,101.917-4.5,120.584-2.925" transform="translate(3442.343 -1613.562)" fill="#ab8dd9"/>
          <path id="Trazado_117855-4" data-name="Trazado 117855" d="M-3337.036,1738.821c-51.364,0-103.147-14.445-105.692-15.164-11.507-3.254-19.561-25.173-17.986-48.957s12.178-40.428,23.683-37.178h0c.692.194,69.827,19.446,124.05,13.051,7.346-.867,18.941-3.114,31.217-5.495,41.785-8.1,70.217-12.971,84.139-7.07,11.378,4.822,18.711,27.8,16.377,51.314s-13.453,38.671-24.827,33.849c-8.889-3.73-51.353,4.505-71.761,8.462-13.219,2.563-24.636,4.777-32.749,5.734A226.953,226.953,0,0,1-3337.036,1738.821Z" transform="translate(3460.911 -1635.4)" fill="#ab8dd9"/>
        </g>
        <text id="Hacer_pblica_la_oferta_de_trabajo_portales_de_empleo_redes_sociales_sitios_web_" data-name="Hacer pblica la oferta de trabajo (portales de empleo, redes sociales, sitios web)" transform="translate(986 5012)" fill="#fff" font-size="16" font-family="Roboto-Regular, Roboto"><tspan x="-118.215" y="17">Hacer pblica la oferta de trabajo </tspan><tspan x="-94.52" y="41">(portales de empleo, redes </tspan><tspan x="-71.832" y="65">sociales, sitios web)</tspan></text>
      </g>
      <g id="Grupo_162493" data-name="Grupo 162493" transform="translate(9.154 38.712)">
        <g id="Grupo_162491" data-name="Grupo 162491" transform="translate(1003 4725)">
          <path id="Trazado_117854-5" data-name="Trazado 117854" d="M-3432.841,1663.843s58.851,4.394,106.013,2.925c21.252-.662,76.9-4.5,90.982-2.925" transform="translate(3442.343 -1623.327)" fill="#ab8dd9"/>
          <path id="Trazado_117855-5" data-name="Trazado 117855" d="M-3365.383,1719.288c-39.61,0-79.543-11.717-81.506-12.3-8.874-2.639-15.084-20.419-13.87-39.711s9.391-32.792,18.264-30.157h0c.533.158,53.848,15.773,95.663,10.586,5.665-.7,14.607-2.526,24.073-4.457,32.223-6.572,54.149-10.521,64.885-5.735,8.775,3.911,14.429,22.547,12.629,41.622s-10.374,31.367-19.145,27.456c-6.855-3.025-39.6,3.654-55.339,6.864-10.194,2.079-19,3.875-25.255,4.651A166.488,166.488,0,0,1-3365.383,1719.288Z" transform="translate(3460.911 -1635.4)" fill="#ab8dd9"/>
        </g>
        <text id="Desarrollo_de_entrevistas_en_sus_diferentes_filtros_" data-name="Desarrollo de entrevistas 
(en sus diferentes filtros)" transform="translate(1001 4745)" fill="#fff" font-size="16" font-family="Roboto-Regular, Roboto"><tspan x="-88.207" y="17">Desarrollo de entrevistas </tspan><tspan x="-88.875" y="41">(en sus diferentes filtros)</tspan></text>
      </g>
      <g id="Grupo_162491-2" data-name="Grupo 162491" transform="translate(1013.497 4679.125)">
        <path id="Trazado_117854-6" data-name="Trazado 117854" d="M-3432.841,1663.843s58.851,4.394,106.013,2.925c21.252-.662,76.9-4.5,90.982-2.925" transform="translate(3442.343 -1635.956)" fill="#5c22c3"/>
        <path id="Trazado_117855-6" data-name="Trazado 117855" d="M-3365.383,1694.027c-39.61,0-79.543-8.189-81.506-8.6-8.874-1.845-15.084-14.27-13.87-27.752s9.391-22.918,18.264-21.076h0c.533.11,53.848,11.023,95.663,7.4,5.665-.492,14.607-1.765,24.073-3.115,32.223-4.593,54.149-7.353,64.885-4.008,8.775,2.734,14.429,15.757,12.629,29.089s-10.374,21.922-19.145,19.188c-6.855-2.114-39.6,2.554-55.339,4.8-10.194,1.453-19,2.708-25.255,3.251C-3351.639,1693.78-3358.509,1694.027-3365.383,1694.027Z" transform="translate(3460.911 -1635.4)" fill="#5c22c3"/>
      </g>
      <text id="Examen_de_los_candidatos" data-name="Examen de los candidatos" transform="translate(1026.494 4698.814)" fill="#fff" font-size="16" font-family="Roboto-Regular, Roboto"><tspan x="0" y="17">Examen de los candidatos</tspan></text>
    </g>
  </g>
</svg>
