<svg xmlns="http://www.w3.org/2000/svg" width="1231.636" height="1058.025" viewBox="0 0 1231.636 1058.025">
  <g id="Grupo_187004" data-name="Grupo 187004" transform="translate(-180 -371)">
    <path id="Trazado_226561" data-name="Trazado 226561" d="M-14481.806-9590.5h20.654" transform="translate(14793.441 10409)" fill="none" stroke="#707070" stroke-width="3"/>
    <rect id="Rectángulo_44871" data-name="Rectángulo 44871" width="141.636" height="84.271" rx="30" transform="translate(180 776)" fill="#5c22c3"/>
    <text id="Entrevista" transform="translate(203 806)" fill="#fff" font-size="20" font-family="Roboto-Black, Roboto" font-weight="800"><tspan x="-45.615" y="21">Entrevista</tspan></text>
    <g id="Grupo_160532" data-name="Grupo 160532" transform="translate(0 -11.146)">
      <g id="Grupo_160531" data-name="Grupo 160531">
        <path id="Trazado_226562" data-name="Trazado 226562" d="M-14481.812-9590.5h915.939" transform="translate(-9258.211 14911.459) rotate(90)" fill="none" stroke="#707070" stroke-width="3"/>
        <g id="Grupo_160530" data-name="Grupo 160530">
          <path id="Trazado_226563" data-name="Trazado 226563" d="M-14188.333-9712.5h85.93" transform="translate(14646.57 10268.463)" fill="none" stroke="#707070" stroke-width="3"/>
          <path id="Trazado_226556" data-name="Trazado 226556" d="M-14188.333-9712.5h85.93" transform="translate(14646.57 10426.462)" fill="none" stroke="#707070" stroke-width="3"/>
          <path id="Trazado_226553" data-name="Trazado 226553" d="M-14188.333-9712.5h85.93" transform="translate(14646.57 10621.729)" fill="none" stroke="#707070" stroke-width="3"/>
          <path id="Trazado_226565" data-name="Trazado 226565" d="M-14188.333-9688.352h85.93" transform="translate(14520.621 10117.999)" fill="none" stroke="#707070" stroke-width="3"/>
          <path id="Trazado_226564" data-name="Trazado 226564" d="M-14188.333-9712.5h85.93" transform="translate(14520.621 10268.621)" fill="none" stroke="#707070" stroke-width="3"/>
          <path id="Trazado_226557" data-name="Trazado 226557" d="M-14188.333-9712.5h85.93" transform="translate(14520.621 10426.096)" fill="none" stroke="#707070" stroke-width="3"/>
          <path id="Trazado_226558" data-name="Trazado 226558" d="M-14188.333-9712.5h85.93" transform="translate(14520.621 10621.729)" fill="none" stroke="#707070" stroke-width="3"/>
          <path id="Trazado_226559" data-name="Trazado 226559" d="M-14188.333-9712.5h85.93" transform="translate(14520.621 10833.158)" fill="none" stroke="#707070" stroke-width="3"/>
          <g id="Rectángulo_44870" data-name="Rectángulo 44870" transform="translate(346.636 508.463)" fill="#ebe4f8" stroke="#5c22c3" stroke-width="3">
            <rect width="185.8" height="95.315" rx="47.658" stroke="none"/>
            <rect x="1.5" y="1.5" width="182.8" height="92.315" rx="46.158" fill="none"/>
          </g>
          <g id="Rectángulo_44869" data-name="Rectángulo 44869" transform="translate(346.636 666.463)" fill="#ebe4f8" stroke="#5c22c3" stroke-width="3">
            <rect width="185.8" height="95.315" rx="47.658" stroke="none"/>
            <rect x="1.5" y="1.5" width="182.8" height="92.315" rx="46.158" fill="none"/>
          </g>
          <g id="Rectángulo_44866" data-name="Rectángulo 44866" transform="translate(346.636 861.729)" fill="#ebe4f8" stroke="#5c22c3" stroke-width="3">
            <rect width="185.8" height="95.315" rx="47.658" stroke="none"/>
            <rect x="1.5" y="1.5" width="182.8" height="92.315" rx="46.158" fill="none"/>
          </g>
          <text id="Herramientas_Informáticas" data-name="Herramientas Informáticas" transform="translate(368.636 530.463)" fill="#12263f" font-size="20" font-family="Roboto-Black, Roboto" font-weight="800"><tspan x="-61.519" y="21">Herramientas </tspan><tspan x="-57.412" y="48">Informáticas</tspan></text>
          <text id="Herramientas_presenciales" data-name="Herramientas presenciales" transform="translate(368.636 688.462)" fill="#12263f" font-size="20" font-family="Roboto-Black, Roboto" font-weight="800"><tspan x="-61.519" y="21">Herramientas </tspan><tspan x="-57.637" y="48">presenciales</tspan></text>
          <text id="Conceptos_de_comunicación" data-name="Conceptos de comunicación" transform="translate(368.636 883.729)" fill="#12263f" font-size="20" font-family="Roboto-Black, Roboto" font-weight="800"><tspan x="-61.67" y="21">Conceptos de </tspan><tspan x="-63.154" y="48">comunicación</tspan></text>
          <g id="Rectángulo_44872" data-name="Rectángulo 44872" transform="translate(346.636 382.146)" fill="#ebe4f8" stroke="#5c22c3" stroke-width="3">
            <rect width="185.8" height="95.315" rx="47.658" stroke="none"/>
            <rect x="1.5" y="1.5" width="182.8" height="92.315" rx="46.158" fill="none"/>
          </g>
          <text id="Beneficios_y_desventajas" data-name="Beneficios y
desventajas" transform="translate(368.636 404.146)" fill="#12263f" font-size="20" font-family="Roboto-Black, Roboto" font-weight="800"><tspan x="-55.688" y="21">Beneficios y</tspan><tspan x="-54.312" y="48">desventajas</tspan></text>
          <g id="Grupo_160520" data-name="Grupo 160520" transform="translate(544.17 487.462)">
            <rect id="Rectángulo_42815" data-name="Rectángulo 42815" width="234.83" height="137" rx="26.65" transform="translate(0)" fill="#ebe4f8"/>
            <text id="Videoconferencia_Elementos_visuales_Cuestionarios_en_línea_Uso_de_software_ATS" data-name="Videoconferencia
Elementos visuales 
Cuestionarios en línea
Uso de software ATS" transform="translate(37.466 20)" fill="#12263f" font-size="16" font-family="Roboto-Regular, Roboto"><tspan x="0" y="17">Videoconferencia</tspan><tspan x="0" y="43">Elementos visuales </tspan><tspan x="0" y="69">Cuestionarios en línea</tspan><tspan x="0" y="95">Uso de </tspan><tspan y="95" font-family="Roboto-Italic, Roboto" font-style="italic">software</tspan><tspan y="95" xml:space="preserve"> ATS</tspan></text>
            <path id="Trazado_133320" data-name="Trazado 133320" d="M-524.349,195.923l8.685,8.559-8.685,8.559" transform="translate(543.349 -172.984)" fill="none" stroke="#a668c4" stroke-miterlimit="10" stroke-width="3"/>
            <path id="Trazado_133321" data-name="Trazado 133321" d="M-524.349,195.923l8.685,8.559-8.685,8.559" transform="translate(543.349 -146.984)" fill="none" stroke="#a668c4" stroke-miterlimit="10" stroke-width="3"/>
            <path id="Trazado_133322" data-name="Trazado 133322" d="M-524.349,195.923l8.685,8.559-8.685,8.559" transform="translate(543.349 -123.984)" fill="none" stroke="#a668c4" stroke-miterlimit="10" stroke-width="3"/>
            <path id="Trazado_226541" data-name="Trazado 226541" d="M-524.349,195.923l8.685,8.559-8.685,8.559" transform="translate(543.349 -95.984)" fill="none" stroke="#a668c4" stroke-miterlimit="10" stroke-width="3"/>
          </g>
          <g id="Grupo_160523" data-name="Grupo 160523">
            <rect id="Rectángulo_44861" data-name="Rectángulo 44861" width="234.83" height="158.268" rx="26.65" transform="translate(544.17 634.462)" fill="#ebe4f8"/>
            <text id="Presentaciones_de_información_Cuestionarios_Elementos_comunicativos_Espacios_adecuados" data-name="Presentaciones de información
Cuestionarios
Elementos comunicativos
Espacios adecuados" transform="translate(581.636 654.462)" fill="#12263f" font-size="16" font-family="Roboto-Regular, Roboto"><tspan x="0" y="17">Presentaciones de </tspan><tspan x="0" y="43">información</tspan><tspan x="0" y="69">Cuestionarios</tspan><tspan x="0" y="95">Elementos comunicativos</tspan><tspan x="0" y="121">Espacios adecuados</tspan></text>
            <path id="Trazado_226529" data-name="Trazado 226529" d="M-524.349,195.923l8.685,8.559-8.685,8.559" transform="translate(1087.519 461.478)" fill="none" stroke="#a668c4" stroke-miterlimit="10" stroke-width="3"/>
            <path id="Trazado_226530" data-name="Trazado 226530" d="M-524.349,195.923l8.685,8.559-8.685,8.559" transform="translate(1087.519 563.478)" fill="none" stroke="#a668c4" stroke-miterlimit="10" stroke-width="3"/>
            <path id="Trazado_226531" data-name="Trazado 226531" d="M-524.349,195.923l8.685,8.559-8.685,8.559" transform="translate(1087.519 510.478)" fill="none" stroke="#a668c4" stroke-miterlimit="10" stroke-width="3"/>
            <path id="Trazado_226542" data-name="Trazado 226542" d="M-524.349,195.923l8.685,8.559-8.685,8.559" transform="translate(1087.519 538.478)" fill="none" stroke="#a668c4" stroke-miterlimit="10" stroke-width="3"/>
          </g>
          <g id="Grupo_160518" data-name="Grupo 160518" transform="translate(544.17 802.729)">
            <rect id="Rectángulo_44862" data-name="Rectángulo 44862" width="234.83" height="213.685" rx="26.65" transform="translate(0)" fill="#ebe4f8"/>
            <text id="Emisor_Receptor_Mensaje_Canal_Contexto_Referente_Código" data-name="Emisor
Receptor
Mensaje
Canal
Contexto
Referente
Código" transform="translate(37.466 18.685)" fill="#12263f" font-size="16" font-family="Roboto-Regular, Roboto"><tspan x="0" y="17">Emisor</tspan><tspan x="0" y="43">Receptor</tspan><tspan x="0" y="69">Mensaje</tspan><tspan x="0" y="95">Canal</tspan><tspan x="0" y="121">Contexto</tspan><tspan x="0" y="147">Referente</tspan><tspan x="0" y="173">Código</tspan></text>
            <path id="Trazado_226532" data-name="Trazado 226532" d="M-524.349,195.923l8.685,8.559-8.685,8.559" transform="translate(543.349 -174.3)" fill="none" stroke="#a668c4" stroke-miterlimit="10" stroke-width="3"/>
            <path id="Trazado_226533" data-name="Trazado 226533" d="M-524.349,195.923l8.685,8.559-8.685,8.559" transform="translate(543.349 -148.3)" fill="none" stroke="#a668c4" stroke-miterlimit="10" stroke-width="3"/>
            <path id="Trazado_226534" data-name="Trazado 226534" d="M-524.349,195.923l8.685,8.559-8.685,8.559" transform="translate(543.349 -125.3)" fill="none" stroke="#a668c4" stroke-miterlimit="10" stroke-width="3"/>
            <path id="Trazado_226543" data-name="Trazado 226543" d="M-524.349,195.923l8.685,8.559-8.685,8.559" transform="translate(543.349 -97.3)" fill="none" stroke="#a668c4" stroke-miterlimit="10" stroke-width="3"/>
            <path id="Trazado_226544" data-name="Trazado 226544" d="M-524.349,195.923l8.685,8.559-8.685,8.559" transform="translate(543.349 -71.3)" fill="none" stroke="#a668c4" stroke-miterlimit="10" stroke-width="3"/>
            <path id="Trazado_226545" data-name="Trazado 226545" d="M-524.349,195.923l8.685,8.559-8.685,8.559" transform="translate(543.349 -46.3)" fill="none" stroke="#a668c4" stroke-miterlimit="10" stroke-width="3"/>
            <path id="Trazado_226546" data-name="Trazado 226546" d="M-524.349,195.923l8.685,8.559-8.685,8.559" transform="translate(543.349 -20.3)" fill="none" stroke="#a668c4" stroke-miterlimit="10" stroke-width="3"/>
          </g>
          <path id="Trazado_226554" data-name="Trazado 226554" d="M-14188.333-9712.5h85.93" transform="translate(14646.57 10833)" fill="none" stroke="#707070" stroke-width="3"/>
          <g id="Rectángulo_44867" data-name="Rectángulo 44867" transform="translate(346.636 1073)" fill="#ebe4f8" stroke="#5c22c3" stroke-width="3">
            <rect width="185.8" height="95.315" rx="47.658" stroke="none"/>
            <rect x="1.5" y="1.5" width="182.8" height="92.315" rx="46.158" fill="none"/>
          </g>
          <text id="Funciones_de_la_comunicación" data-name="Funciones de la comunicación" transform="translate(368.636 1095)" fill="#12263f" font-size="20" font-family="Roboto-Black, Roboto" font-weight="800"><tspan x="-70.513" y="21">Funciones de la </tspan><tspan x="-63.154" y="48">comunicación</tspan></text>
          <rect id="Rectángulo_44863" data-name="Rectángulo 44863" width="234.83" height="214.585" rx="26.65" transform="translate(544.17 1026)" fill="#ebe4f8"/>
          <text id="Representativa_o_informativa_Expresiva_o_emotiva_Apelativa_o_conativa_Contacto_o_fáctica_Metalingüística_Estética_o_poética_" data-name="Representativa o informativa
Expresiva o emotiva
Apelativa o conativa
Contacto o fáctica
Metalingüística
Estética o poética " transform="translate(581.636 1045.586)" fill="#12263f" font-size="16" font-family="Roboto-Regular, Roboto"><tspan x="0" y="17">Representativa o </tspan><tspan x="0" y="43">informativa</tspan><tspan x="0" y="69">Expresiva o emotiva</tspan><tspan x="0" y="95">Apelativa o conativa</tspan><tspan x="0" y="121">Contacto o fáctica</tspan><tspan x="0" y="147">Metalingüística</tspan><tspan x="0" y="173">Estética o poética </tspan></text>
          <path id="Trazado_226535" data-name="Trazado 226535" d="M-524.349,195.923l8.685,8.559-8.685,8.559" transform="translate(1087.519 851.016)" fill="none" stroke="#a668c4" stroke-miterlimit="10" stroke-width="3"/>
          <path id="Trazado_226536" data-name="Trazado 226536" d="M-524.349,195.923l8.685,8.559-8.685,8.559" transform="translate(1087.519 1006.016)" fill="none" stroke="#a668c4" stroke-miterlimit="10" stroke-width="3"/>
          <path id="Trazado_226537" data-name="Trazado 226537" d="M-524.349,195.923l8.685,8.559-8.685,8.559" transform="translate(1087.519 900.016)" fill="none" stroke="#a668c4" stroke-miterlimit="10" stroke-width="3"/>
          <path id="Trazado_226547" data-name="Trazado 226547" d="M-524.349,195.923l8.685,8.559-8.685,8.559" transform="translate(1087.519 929.016)" fill="none" stroke="#a668c4" stroke-miterlimit="10" stroke-width="3"/>
          <path id="Trazado_226548" data-name="Trazado 226548" d="M-524.349,195.923l8.685,8.559-8.685,8.559" transform="translate(1087.519 955.016)" fill="none" stroke="#a668c4" stroke-miterlimit="10" stroke-width="3"/>
          <path id="Trazado_226549" data-name="Trazado 226549" d="M-524.349,195.923l8.685,8.559-8.685,8.559" transform="translate(1087.519 978.016)" fill="none" stroke="#a668c4" stroke-miterlimit="10" stroke-width="3"/>
          <g id="Grupo_160521" data-name="Grupo 160521">
            <path id="Trazado_226555" data-name="Trazado 226555" d="M-14188.333-9712.5h85.93" transform="translate(14646.57 11057.999)" fill="none" stroke="#707070" stroke-width="3"/>
            <path id="Trazado_226560" data-name="Trazado 226560" d="M-14188.333-9712.5h85.93" transform="translate(14520.621 11057.999)" fill="none" stroke="#707070" stroke-width="3"/>
            <g id="Rectángulo_44868" data-name="Rectángulo 44868" transform="translate(346.636 1297.999)" fill="#ebe4f8" stroke="#5c22c3" stroke-width="3">
              <rect width="185.8" height="95.315" rx="47.658" stroke="none"/>
              <rect x="1.5" y="1.5" width="182.8" height="92.315" rx="46.158" fill="none"/>
            </g>
            <text id="Comunicación_acertiva" data-name="Comunicación acertiva" transform="translate(355.636 1319.999)" fill="#12263f" font-size="20" font-family="Roboto-Black, Roboto" font-weight="800"><tspan x="-64.521" y="21">Comunicación </tspan><tspan x="-36.563" y="48">acertiva</tspan></text>
            <g id="Grupo_160516" data-name="Grupo 160516" transform="translate(544.17 1250.999)">
              <rect id="Rectángulo_44864" data-name="Rectángulo 44864" width="234.83" height="189.173" rx="26.65" transform="translate(0)" fill="#ebe4f8"/>
              <text id="Atención_Sencillez_Leguaje_no_verbal_Respeto_y_coherencia_Manejo_de_sentimientos_Validación_del_mensaje_" data-name="Atención 
Sencillez
Leguaje no verbal
Respeto y coherencia
Manejo de sentimientos
Validación del mensaje " transform="translate(37.466 20.173)" fill="#12263f" font-size="16" font-family="Roboto-Regular, Roboto"><tspan x="0" y="17">Atención </tspan><tspan x="0" y="43">Sencillez</tspan><tspan x="0" y="69">Leguaje no verbal</tspan><tspan x="0" y="95">Respeto y coherencia</tspan><tspan x="0" y="121">Manejo de sentimientos</tspan><tspan x="0" y="147">Validación del mensaje </tspan></text>
              <path id="Trazado_226538" data-name="Trazado 226538" d="M-524.349,195.923l8.685,8.559-8.685,8.559" transform="translate(543.349 -172.812)" fill="none" stroke="#a668c4" stroke-miterlimit="10" stroke-width="3"/>
              <path id="Trazado_226539" data-name="Trazado 226539" d="M-524.349,195.923l8.685,8.559-8.685,8.559" transform="translate(543.349 -146.812)" fill="none" stroke="#a668c4" stroke-miterlimit="10" stroke-width="3"/>
              <path id="Trazado_226540" data-name="Trazado 226540" d="M-524.349,195.923l8.685,8.559-8.685,8.559" transform="translate(543.349 -123.812)" fill="none" stroke="#a668c4" stroke-miterlimit="10" stroke-width="3"/>
              <path id="Trazado_226550" data-name="Trazado 226550" d="M-524.349,195.923l8.685,8.559-8.685,8.559" transform="translate(543.349 -94.812)" fill="none" stroke="#a668c4" stroke-miterlimit="10" stroke-width="3"/>
              <path id="Trazado_226551" data-name="Trazado 226551" d="M-524.349,195.923l8.685,8.559-8.685,8.559" transform="translate(543.349 -68.812)" fill="none" stroke="#a668c4" stroke-miterlimit="10" stroke-width="3"/>
              <path id="Trazado_226552" data-name="Trazado 226552" d="M-524.349,195.923l8.685,8.559-8.685,8.559" transform="translate(543.349 -45.812)" fill="none" stroke="#a668c4" stroke-miterlimit="10" stroke-width="3"/>
            </g>
          </g>
        </g>
      </g>
    </g>
    <g id="Grupo_160533" data-name="Grupo 160533" transform="translate(0 66.539)">
      <g id="Grupo_160529" data-name="Grupo 160529" transform="translate(0 -18.734)">
        <path id="Trazado_226561-2" data-name="Trazado 226561" d="M-14481.806-9590.5h20.654" transform="translate(15425.441 10406.049)" fill="none" stroke="#707070" stroke-width="3"/>
        <rect id="Rectángulo_44871-2" data-name="Rectángulo 44871" width="141.636" height="84.271" rx="30" transform="translate(812 773.413)" fill="#5c22c3"/>
        <text id="Registro_de_información" data-name="Registro de
información" transform="translate(828 790.049)" fill="#fff" font-size="20" font-family="Roboto-Black, Roboto" font-weight="800"><tspan x="-51.812" y="21">Registro de</tspan><tspan x="-54.536" y="48">información</tspan></text>
      </g>
      <path id="Trazado_226562-2" data-name="Trazado 226562" d="M-14481.812-9590.5h796.374" transform="translate(-8626.211 14911.459) rotate(90)" fill="none" stroke="#707070" stroke-width="3"/>
      <path id="Trazado_226563-2" data-name="Trazado 226563" d="M-14188.333-9712.5h85.93" transform="translate(15278.57 10141.463)" fill="none" stroke="#707070" stroke-width="3"/>
      <path id="Trazado_226556-2" data-name="Trazado 226556" d="M-14188.333-9712.5h85.93" transform="translate(15278.57 10308)" fill="none" stroke="#707070" stroke-width="3"/>
      <path id="Trazado_226553-2" data-name="Trazado 226553" d="M-14188.333-9712.5h85.93" transform="translate(15278.57 10467.837)" fill="none" stroke="#707070" stroke-width="3"/>
      <path id="Trazado_226565-2" data-name="Trazado 226565" d="M-14188.333-9688.352h85.93" transform="translate(15152.621 10117.999)" fill="none" stroke="#707070" stroke-width="3"/>
      <path id="Trazado_226557-2" data-name="Trazado 226557" d="M-14188.333-9712.5h85.93" transform="translate(15152.621 10308)" fill="none" stroke="#707070" stroke-width="3"/>
      <path id="Trazado_226558-2" data-name="Trazado 226558" d="M-14188.333-9712.5h85.93" transform="translate(15152.621 10467.837)" fill="none" stroke="#707070" stroke-width="3"/>
      <path id="Trazado_226559-2" data-name="Trazado 226559" d="M-14188.333-9712.5h85.93" transform="translate(15152.621 10716.521)" fill="none" stroke="#707070" stroke-width="3"/>
      <g id="Rectángulo_44870-2" data-name="Rectángulo 44870" transform="translate(978.636 381.463)" fill="#ebe4f8" stroke="#5c22c3" stroke-width="3">
        <rect width="185.8" height="95.315" rx="47.658" stroke="none"/>
        <rect x="1.5" y="1.5" width="182.8" height="92.315" rx="46.158" fill="none"/>
      </g>
      <g id="Rectángulo_44869-2" data-name="Rectángulo 44869" transform="translate(978.636 548)" fill="#ebe4f8" stroke="#5c22c3" stroke-width="3">
        <rect width="185.8" height="95.315" rx="47.658" stroke="none"/>
        <rect x="1.5" y="1.5" width="182.8" height="92.315" rx="46.158" fill="none"/>
      </g>
      <g id="Rectángulo_44866-2" data-name="Rectángulo 44866" transform="translate(978.636 707.837)" fill="#ebe4f8" stroke="#5c22c3" stroke-width="3">
        <rect width="185.8" height="95.315" rx="47.658" stroke="none"/>
        <rect x="1.5" y="1.5" width="182.8" height="92.315" rx="46.158" fill="none"/>
      </g>
      <text id="Codificar_clasificar_y_organizar" data-name="Codificar, clasificar y organizar" transform="translate(1000.636 391.647)" fill="#12263f" font-size="20" font-family="Roboto-Black, Roboto" font-weight="800"><tspan x="-43.052" y="21">Codificar, </tspan><tspan x="-49.443" y="48">clasificar y </tspan><tspan x="-43.096" y="75">organizar</tspan></text>
      <text id="Tipos_de_registro" data-name="Tipos de registro" transform="translate(1000.636 570)" fill="#12263f" font-size="20" font-family="Roboto-Black, Roboto" font-weight="800"><tspan x="-38.979" y="21">Tipos de </tspan><tspan x="-35.518" y="48">registro</tspan></text>
      <text id="Herramientas_informáticas-2" data-name="Herramientas informáticas" transform="translate(1000.636 729.836)" fill="#12263f" font-size="20" font-family="Roboto-Black, Roboto" font-weight="800"><tspan x="-61.519" y="21">Herramientas </tspan><tspan x="-57.144" y="48">informáticas</tspan></text>
      <g id="Grupo_160528" data-name="Grupo 160528">
        <rect id="Rectángulo_42815-2" data-name="Rectángulo 42815" width="234.83" height="184.537" rx="26.65" transform="translate(1176.17 360.462)" fill="#ebe4f8"/>
        <text id="Codificar_deductivo_inductivo_Clasificar_inventario_criterios_clasificación_normas_Organizar" data-name="Codificar (deductivo/ inductivo)
Clasificar (inventario, criterios, clasificación, normas) 
Organizar" transform="translate(1213.636 380.462)" fill="#12263f" font-size="16" font-family="Roboto-Regular, Roboto"><tspan x="0" y="17">Codificar (deductivo/ </tspan><tspan x="0" y="43">inductivo)</tspan><tspan x="0" y="69">Clasificar (inventario, </tspan><tspan x="0" y="95">criterios, clasificación, </tspan><tspan x="0" y="121">normas) </tspan><tspan x="0" y="147">Organizar</tspan></text>
        <path id="Trazado_133320-2" data-name="Trazado 133320" d="M-524.349,195.923l8.685,8.559-8.685,8.559" transform="translate(1719.519 187.478)" fill="none" stroke="#a668c4" stroke-miterlimit="10" stroke-width="3"/>
        <path id="Trazado_133322-2" data-name="Trazado 133322" d="M-524.349,195.923l8.685,8.559-8.685,8.559" transform="translate(1719.519 236.478)" fill="none" stroke="#a668c4" stroke-miterlimit="10" stroke-width="3"/>
        <path id="Trazado_226541-2" data-name="Trazado 226541" d="M-524.349,195.923l8.685,8.559-8.685,8.559" transform="translate(1719.519 315.478)" fill="none" stroke="#a668c4" stroke-miterlimit="10" stroke-width="3"/>
      </g>
      <g id="Grupo_160527" data-name="Grupo 160527" transform="translate(0 -28.162)">
        <rect id="Rectángulo_44861-2" data-name="Rectángulo 44861" width="234.83" height="83.838" rx="26.65" transform="translate(1176.17 582.161)" fill="#ebe4f8"/>
        <text id="Físicos_Digitales_" data-name="Físicos
Digitales " transform="translate(1213.636 602.161)" fill="#12263f" font-size="16" font-family="Roboto-Regular, Roboto"><tspan x="0" y="17">Físicos</tspan><tspan x="0" y="43">Digitales </tspan></text>
        <path id="Trazado_226529-2" data-name="Trazado 226529" d="M-524.349,195.923l8.685,8.559-8.685,8.559" transform="translate(1719.519 409.177)" fill="none" stroke="#a668c4" stroke-miterlimit="10" stroke-width="3"/>
        <path id="Trazado_226531-2" data-name="Trazado 226531" d="M-524.349,195.923l8.685,8.559-8.685,8.559" transform="translate(1719.519 435.177)" fill="none" stroke="#a668c4" stroke-miterlimit="10" stroke-width="3"/>
      </g>
      <g id="Grupo_160518-2" data-name="Grupo 160518" transform="translate(1176.17 647.837)">
        <rect id="Rectángulo_44862-2" data-name="Rectángulo 44862" width="234.83" height="213.685" rx="26.65" transform="translate(0)" fill="#ebe4f8"/>
        <text id="Emisor_Receptor_Mensaje_Canal_Contexto_Referente_Código_" data-name="Emisor
Receptor
Mensaje
Canal
Contexto
Referente
Código " transform="translate(37.466 18.685)" fill="#12263f" font-size="16" font-family="Roboto-Regular, Roboto"><tspan x="0" y="17">Emisor</tspan><tspan x="0" y="43">Receptor</tspan><tspan x="0" y="69">Mensaje</tspan><tspan x="0" y="95">Canal</tspan><tspan x="0" y="121">Contexto</tspan><tspan x="0" y="147">Referente</tspan><tspan x="0" y="173">Código </tspan></text>
        <path id="Trazado_226532-2" data-name="Trazado 226532" d="M-524.349,195.923l8.685,8.559-8.685,8.559" transform="translate(543.349 -174.3)" fill="none" stroke="#a668c4" stroke-miterlimit="10" stroke-width="3"/>
        <path id="Trazado_226533-2" data-name="Trazado 226533" d="M-524.349,195.923l8.685,8.559-8.685,8.559" transform="translate(543.349 -148.3)" fill="none" stroke="#a668c4" stroke-miterlimit="10" stroke-width="3"/>
        <path id="Trazado_226534-2" data-name="Trazado 226534" d="M-524.349,195.923l8.685,8.559-8.685,8.559" transform="translate(543.349 -125.3)" fill="none" stroke="#a668c4" stroke-miterlimit="10" stroke-width="3"/>
        <path id="Trazado_226543-2" data-name="Trazado 226543" d="M-524.349,195.923l8.685,8.559-8.685,8.559" transform="translate(543.349 -97.3)" fill="none" stroke="#a668c4" stroke-miterlimit="10" stroke-width="3"/>
        <path id="Trazado_226544-2" data-name="Trazado 226544" d="M-524.349,195.923l8.685,8.559-8.685,8.559" transform="translate(543.349 -71.3)" fill="none" stroke="#a668c4" stroke-miterlimit="10" stroke-width="3"/>
        <path id="Trazado_226545-2" data-name="Trazado 226545" d="M-524.349,195.923l8.685,8.559-8.685,8.559" transform="translate(543.349 -46.3)" fill="none" stroke="#a668c4" stroke-miterlimit="10" stroke-width="3"/>
        <path id="Trazado_226546-2" data-name="Trazado 226546" d="M-524.349,195.923l8.685,8.559-8.685,8.559" transform="translate(543.349 -20.3)" fill="none" stroke="#a668c4" stroke-miterlimit="10" stroke-width="3"/>
      </g>
      <path id="Trazado_226554-2" data-name="Trazado 226554" d="M-14188.333-9712.5h85.93" transform="translate(15278.57 10716.521)" fill="none" stroke="#707070" stroke-width="3"/>
      <g id="Rectángulo_44867-2" data-name="Rectángulo 44867" transform="translate(978.636 955.521)" fill="#ebe4f8" stroke="#5c22c3" stroke-width="3">
        <rect width="185.8" height="95.315" rx="47.658" stroke="none"/>
        <rect x="1.5" y="1.5" width="182.8" height="92.315" rx="46.158" fill="none"/>
      </g>
      <text id="Comunicación_asertiva" data-name="Comunicación asertiva" transform="translate(1000.636 978.521)" fill="#12263f" font-size="20" font-family="Roboto-Black, Roboto" font-weight="800"><tspan x="-64.521" y="21">Comunicación </tspan><tspan x="-36.489" y="48">asertiva</tspan></text>
      <path id="Trazado_226555-2" data-name="Trazado 226555" d="M-14188.333-9712.5h85.93" transform="translate(15278.57 10938.521)" fill="none" stroke="#707070" stroke-width="3"/>
      <path id="Trazado_226560-2" data-name="Trazado 226560" d="M-14188.333-9712.5h85.93" transform="translate(15152.621 10938.521)" fill="none" stroke="#707070" stroke-width="3"/>
      <g id="Rectángulo_44868-2" data-name="Rectángulo 44868" transform="translate(978.636 1178.52)" fill="#ebe4f8" stroke="#5c22c3" stroke-width="3">
        <rect width="185.8" height="95.315" rx="47.658" stroke="none"/>
        <rect x="1.5" y="1.5" width="182.8" height="92.315" rx="46.158" fill="none"/>
      </g>
      <text id="Verificación_y_supervisión" data-name="Verificación y supervisión" transform="translate(987.636 1200.521)" fill="#12263f" font-size="20" font-family="Roboto-Black, Roboto" font-weight="800"><tspan x="-62.319" y="21">Verificación y </tspan><tspan x="-52.754" y="48">supervisión</tspan></text>
      <g id="Grupo_160525" data-name="Grupo 160525" transform="translate(0 -105.479)">
        <rect id="Rectángulo_44864-2" data-name="Rectángulo 44864" width="234.83" height="161" rx="26.65" transform="translate(1176.17 1250.999)" fill="#ebe4f8"/>
        <text id="Tiempo_Cambios_de_clasificación_Verificación_Ajustes_investigativos_Cambio_en_el_registro" data-name="Tiempo
Cambios de clasificación
Verificación
Ajustes investigativos
Cambio en el registro" transform="translate(1213.636 1271.172)" fill="#12263f" font-size="16" font-family="Roboto-Regular, Roboto"><tspan x="0" y="17">Tiempo</tspan><tspan x="0" y="43">Cambios de clasificación</tspan><tspan x="0" y="69">Verificación</tspan><tspan x="0" y="95">Ajustes investigativos</tspan><tspan x="0" y="121">Cambio en el registro</tspan></text>
        <path id="Trazado_226538-2" data-name="Trazado 226538" d="M-524.349,195.923l8.685,8.559-8.685,8.559" transform="translate(1719.519 1078.188)" fill="none" stroke="#a668c4" stroke-miterlimit="10" stroke-width="3"/>
        <path id="Trazado_226539-2" data-name="Trazado 226539" d="M-524.349,195.923l8.685,8.559-8.685,8.559" transform="translate(1719.519 1104.188)" fill="none" stroke="#a668c4" stroke-miterlimit="10" stroke-width="3"/>
        <path id="Trazado_226540-2" data-name="Trazado 226540" d="M-524.349,195.923l8.685,8.559-8.685,8.559" transform="translate(1719.519 1127.188)" fill="none" stroke="#a668c4" stroke-miterlimit="10" stroke-width="3"/>
        <path id="Trazado_226550-2" data-name="Trazado 226550" d="M-524.349,195.923l8.685,8.559-8.685,8.559" transform="translate(1719.519 1156.188)" fill="none" stroke="#a668c4" stroke-miterlimit="10" stroke-width="3"/>
        <path id="Trazado_226551-2" data-name="Trazado 226551" d="M-524.349,195.923l8.685,8.559-8.685,8.559" transform="translate(1719.519 1180.188)" fill="none" stroke="#a668c4" stroke-miterlimit="10" stroke-width="3"/>
      </g>
      <g id="Grupo_160526" data-name="Grupo 160526" transform="translate(0 -100.479)">
        <rect id="Rectángulo_44863-2" data-name="Rectángulo 44863" width="234.83" height="263.999" rx="26.65" transform="translate(1176.17 972)" fill="#ebe4f8"/>
        <text id="Validar_acciones_Proteger_información_Recuperar_información_Almacenamiento_central_Seguridad_Manejo_de_varios_formatos_Proceso_de_búsqueda_Accesibilidad" data-name="Validar acciones
Proteger información
Recuperar información
Almacenamiento central
Seguridad
Manejo de varios formatos
Proceso de búsqueda
Accesibilidad" transform="translate(1213.636 991.586)" fill="#12263f" font-size="16" font-family="Roboto-Regular, Roboto"><tspan x="0" y="17">Validar acciones</tspan><tspan x="0" y="43">Proteger información</tspan><tspan x="0" y="69">Recuperar información</tspan><tspan x="0" y="95">Almacenamiento central</tspan><tspan x="0" y="121">Seguridad</tspan><tspan x="0" y="147">Manejo de varios </tspan><tspan x="0" y="173">formatos</tspan><tspan x="0" y="199">Proceso de búsqueda</tspan><tspan x="0" y="225">Accesibilidad</tspan></text>
        <path id="Trazado_226535-2" data-name="Trazado 226535" d="M-524.349,195.923l8.685,8.559-8.685,8.559" transform="translate(1719.519 797.016)" fill="none" stroke="#a668c4" stroke-miterlimit="10" stroke-width="3"/>
        <path id="Trazado_226536-2" data-name="Trazado 226536" d="M-524.349,195.923l8.685,8.559-8.685,8.559" transform="translate(1719.519 927.016)" fill="none" stroke="#a668c4" stroke-miterlimit="10" stroke-width="3"/>
        <path id="Trazado_226537-2" data-name="Trazado 226537" d="M-524.349,195.923l8.685,8.559-8.685,8.559" transform="translate(1719.519 823.016)" fill="none" stroke="#a668c4" stroke-miterlimit="10" stroke-width="3"/>
        <path id="Trazado_226547-2" data-name="Trazado 226547" d="M-524.349,195.923l8.685,8.559-8.685,8.559" transform="translate(1719.519 850.016)" fill="none" stroke="#a668c4" stroke-miterlimit="10" stroke-width="3"/>
        <path id="Trazado_226548-2" data-name="Trazado 226548" d="M-524.349,195.923l8.685,8.559-8.685,8.559" transform="translate(1719.519 876.016)" fill="none" stroke="#a668c4" stroke-miterlimit="10" stroke-width="3"/>
        <path id="Trazado_226549-2" data-name="Trazado 226549" d="M-524.349,195.923l8.685,8.559-8.685,8.559" transform="translate(1719.519 899.016)" fill="none" stroke="#a668c4" stroke-miterlimit="10" stroke-width="3"/>
        <path id="Trazado_226566" data-name="Trazado 226566" d="M-524.349,195.923l8.685,8.559-8.685,8.559" transform="translate(1719.519 978.016)" fill="none" stroke="#a668c4" stroke-miterlimit="10" stroke-width="3"/>
        <path id="Trazado_226567" data-name="Trazado 226567" d="M-524.349,195.923l8.685,8.559-8.685,8.559" transform="translate(1719.519 1005.016)" fill="none" stroke="#a668c4" stroke-miterlimit="10" stroke-width="3"/>
      </g>
    </g>
  </g>
</svg>
