<svg xmlns="http://www.w3.org/2000/svg" width="96.968" height="124.727" viewBox="0 0 96.968 124.727">
  <g id="Grupo_187000" data-name="Grupo 187000" transform="translate(-1131.228 -189.34)">
    <g id="Grupo_186495" data-name="Grupo 186495" transform="translate(11972 12117.029)">
      <g id="Grupo_186304" data-name="Grupo 186304" transform="translate(-10837.363 -11864.603)">
        <g id="Grupo_186301" data-name="Grupo 186301">
          <g id="Grupo_186299" data-name="Grupo 186299" transform="translate(0.752 0.753)">
            <rect id="Rectángulo_45067" data-name="Rectángulo 45067" width="70.198" height="51.053" rx="14.943" transform="translate(0 0.147) rotate(-0.12)" fill="#64b5f6"/>
          </g>
          <g id="Grupo_186300" data-name="Grupo 186300">
            <path id="Trazado_245061" data-name="Trazado 245061" d="M170.252,363.212a8.437,8.437,0,0,1-8.427-8.409l-.074-35.737a8.437,8.437,0,0,1,8.409-8.445l54.882-.115h.017a8.436,8.436,0,0,1,8.427,8.409l.075,35.738a8.449,8.449,0,0,1-8.409,8.444h0l-54.882.115Zm54.9-.884h0Zm-.092-50.285h-.014l-54.882.115a6.9,6.9,0,0,0-6.875,6.9l.074,35.737a6.9,6.9,0,0,0,6.889,6.875h.015l54.882-.115a6.912,6.912,0,0,0,6.875-6.9l-.075-35.737A6.9,6.9,0,0,0,225.059,312.043Z" transform="translate(-161.751 -310.506)" fill="#233863"/>
          </g>
        </g>
        <g id="Grupo_186303" data-name="Grupo 186303" transform="translate(0.752 0.753)" opacity="0.24">
          <g id="Grupo_186302" data-name="Grupo 186302" transform="translate(0 0)">
            <rect id="Rectángulo_45068" data-name="Rectángulo 45068" width="70.198" height="51.053" rx="14.943" transform="translate(0 0.147) rotate(-0.12)" fill="#233863"/>
          </g>
        </g>
      </g>
      <g id="Grupo_186314" data-name="Grupo 186314" transform="translate(-10840.772 -11927.689)">
        <g id="Grupo_186306" data-name="Grupo 186306" transform="translate(38.586 49.15)">
          <g id="Grupo_186305" data-name="Grupo 186305">
            <rect id="Rectángulo_45069" data-name="Rectángulo 45069" width="34.789" height="46.637" rx="1.277" transform="translate(32.773 0.497) rotate(43.793)" fill="#fff"/>
            <path id="Trazado_245062" data-name="Trazado 245062" d="M255.979,342.048a1.413,1.413,0,0,1-.984-.4h0l-24.167-23.169a1.424,1.424,0,0,1-.042-2.013l31.369-32.72a1.425,1.425,0,0,1,2.013-.042l24.167,23.169a1.425,1.425,0,0,1,.042,2.013L257.007,341.61a1.414,1.414,0,0,1-1,.438Zm.08-1.506h0Zm-24.085-23.09,24,23.012,31.212-32.555-24-23.012Z" transform="translate(-230.389 -283.313)" fill="#233863"/>
          </g>
          <path id="Trazado_245063" data-name="Trazado 245063" d="M319.35,322.559a.513.513,0,0,1-.355-.142l-9.1-8.723a.513.513,0,0,1,.71-.74l9.1,8.723a.513.513,0,0,1-.355.883Z" transform="translate(-269.073 -297.693)" fill="#ba68c8"/>
          <path id="Trazado_245064" data-name="Trazado 245064" d="M301.772,325.977a.513.513,0,0,1-.355-.142l-18.2-17.446a.513.513,0,0,1,.71-.74l18.2,17.446a.513.513,0,0,1-.355.883Z" transform="translate(-256.068 -295.107)" fill="#233863"/>
          <path id="Trazado_245065" data-name="Trazado 245065" d="M290.2,338.049a.513.513,0,0,1-.355-.142l-18.2-17.446a.513.513,0,0,1,.71-.74l18.2,17.446a.513.513,0,0,1-.355.883Z" transform="translate(-250.425 -300.992)" fill="#233863"/>
          <path id="Trazado_245066" data-name="Trazado 245066" d="M279.3,349.411a.51.51,0,0,1-.355-.143l-18.2-17.446a.513.513,0,1,1,.71-.74l18.2,17.446a.512.512,0,0,1-.355.882Z" transform="translate(-245.114 -306.531)" fill="#233863"/>
          <path id="Trazado_245067" data-name="Trazado 245067" d="M267.73,361.484a.511.511,0,0,1-.355-.143l-18.2-17.446a.513.513,0,0,1,.71-.74l18.2,17.446a.513.513,0,0,1-.355.883Z" transform="translate(-239.472 -312.417)" fill="#233863"/>
        </g>
        <g id="Grupo_186309" data-name="Grupo 186309" transform="translate(0 33.406)">
          <g id="Grupo_186307" data-name="Grupo 186307">
            <rect id="Rectángulo_45070" data-name="Rectángulo 45070" width="34.789" height="46.637" rx="1.277" transform="translate(0.571 13.726) rotate(-22.221)" fill="#fff"/>
            <path id="Trazado_245068" data-name="Trazado 245068" d="M173.666,310.063a1.427,1.427,0,0,1-1.318-.886l-17.142-41.962a1.422,1.422,0,0,1,.779-1.856L186.978,252.7a1.425,1.425,0,0,1,1.856.779l17.142,41.962a1.426,1.426,0,0,1-.779,1.856h0L174.2,309.956A1.415,1.415,0,0,1,173.666,310.063Zm-16.993-43.323,17.056,41.75,30.782-12.575-17.057-41.75Zm48.234,29.844h0Zm-.291-.711h0Z" transform="translate(-155.099 -252.593)" fill="#233863"/>
          </g>
          <path id="Trazado_245069" data-name="Trazado 245069" d="M208.815,282.208a.513.513,0,0,1-.194-.987l5.329-2.178a.513.513,0,0,1,.387.949l-5.329,2.178A.516.516,0,0,1,208.815,282.208Z" transform="translate(-181.036 -265.469)" fill="#233863"/>
          <path id="Trazado_245070" data-name="Trazado 245070" d="M180,305.047a.513.513,0,0,1-.194-.987l23.336-9.533a.512.512,0,1,1,.387.949L180.2,305.009A.516.516,0,0,1,180,305.047Z" transform="translate(-166.99 -273.017)" fill="#233863"/>
          <path id="Trazado_245071" data-name="Trazado 245071" d="M211.743,309.836a.513.513,0,0,1-.194-.987l9.276-3.789a.512.512,0,1,1,.387.949l-9.276,3.789A.507.507,0,0,1,211.743,309.836Z" transform="translate(-182.463 -278.152)" fill="#ba68c8"/>
          <path id="Trazado_245072" data-name="Trazado 245072" d="M184.306,322.443a.513.513,0,0,1-.194-.987l5.678-2.32a.512.512,0,1,1,.387.949l-5.678,2.32A.5.5,0,0,1,184.306,322.443Z" transform="translate(-169.088 -285.014)" fill="#ba68c8"/>
          <path id="Trazado_245073" data-name="Trazado 245073" d="M187.88,331.346a.513.513,0,0,1-.194-.987l14.374-5.872a.513.513,0,0,1,.387.949l-14.374,5.872A.5.5,0,0,1,187.88,331.346Z" transform="translate(-170.83 -287.623)" fill="#233863"/>
          <g id="Grupo_186308" data-name="Grupo 186308" transform="translate(5.06 4.852)">
            <rect id="Rectángulo_45071" data-name="Rectángulo 45071" width="15.56" height="16.543" rx="2.004" transform="matrix(0.918, -0.398, 0.398, 0.918, 0.19, 6.375)" fill="#ba68c8"/>
            <path id="Trazado_245074" data-name="Trazado 245074" d="M172.274,283.8a1.544,1.544,0,0,1-1.413-.928L165.1,269.58a1.54,1.54,0,0,1,.8-2.025l12.393-5.369a1.541,1.541,0,0,1,2.025.8l5.76,13.295a1.54,1.54,0,0,1-.8,2.024h0l-12.393,5.369A1.535,1.535,0,0,1,172.274,283.8Zm6.631-20.718a.514.514,0,0,0-.2.042L166.309,268.5a.515.515,0,0,0-.268.677l5.76,13.294a.515.515,0,0,0,.676.268l12.393-5.369a.515.515,0,0,0,.268-.677l-5.76-13.294A.515.515,0,0,0,178.905,263.085Zm6.169,14.751h0Z" transform="translate(-164.973 -262.059)" fill="#233863"/>
          </g>
          <path id="Trazado_245075" data-name="Trazado 245075" d="M175.708,273.276a1.215,1.215,0,0,1-1.113-.731l-.675-1.559a.257.257,0,0,1,.47-.2l.675,1.559a.7.7,0,0,0,.919.364l.114-.049a.542.542,0,0,0,.281-.711L174.671,268a.56.56,0,0,0-.734-.291l-.194.085a.594.594,0,0,0-.309.781l.042.1a.256.256,0,0,1-.469.206l-.043-.1a1.107,1.107,0,0,1,.575-1.455l.194-.085a1.075,1.075,0,0,1,1.408.557l1.71,3.946a1.056,1.056,0,0,1-.548,1.385l-.114.049A1.2,1.2,0,0,1,175.708,273.276Z" transform="translate(-163.764 -259.69)" fill="#233863"/>
          <path id="Trazado_245076" data-name="Trazado 245076" d="M190.816,267.429a1.088,1.088,0,1,1-1.54-.015A1.089,1.089,0,0,1,190.816,267.429Z" transform="translate(-171.602 -259.666)" fill="#fff"/>
        </g>
        <g id="Grupo_186311" data-name="Grupo 186311" transform="translate(28.89)">
          <g id="Grupo_186310" data-name="Grupo 186310">
            <rect id="Rectángulo_45072" data-name="Rectángulo 45072" width="34.789" height="46.637" rx="1.277" transform="translate(0.565 14.16) rotate(-23.003)" fill="#fff"/>
            <path id="Trazado_245077" data-name="Trazado 245077" d="M230.607,245.064a1.426,1.426,0,0,1-1.31-.868l-17.713-41.724a1.425,1.425,0,0,1,.754-1.866l30.818-13.083a1.423,1.423,0,0,1,1.866.755L262.735,230a1.422,1.422,0,0,1-.754,1.866L231.164,244.95A1.423,1.423,0,0,1,230.607,245.064Zm-17.563-43.087,17.624,41.514L261.275,230.5l-17.624-41.513Z" transform="translate(-211.471 -187.409)" fill="#233863"/>
          </g>
          <path id="Trazado_245078" data-name="Trazado 245078" d="M265.237,217.08a.513.513,0,0,1-.2-.985l5.3-2.25a.512.512,0,0,1,.4.943l-5.3,2.25A.511.511,0,0,1,265.237,217.08Z" transform="translate(-237.432 -200.277)" fill="#233863"/>
          <path id="Trazado_245079" data-name="Trazado 245079" d="M236.834,240.075a.512.512,0,0,1-.2-.984l23.2-9.852a.512.512,0,1,1,.4.943l-23.2,9.851A.512.512,0,0,1,236.834,240.075Z" transform="translate(-223.586 -207.782)" fill="#233863"/>
          <path id="Trazado_245080" data-name="Trazado 245080" d="M268.562,244.614a.513.513,0,0,1-.2-.985l9.223-3.916a.513.513,0,1,1,.4.944l-9.224,3.916A.507.507,0,0,1,268.562,244.614Z" transform="translate(-239.053 -212.888)" fill="#ba68c8"/>
          <path id="Trazado_245081" data-name="Trazado 245081" d="M241.281,257.64a.513.513,0,0,1-.2-.985l5.646-2.4a.513.513,0,0,1,.4.944l-5.646,2.4A.511.511,0,0,1,241.281,257.64Z" transform="translate(-225.753 -219.979)" fill="#ba68c8"/>
          <path id="Trazado_245082" data-name="Trazado 245082" d="M245.022,266.381a.513.513,0,0,1-.2-.984l14.293-6.068a.513.513,0,0,1,.4.944l-14.293,6.068A.509.509,0,0,1,245.022,266.381Z" transform="translate(-227.577 -222.45)" fill="#233863"/>
        </g>
        <g id="Grupo_186313" data-name="Grupo 186313" transform="translate(28.92 36.341)">
          <g id="Grupo_186312" data-name="Grupo 186312">
            <rect id="Rectángulo_45073" data-name="Rectángulo 45073" width="34.789" height="46.637" rx="1.277" transform="matrix(0.989, 0.15, -0.15, 0.989, 8.363, 0.678)" fill="#fef536"/>
            <path id="Trazado_245083" data-name="Trazado 245083" d="M246.057,311a1.471,1.471,0,0,1-.216-.016h0l-33.1-5.022a1.423,1.423,0,0,1-1.194-1.622l6.8-44.814a1.424,1.424,0,0,1,1.621-1.194l33.1,5.022a1.425,1.425,0,0,1,1.194,1.621l-6.8,44.815a1.424,1.424,0,0,1-1.4,1.21Zm-32.973-6.541,32.875,4.988,6.765-44.59-32.875-4.988Z" transform="translate(-211.53 -258.319)" fill="#233863"/>
          </g>
          <path id="Trazado_245084" data-name="Trazado 245084" d="M241.969,273.531a.493.493,0,0,1-.077-.006l-6.354-.964a.512.512,0,1,1,.154-1.013l6.354.964a.512.512,0,0,1-.076,1.019Z" transform="translate(-223.021 -264.765)" fill="#fff"/>
          <path id="Trazado_245085" data-name="Trazado 245085" d="M273.259,291.711a.579.579,0,0,1-.078-.006l-7.3-1.108a.512.512,0,1,1,.154-1.013l7.3,1.107a.512.512,0,0,1-.076,1.019Z" transform="translate(-237.816 -273.559)" fill="#233863"/>
          <path id="Trazado_245086" data-name="Trazado 245086" d="M244.029,287.277a.5.5,0,0,1-.077-.006l-12.462-1.891a.512.512,0,0,1,.154-1.013l12.462,1.891a.512.512,0,0,1-.077,1.019Z" transform="translate(-221.048 -271.015)" fill="#fff"/>
          <path id="Trazado_245087" data-name="Trazado 245087" d="M243.257,304.076a.5.5,0,0,1-.077-.006l-14.2-2.154a.512.512,0,0,1,.154-1.013l14.2,2.154a.513.513,0,0,1-.076,1.019Z" transform="translate(-219.825 -279.076)" fill="#233863"/>
          <path id="Trazado_245088" data-name="Trazado 245088" d="M251.621,321.265a.5.5,0,0,1-.077-.006l-24.924-3.781a.512.512,0,1,1,.154-1.013l24.924,3.781a.512.512,0,0,1-.077,1.019Z" transform="translate(-218.674 -286.663)" fill="#fff"/>
          <path id="Trazado_245089" data-name="Trazado 245089" d="M238.2,336.146a.505.505,0,0,1-.077-.006l-14.016-2.126a.512.512,0,1,1,.154-1.013l14.016,2.126a.513.513,0,0,1-.077,1.019Z" transform="translate(-217.451 -294.724)" fill="#fff"/>
        </g>
      </g>
      <g id="Grupo_186330" data-name="Grupo 186330" transform="translate(-10837.369 -11867.799)">
        <g id="Grupo_186317" data-name="Grupo 186317" transform="translate(0.257 9.83)">
          <g id="Grupo_186315" data-name="Grupo 186315" transform="translate(0.512 0.512)">
            <path id="Trazado_245090" data-name="Trazado 245090" d="M227.905,375.5l-58.937.124a5.648,5.648,0,0,1-5.643-5.619l-.084-39.791a5.648,5.648,0,0,1,5.619-5.643l58.936-.124a5.648,5.648,0,0,1,5.643,5.619l.084,39.792A5.648,5.648,0,0,1,227.905,375.5Z" transform="translate(-163.242 -324.45)" fill="#fff"/>
          </g>
          <g id="Grupo_186316" data-name="Grupo 186316">
            <path id="Trazado_245091" data-name="Trazado 245091" d="M168.469,375.652a6.16,6.16,0,0,1-6.143-6.131l-.084-39.792a6.16,6.16,0,0,1,6.13-6.156l58.936-.123h.013a6.15,6.15,0,0,1,6.144,6.13l.084,39.792a6.15,6.15,0,0,1-6.131,6.156v0l-58.936.125Zm58.853-51.177h-.011l-58.936.124a5.136,5.136,0,0,0-5.108,5.129l.084,39.792a5.135,5.135,0,0,0,5.118,5.108h.011l58.936-.124h0a5.124,5.124,0,0,0,5.108-5.129l-.084-39.792A5.125,5.125,0,0,0,227.322,324.475Z" transform="translate(-162.242 -323.45)" fill="#233863"/>
          </g>
        </g>
        <g id="Grupo_186320" data-name="Grupo 186320">
          <g id="Grupo_186318" data-name="Grupo 186318" transform="translate(0.769 0.768)">
            <path id="Trazado_245092" data-name="Trazado 245092" d="M228.385,305.769l-14.865.031a5.026,5.026,0,0,0-5,5.022l.015,7.114-37.652.079a7.68,7.68,0,0,0-7.642,7.674l.075,35.737a7.68,7.68,0,0,0,7.674,7.642l54.882-.115a7.681,7.681,0,0,0,7.642-7.674l-.073-35,0-.732-.031-14.772A5.026,5.026,0,0,0,228.385,305.769Z" transform="translate(-163.24 -305.769)" fill="#64b5f6"/>
          </g>
          <g id="Grupo_186319" data-name="Grupo 186319">
            <path id="Trazado_245093" data-name="Trazado 245093" d="M170.242,369.106a8.436,8.436,0,0,1-8.427-8.409l-.075-35.737a8.437,8.437,0,0,1,8.409-8.444l36.883-.077-.013-6.345a5.8,5.8,0,0,1,5.768-5.792l14.865-.031h.012a5.786,5.786,0,0,1,5.78,5.768l.106,50.509a8.436,8.436,0,0,1-8.409,8.444l-54.883.115Zm57.413-63.3-14.865.031a4.257,4.257,0,0,0-4.234,4.252l.015,7.114a.769.769,0,0,1-.767.77l-37.652.079a6.9,6.9,0,0,0-6.875,6.9l.075,35.737a6.9,6.9,0,0,0,6.889,6.875h.014l54.883-.115a6.9,6.9,0,0,0,6.875-6.9l-.106-50.509a4.247,4.247,0,0,0-4.242-4.233Zm0-.769h0Z" transform="translate(-161.74 -304.27)" fill="#233863"/>
          </g>
        </g>
        <g id="Grupo_186322" data-name="Grupo 186322" transform="translate(7.109 6.468)" opacity="0.12">
          <g id="Grupo_186321" data-name="Grupo 186321">
            <path id="Trazado_245094" data-name="Trazado 245094" d="M233.9,316.891l-13.3.028a4.5,4.5,0,0,0-4.475,4.494l.013,6.366-33.689.071a6.873,6.873,0,0,0-6.838,6.868l.067,31.982a6.873,6.873,0,0,0,6.866,6.839l49.106-.1a6.874,6.874,0,0,0,6.838-6.868l-.066-31.327v-.655l-.028-13.22A4.5,4.5,0,0,0,233.9,316.891Z" transform="translate(-175.611 -316.891)" fill="#fff"/>
          </g>
        </g>
        <g id="Grupo_186323" data-name="Grupo 186323" transform="translate(61.166 54.081)">
          <path id="Trazado_245095" data-name="Trazado 245095" d="M286.094,412.3a2.5,2.5,0,1,1-2.5-2.5A2.5,2.5,0,0,1,286.094,412.3Z" transform="translate(-281.089 -409.794)" fill="#fff"/>
        </g>
        <g id="Grupo_186324" data-name="Grupo 186324" transform="translate(59.671 3.858)">
          <path id="Trazado_245096" data-name="Trazado 245096" d="M286.421,322.221a.512.512,0,0,1-.513-.512V314.9a2.175,2.175,0,0,0-2.261-2.073h-4.963a.512.512,0,1,1,0-1.025h4.963a3.2,3.2,0,0,1,3.286,3.1v6.812A.512.512,0,0,1,286.421,322.221Z" transform="translate(-278.172 -311.798)" fill="#fff"/>
        </g>
        <g id="Grupo_186329" data-name="Grupo 186329" transform="translate(23.997 26.376)">
          <g id="Grupo_186327" data-name="Grupo 186327" transform="translate(5.983)">
            <g id="Grupo_186325" data-name="Grupo 186325">
              <path id="Trazado_245097" data-name="Trazado 245097" d="M221.519,363.85a1.281,1.281,0,0,1-.9-2.2l6.022-5.92,5.928,5.928a1.281,1.281,0,1,1-1.812,1.812l-4.131-4.131-4.21,4.139A1.278,1.278,0,0,1,221.519,363.85Z" transform="translate(-220.238 -355.735)" fill="#fff"/>
            </g>
            <g id="Grupo_186326" data-name="Grupo 186326" transform="translate(5.073 0.523)">
              <path id="Trazado_245098" data-name="Trazado 245098" d="M231.418,372.285A1.281,1.281,0,0,1,230.137,371V358.037a1.281,1.281,0,0,1,2.563,0V371A1.281,1.281,0,0,1,231.418,372.285Z" transform="translate(-230.137 -356.756)" fill="#fff"/>
            </g>
          </g>
          <g id="Grupo_186328" data-name="Grupo 186328" transform="translate(0 11.265)">
            <path id="Trazado_245099" data-name="Trazado 245099" d="M230.333,388.66H211.318a2.759,2.759,0,0,1-2.755-2.755V379a1.281,1.281,0,1,1,2.562,0v6.908a.193.193,0,0,0,.193.193h19.015a.342.342,0,0,0,.342-.342V379a1.281,1.281,0,1,1,2.563,0v6.759A2.907,2.907,0,0,1,230.333,388.66Z" transform="translate(-208.563 -377.716)" fill="#fff"/>
          </g>
        </g>
      </g>
    </g>
  </g>
</svg>
