<svg xmlns="http://www.w3.org/2000/svg" width="56.463" height="61.383" viewBox="0 0 56.463 61.383">
  <g id="Grupo_187002" data-name="Grupo 187002" transform="translate(-1272.902 -181.819)">
    <g id="Grupo_186497" data-name="Grupo 186497" transform="translate(11966.538 12114.238)">
      <g id="Grupo_186360" data-name="Grupo 186360" transform="translate(-10690.062 -11926.436)">
        <g id="Grupo_186358" data-name="Grupo 186358">
          <rect id="Rectángulo_45078" data-name="Rectángulo 45078" width="32.519" height="43.595" rx="1.277" transform="matrix(0.811, 0.585, -0.585, 0.811, 25.999, 0.51)" fill="#fff"/>
          <path id="Trazado_245113" data-name="Trazado 245113" d="M475.91,245.254a1.414,1.414,0,0,1-.829-.269h0l-25.319-18.249a1.426,1.426,0,0,1-.322-1.987l24.725-34.3a1.424,1.424,0,0,1,1.987-.323l25.319,18.249a1.426,1.426,0,0,1,.323,1.986l-24.725,34.3a1.415,1.415,0,0,1-.927.572A1.464,1.464,0,0,1,475.91,245.254Zm.069-1.516Zm-25.226-18.182,25.134,18.115,24.591-34.118-25.133-18.116Z" transform="translate(-449.172 -189.855)" fill="#233863"/>
        </g>
        <g id="Grupo_186359" data-name="Grupo 186359">
          <rect id="Rectángulo_45079" data-name="Rectángulo 45079" width="32.519" height="43.595" rx="1.277" transform="matrix(0.811, 0.585, -0.585, 0.811, 25.999, 0.51)" fill="#fef536"/>
          <path id="Trazado_245114" data-name="Trazado 245114" d="M475.91,245.254a1.414,1.414,0,0,1-.829-.269h0l-25.319-18.249a1.426,1.426,0,0,1-.322-1.987l24.725-34.3a1.424,1.424,0,0,1,1.987-.323l25.319,18.249a1.426,1.426,0,0,1,.323,1.986l-24.725,34.3a1.415,1.415,0,0,1-.927.572A1.464,1.464,0,0,1,475.91,245.254Zm.069-1.516Zm-25.226-18.182,25.134,18.115,24.591-34.118-25.133-18.116Z" transform="translate(-449.172 -189.855)" fill="#233863"/>
        </g>
        <path id="Trazado_245115" data-name="Trazado 245115" d="M526.207,238.524a.509.509,0,0,1-.3-.1l-4.366-3.147a.512.512,0,0,1,.6-.831l4.366,3.147a.513.513,0,0,1-.3.928Z" transform="translate(-484.349 -211.547)" fill="#233863"/>
        <path id="Trazado_245116" data-name="Trazado 245116" d="M503.034,241.094a.513.513,0,0,1-.3-.1l-19.117-13.778a.512.512,0,1,1,.6-.831l19.117,13.778a.513.513,0,0,1-.3.929Z" transform="translate(-465.861 -207.617)" fill="#233863"/>
        <path id="Trazado_245117" data-name="Trazado 245117" d="M507.771,257.62a.513.513,0,0,1-.3-.1l-7.6-5.477a.513.513,0,0,1,.6-.832l7.6,5.477a.513.513,0,0,1-.3.929Z" transform="translate(-473.785 -219.721)" fill="#ba68c8"/>
        <path id="Trazado_245118" data-name="Trazado 245118" d="M482.35,239.3a.509.509,0,0,1-.3-.1l-4.651-3.352a.512.512,0,1,1,.6-.831l4.651,3.352a.513.513,0,0,1-.3.928Z" transform="translate(-462.829 -211.824)" fill="#ba68c8"/>
        <path id="Trazado_245119" data-name="Trazado 245119" d="M481.505,253.348a.513.513,0,0,1-.3-.1l-11.775-8.487a.512.512,0,1,1,.6-.831l11.775,8.486a.513.513,0,0,1-.3.929Z" transform="translate(-458.945 -216.17)" fill="#233863"/>
      </g>
      <g id="Grupo_186363" data-name="Grupo 186363" transform="translate(-10693.636 -11932.419)">
        <g id="Grupo_186361" data-name="Grupo 186361">
          <rect id="Rectángulo_45080" data-name="Rectángulo 45080" width="34.789" height="46.637" rx="1.277" transform="translate(17.321 0.577) rotate(21.04)" fill="#fff"/>
          <path id="Trazado_245120" data-name="Trazado 245120" d="M474.866,235.351a1.418,1.418,0,0,1-.509-.094h0l-31.247-12.02a1.425,1.425,0,0,1-.817-1.84l16.273-42.306a1.426,1.426,0,0,1,1.839-.817l31.247,12.02a1.426,1.426,0,0,1,.818,1.839L476.2,234.439A1.427,1.427,0,0,1,474.866,235.351Zm-31.1-13.509L474.8,233.78,491,191.687l-31.035-11.938Z" transform="translate(-442.198 -178.179)" fill="#233863"/>
        </g>
        <g id="Grupo_186362" data-name="Grupo 186362">
          <rect id="Rectángulo_45081" data-name="Rectángulo 45081" width="34.789" height="46.637" rx="1.277" transform="translate(17.321 0.577) rotate(21.04)" fill="#fff"/>
          <path id="Trazado_245121" data-name="Trazado 245121" d="M474.866,235.351a1.418,1.418,0,0,1-.509-.094h0l-31.247-12.02a1.425,1.425,0,0,1-.817-1.84l16.273-42.306a1.426,1.426,0,0,1,1.839-.817l31.247,12.02a1.426,1.426,0,0,1,.818,1.839L476.2,234.439A1.427,1.427,0,0,1,474.866,235.351Zm-31.1-13.509L474.8,233.78,491,191.687l-31.035-11.938Z" transform="translate(-442.198 -178.179)" fill="#233863"/>
        </g>
        <path id="Trazado_245122" data-name="Trazado 245122" d="M482.368,207.442a.522.522,0,0,1-.185-.034l-5.373-2.067a.512.512,0,1,1,.368-.956l5.374,2.067a.512.512,0,0,1-.184.991Z" transform="translate(-458.911 -190.937)" fill="#233863"/>
        <path id="Trazado_245123" data-name="Trazado 245123" d="M492.925,230.3a.507.507,0,0,1-.184-.035l-23.529-9.051a.512.512,0,1,1,.369-.956l23.529,9.051a.513.513,0,0,1-.184.991Z" transform="translate(-455.207 -198.676)" fill="#233863"/>
        <path id="Trazado_245124" data-name="Trazado 245124" d="M502.324,246.108a.517.517,0,0,1-.184-.034l-9.352-3.6a.512.512,0,1,1,.368-.956l9.352,3.6a.512.512,0,0,1-.184.991Z" transform="translate(-466.701 -209.041)" fill="#ba68c8"/>
        <path id="Trazado_245125" data-name="Trazado 245125" d="M471.036,234.072a.522.522,0,0,1-.184-.034l-5.724-2.2a.512.512,0,1,1,.368-.956l5.725,2.2a.513.513,0,0,1-.184.991Z" transform="translate(-453.216 -203.853)" fill="#ba68c8"/>
        <path id="Trazado_245126" data-name="Trazado 245126" d="M473.988,248.838a.522.522,0,0,1-.185-.034l-14.492-5.575a.512.512,0,1,1,.369-.956l14.492,5.575a.512.512,0,0,1-.184.991Z" transform="translate(-450.381 -209.408)" fill="#233863"/>
      </g>
    </g>
  </g>
</svg>
