<svg xmlns="http://www.w3.org/2000/svg" width="71.816" height="64.836" viewBox="0 0 71.816 64.836">
  <g id="Grupo_187003" data-name="Grupo 187003" transform="translate(-1290.576 -253.227)">
    <g id="Grupo_186496" data-name="Grupo 186496" transform="translate(1290.576 253.227)">
      <g id="Grupo_186340" data-name="Grupo 186340" transform="translate(0.005 3.196)">
        <g id="Grupo_186334" data-name="Grupo 186334">
          <g id="Grupo_186332" data-name="Grupo 186332" transform="translate(0.753 0.753)">
            <rect id="Rectángulo_45074" data-name="Rectángulo 45074" width="70.198" height="51.053" rx="14.943" transform="translate(0 0.147) rotate(-0.12)" fill="#64b5f6"/>
          </g>
          <g id="Grupo_186333" data-name="Grupo 186333">
            <path id="Trazado_245100" data-name="Trazado 245100" d="M447.218,363.212a8.45,8.45,0,0,1-8.426-8.409l-.075-35.737a8.437,8.437,0,0,1,8.409-8.445l54.883-.115h.017a8.437,8.437,0,0,1,8.427,8.409l.075,35.738a8.436,8.436,0,0,1-8.409,8.444h0l-54.883.115Zm54.9-.884h0Zm-.092-50.285h-.014l-54.883.115a6.9,6.9,0,0,0-6.875,6.9l.075,35.737a6.912,6.912,0,0,0,6.889,6.875h.015l54.883-.115a6.912,6.912,0,0,0,6.875-6.9l-.075-35.737A6.9,6.9,0,0,0,502.026,312.043Z" transform="translate(-438.717 -310.506)" fill="#233863"/>
          </g>
        </g>
        <g id="Grupo_186337" data-name="Grupo 186337">
          <g id="Grupo_186335" data-name="Grupo 186335" transform="translate(0.753 0.753)">
            <rect id="Rectángulo_45075" data-name="Rectángulo 45075" width="70.198" height="51.053" rx="14.943" transform="translate(0 0.147) rotate(-0.12)" fill="#ba68c8"/>
          </g>
          <g id="Grupo_186336" data-name="Grupo 186336">
            <path id="Trazado_245101" data-name="Trazado 245101" d="M447.218,363.212a8.45,8.45,0,0,1-8.426-8.409l-.075-35.737a8.437,8.437,0,0,1,8.409-8.445l54.883-.115h.017a8.437,8.437,0,0,1,8.427,8.409l.075,35.738a8.436,8.436,0,0,1-8.409,8.444h0l-54.883.115Zm54.9-.884h0Zm-.092-50.285h-.014l-54.883.115a6.9,6.9,0,0,0-6.875,6.9l.075,35.737a6.912,6.912,0,0,0,6.889,6.875h.015l54.883-.115a6.912,6.912,0,0,0,6.875-6.9l-.075-35.737A6.9,6.9,0,0,0,502.026,312.043Z" transform="translate(-438.717 -310.506)" fill="#233863"/>
          </g>
        </g>
        <g id="Grupo_186339" data-name="Grupo 186339" transform="translate(0.753 0.753)" opacity="0.24">
          <g id="Grupo_186338" data-name="Grupo 186338" transform="translate(0 0)">
            <rect id="Rectángulo_45076" data-name="Rectángulo 45076" width="70.198" height="51.053" rx="14.943" transform="translate(0 0.147) rotate(-0.12)" fill="#233863"/>
          </g>
        </g>
      </g>
      <g id="Grupo_186343" data-name="Grupo 186343" transform="translate(0.257 6.639)">
        <g id="Grupo_186341" data-name="Grupo 186341">
          <rect id="Rectángulo_45077" data-name="Rectángulo 45077" width="70.198" height="51.053" rx="10.987" transform="translate(0.501 0.648) rotate(-0.12)" fill="#fff"/>
          <path id="Trazado_245102" data-name="Trazado 245102" d="M445.435,369.426a6.15,6.15,0,0,1-6.143-6.13l-.084-39.791a6.15,6.15,0,0,1,6.13-6.157l58.937-.124h.013a6.15,6.15,0,0,1,6.143,6.13l.083,39.792a6.151,6.151,0,0,1-6.13,6.157l-58.936.124Zm58.948-1.148v0a5.124,5.124,0,0,0,5.108-5.13l-.083-39.791a5.125,5.125,0,0,0-5.118-5.108h-.011l-58.936.124a5.124,5.124,0,0,0-5.107,5.13l.083,39.791a5.125,5.125,0,0,0,5.118,5.108h.011Z" transform="translate(-439.209 -317.224)" fill="#233863"/>
        </g>
        <g id="Grupo_186342" data-name="Grupo 186342" transform="translate(0 3.191)">
          <path id="Trazado_245103" data-name="Trazado 245103" d="M504.872,375.5l-58.936.124a5.647,5.647,0,0,1-5.643-5.619l-.084-39.791a5.648,5.648,0,0,1,5.619-5.643l58.937-.124a5.647,5.647,0,0,1,5.643,5.619l.083,39.792A5.647,5.647,0,0,1,504.872,375.5Z" transform="translate(-439.697 -323.937)" fill="#fff"/>
          <path id="Trazado_245104" data-name="Trazado 245104" d="M445.435,375.652a6.151,6.151,0,0,1-6.143-6.131l-.084-39.792a6.16,6.16,0,0,1,6.13-6.156l58.937-.123h.013a6.15,6.15,0,0,1,6.143,6.13l.083,39.792a6.15,6.15,0,0,1-6.13,6.156v0l-58.936.125Zm58.854-51.177h-.011l-58.936.124a5.136,5.136,0,0,0-5.107,5.129l.083,39.792a5.125,5.125,0,0,0,5.118,5.108h.011l58.936-.124h0a5.124,5.124,0,0,0,5.108-5.129l-.083-39.792A5.125,5.125,0,0,0,504.289,324.475Z" transform="translate(-439.209 -323.45)" fill="#233863"/>
        </g>
      </g>
      <g id="Grupo_186356" data-name="Grupo 186356" transform="translate(0 0)">
        <g id="Grupo_186346" data-name="Grupo 186346">
          <g id="Grupo_186344" data-name="Grupo 186344" transform="translate(0.769 0.768)">
            <path id="Trazado_245105" data-name="Trazado 245105" d="M505.352,305.769l-14.865.031a5.026,5.026,0,0,0-5,5.022l.015,7.114-37.651.079a7.68,7.68,0,0,0-7.642,7.674l.075,35.737a7.681,7.681,0,0,0,7.674,7.642l54.882-.115a7.68,7.68,0,0,0,7.642-7.674l-.073-35,0-.732-.031-14.772A5.027,5.027,0,0,0,505.352,305.769Z" transform="translate(-440.207 -305.769)" fill="#ba68c8"/>
          </g>
          <g id="Grupo_186345" data-name="Grupo 186345">
            <path id="Trazado_245106" data-name="Trazado 245106" d="M447.209,369.106a8.435,8.435,0,0,1-8.427-8.409l-.075-35.737a8.437,8.437,0,0,1,8.409-8.444L484,316.438l-.013-6.345a5.8,5.8,0,0,1,5.768-5.792l14.865-.031h.013a5.795,5.795,0,0,1,5.779,5.768l.106,50.509a8.449,8.449,0,0,1-8.409,8.444l-54.882.115Zm57.413-63.3-14.865.031a4.256,4.256,0,0,0-4.233,4.252l.014,7.114a.769.769,0,0,1-.767.77l-37.652.079a6.9,6.9,0,0,0-6.875,6.9l.075,35.737a6.9,6.9,0,0,0,6.889,6.875h.014l54.882-.115a6.911,6.911,0,0,0,6.875-6.9l-.106-50.509a4.256,4.256,0,0,0-4.242-4.233Zm0-.769h0Z" transform="translate(-438.707 -304.27)" fill="#233863"/>
          </g>
        </g>
        <g id="Grupo_186348" data-name="Grupo 186348" transform="translate(6.964 6.468)" opacity="0.12">
          <g id="Grupo_186347" data-name="Grupo 186347">
            <path id="Trazado_245107" data-name="Trazado 245107" d="M510.585,316.891l-13.3.028a4.5,4.5,0,0,0-4.475,4.494l.013,6.366-33.689.071a6.873,6.873,0,0,0-6.838,6.868l.067,31.982a6.874,6.874,0,0,0,6.866,6.839l49.106-.1a6.873,6.873,0,0,0,6.838-6.868l-.066-31.327,0-.655-.028-13.22A4.5,4.5,0,0,0,510.585,316.891Z" transform="translate(-452.296 -316.891)" fill="#fff"/>
          </g>
        </g>
        <g id="Grupo_186349" data-name="Grupo 186349" transform="translate(61.021 54.081)">
          <path id="Trazado_245108" data-name="Trazado 245108" d="M562.779,412.3a2.5,2.5,0,1,1-2.5-2.5A2.5,2.5,0,0,1,562.779,412.3Z" transform="translate(-557.774 -409.794)" fill="#fff"/>
        </g>
        <g id="Grupo_186350" data-name="Grupo 186350" transform="translate(59.526 3.858)">
          <path id="Trazado_245109" data-name="Trazado 245109" d="M563.105,322.221a.512.512,0,0,1-.512-.512V314.9a2.175,2.175,0,0,0-2.26-2.073h-4.964a.512.512,0,0,1,0-1.025h4.964a3.2,3.2,0,0,1,3.285,3.1v6.812A.512.512,0,0,1,563.105,322.221Z" transform="translate(-554.856 -311.798)" fill="#fff"/>
        </g>
        <g id="Grupo_186355" data-name="Grupo 186355" transform="translate(25.595 26.899)">
          <g id="Grupo_186353" data-name="Grupo 186353" transform="translate(5.984)">
            <g id="Grupo_186351" data-name="Grupo 186351" transform="translate(0 7.937)">
              <path id="Trazado_245110" data-name="Trazado 245110" d="M506.626,380.358,500.7,374.43a1.281,1.281,0,0,1,1.812-1.812l4.131,4.131,4.21-4.139a1.281,1.281,0,0,1,1.8,1.828Z" transform="translate(-500.323 -372.243)" fill="#fff"/>
            </g>
            <g id="Grupo_186352" data-name="Grupo 186352" transform="translate(5.073)">
              <path id="Trazado_245111" data-name="Trazado 245111" d="M511.5,372.285A1.281,1.281,0,0,1,510.221,371V358.037a1.281,1.281,0,0,1,2.562,0V371A1.281,1.281,0,0,1,511.5,372.285Z" transform="translate(-510.221 -356.756)" fill="#fff"/>
            </g>
          </g>
          <g id="Grupo_186354" data-name="Grupo 186354" transform="translate(0 10.742)">
            <path id="Trazado_245112" data-name="Trazado 245112" d="M510.418,388.66H491.4a2.759,2.759,0,0,1-2.755-2.755V379a1.281,1.281,0,1,1,2.563,0v6.908a.193.193,0,0,0,.193.193h19.015a.342.342,0,0,0,.342-.342V379a1.281,1.281,0,1,1,2.563,0v6.759A2.907,2.907,0,0,1,510.418,388.66Z" transform="translate(-488.648 -377.716)" fill="#fff"/>
          </g>
        </g>
      </g>
    </g>
  </g>
</svg>
