<svg xmlns="http://www.w3.org/2000/svg" width="57.426" height="66.342" viewBox="0 0 57.426 66.342">
  <g id="Grupo_187001" data-name="Grupo 187001" transform="translate(-1215.477 -159.168)">
    <g id="Grupo_186498" data-name="Grupo 186498" transform="translate(11972.721 12119.308)">
      <g id="Grupo_186403" data-name="Grupo 186403" transform="translate(-10757.244 -11960.14)">
        <g id="Grupo_186366" data-name="Grupo 186366">
          <g id="Grupo_186365" data-name="Grupo 186365">
            <g id="Grupo_186364" data-name="Grupo 186364">
              <rect id="Rectángulo_45082" data-name="Rectángulo 45082" width="40.725" height="55.034" rx="1.58" transform="translate(18.334 0.551) rotate(18.852)" fill="#ba68c8"/>
              <path id="Trazado_245127" data-name="Trazado 245127" d="M356.668,190.432a1.571,1.571,0,0,1-.508-.085l-37.007-12.636a1.578,1.578,0,0,1-.984-2l17.259-50.548a1.578,1.578,0,0,1,2-.983l37.006,12.636a1.578,1.578,0,0,1,.984,2l-17.259,50.548A1.583,1.583,0,0,1,356.668,190.432Zm-19.743-64.8a.047.047,0,0,0-.043.027L319.623,176.2a.045.045,0,0,0,.026.052l37.007,12.636h0a.046.046,0,0,0,.051-.026l17.259-50.549a.045.045,0,0,0-.026-.052L336.935,125.63Z" transform="translate(-318.082 -124.089)" fill="#233863"/>
            </g>
          </g>
        </g>
        <g id="Grupo_186402" data-name="Grupo 186402" transform="translate(5.512 3.41)">
          <g id="Grupo_186399" data-name="Grupo 186399">
            <g id="Grupo_186369" data-name="Grupo 186369">
              <g id="Grupo_186367" data-name="Grupo 186367" transform="translate(0.707 0.706)">
                <path id="Rectángulo_45083" data-name="Rectángulo 45083" d="M1.58,0H39.144a1.58,1.58,0,0,1,1.58,1.58V53.453a1.581,1.581,0,0,1-1.581,1.581H1.581A1.581,1.581,0,0,1,0,53.453V1.58A1.58,1.58,0,0,1,1.58,0Z" transform="translate(4.394 0) rotate(4.579)" fill="#fff"/>
              </g>
              <g id="Grupo_186368" data-name="Grupo 186368">
                <path id="Trazado_245128" data-name="Trazado 245128" d="M369.4,190.267c-.043,0-.086,0-.129-.005L330.29,187.14a1.578,1.578,0,0,1-1.447-1.7l4.264-53.243a1.581,1.581,0,0,1,1.7-1.448l38.98,3.122a1.581,1.581,0,0,1,1.447,1.7l-4.264,53.243a1.578,1.578,0,0,1-1.571,1.453Zm-34.718-57.985a.042.042,0,0,0-.042.038l-4.264,53.243a.046.046,0,0,0,.038.045l38.98,3.122h0c.024-.005.043-.018.045-.037l4.264-53.244a.041.041,0,0,0-.038-.045l-38.98-3.122Z" transform="translate(-328.838 -130.744)" fill="#233863"/>
              </g>
            </g>
            <g id="Grupo_186398" data-name="Grupo 186398" transform="translate(5.419 11.049)">
              <g id="Grupo_186372" data-name="Grupo 186372" transform="translate(23.372)">
                <g id="Grupo_186370" data-name="Grupo 186370" transform="translate(0.512 0.513)">
                  <line id="Línea_428" data-name="Línea 428" x2="9.874" y2="0.791" fill="#fff"/>
                </g>
                <g id="Grupo_186371" data-name="Grupo 186371">
                  <path id="Trazado_245129" data-name="Trazado 245129" d="M395.4,154.12l-.042,0-9.874-.791a.512.512,0,0,1-.469-.551.507.507,0,0,1,.552-.47l9.874.791a.512.512,0,0,1-.041,1.023Z" transform="translate(-385.016 -152.304)" fill="#ba68c8"/>
                </g>
              </g>
              <g id="Grupo_186375" data-name="Grupo 186375" transform="translate(23.119 3.154)">
                <g id="Grupo_186373" data-name="Grupo 186373" transform="translate(0.513 0.513)">
                  <line id="Línea_429" data-name="Línea 429" x2="9.874" y2="0.791" fill="#fff"/>
                </g>
                <g id="Grupo_186374" data-name="Grupo 186374">
                  <path id="Trazado_245130" data-name="Trazado 245130" d="M394.91,160.274l-.042,0-9.875-.791a.512.512,0,1,1,.082-1.021l9.874.791a.513.513,0,0,1-.04,1.023Z" transform="translate(-384.522 -158.458)" fill="#ba68c8"/>
                </g>
              </g>
              <g id="Grupo_186378" data-name="Grupo 186378" transform="translate(0 37.072)">
                <g id="Grupo_186376" data-name="Grupo 186376" transform="translate(0.513 0.513)">
                  <line id="Línea_430" data-name="Línea 430" x2="9.874" y2="0.791" fill="#fff"/>
                </g>
                <g id="Grupo_186377" data-name="Grupo 186377">
                  <path id="Trazado_245131" data-name="Trazado 245131" d="M349.8,226.456l-.042,0-9.875-.791a.512.512,0,1,1,.082-1.021l9.875.791a.513.513,0,0,1-.04,1.023Z" transform="translate(-339.412 -224.64)" fill="#ba68c8"/>
                </g>
              </g>
              <g id="Grupo_186397" data-name="Grupo 186397" transform="translate(0.59 14.618)">
                <g id="Grupo_186381" data-name="Grupo 186381" transform="translate(0.938 5.384)">
                  <g id="Grupo_186379" data-name="Grupo 186379" transform="translate(0.512 0.513)">
                    <line id="Línea_431" data-name="Línea 431" x2="8.78" y2="0.703" fill="#fff"/>
                  </g>
                  <g id="Grupo_186380" data-name="Grupo 186380">
                    <path id="Trazado_245132" data-name="Trazado 245132" d="M351.686,193.06l-.041,0-8.779-.7a.512.512,0,1,1,.082-1.021l8.779.7a.513.513,0,0,1-.041,1.023Z" transform="translate(-342.394 -191.331)" fill="#233863"/>
                  </g>
                </g>
                <g id="Grupo_186384" data-name="Grupo 186384" transform="translate(0 17.086)">
                  <g id="Grupo_186382" data-name="Grupo 186382" transform="translate(0.513 0.513)">
                    <line id="Línea_432" data-name="Línea 432" x2="15.099" y2="1.209" fill="#fff"/>
                  </g>
                  <g id="Grupo_186383" data-name="Grupo 186383">
                    <path id="Trazado_245133" data-name="Trazado 245133" d="M356.176,216.4l-.042,0-15.1-1.209a.513.513,0,1,1,.083-1.022l15.1,1.209a.512.512,0,0,1-.041,1.023Z" transform="translate(-340.564 -214.166)" fill="#233863"/>
                  </g>
                </g>
                <g id="Grupo_186387" data-name="Grupo 186387" transform="translate(0.468 11.235)">
                  <g id="Grupo_186385" data-name="Grupo 186385" transform="translate(0.513 0.513)">
                    <line id="Línea_433" data-name="Línea 433" x2="11.43" y2="0.916" fill="#fff"/>
                  </g>
                  <g id="Grupo_186386" data-name="Grupo 186386">
                    <path id="Trazado_245134" data-name="Trazado 245134" d="M353.422,204.69l-.042,0-11.431-.915a.513.513,0,0,1-.47-.552.508.508,0,0,1,.552-.47l11.43.916a.513.513,0,0,1-.04,1.023Z" transform="translate(-341.478 -202.749)" fill="#233863"/>
                  </g>
                </g>
                <g id="Grupo_186390" data-name="Grupo 186390" transform="translate(1.323)">
                  <g id="Grupo_186388" data-name="Grupo 186388" transform="translate(0.513 0.513)">
                    <line id="Línea_434" data-name="Línea 434" x2="29.561" y2="2.368" fill="#fff"/>
                  </g>
                  <g id="Grupo_186389" data-name="Grupo 186389">
                    <path id="Trazado_245135" data-name="Trazado 245135" d="M373.219,184.22l-.041,0-29.561-2.368a.513.513,0,0,1-.47-.551.505.505,0,0,1,.552-.47L373.26,183.2a.513.513,0,0,1-.041,1.023Z" transform="translate(-343.145 -180.826)" fill="#233863"/>
                  </g>
                </g>
                <g id="Grupo_186393" data-name="Grupo 186393" transform="translate(15.545 12.397)">
                  <g id="Grupo_186391" data-name="Grupo 186391" transform="translate(0.513 0.513)">
                    <line id="Línea_435" data-name="Línea 435" x2="14.125" y2="1.131" fill="#fff"/>
                  </g>
                  <g id="Grupo_186392" data-name="Grupo 186392">
                    <path id="Trazado_245136" data-name="Trazado 245136" d="M385.534,207.172l-.042,0-14.125-1.132a.513.513,0,0,1-.47-.552.507.507,0,0,1,.552-.469l14.125,1.132a.512.512,0,0,1-.04,1.023Z" transform="translate(-370.896 -205.015)" fill="#233863"/>
                  </g>
                </g>
                <g id="Grupo_186396" data-name="Grupo 186396" transform="translate(12.995 6.272)">
                  <g id="Grupo_186394" data-name="Grupo 186394" transform="translate(0.512 0.512)">
                    <line id="Línea_436" data-name="Línea 436" x2="18.114" y2="1.529" fill="#fff"/>
                  </g>
                  <g id="Grupo_186395" data-name="Grupo 186395">
                    <path id="Trazado_245137" data-name="Trazado 245137" d="M384.548,195.618l-.044,0-18.115-1.529a.513.513,0,0,1,.086-1.021l18.115,1.529a.513.513,0,0,1-.043,1.023Z" transform="translate(-365.92 -193.064)" fill="#233863"/>
                  </g>
                </g>
              </g>
            </g>
          </g>
          <g id="Grupo_186401" data-name="Grupo 186401" transform="translate(17.656 4.72)">
            <g id="Grupo_186400" data-name="Grupo 186400">
              <path id="Trazado_245138" data-name="Trazado 245138" d="M363.288,139.953" transform="translate(-363.288 -139.953)" fill="none" stroke="#233863" stroke-linecap="round" stroke-linejoin="round" stroke-width="3"/>
            </g>
          </g>
        </g>
      </g>
    </g>
  </g>
</svg>
