<svg xmlns="http://www.w3.org/2000/svg" width="50.938" height="58.587" viewBox="0 0 50.938 58.587">
  <g id="Grupo_186965" data-name="Grupo 186965" transform="translate(-934.734 -5656.936)">
    <g id="text_bubble" data-name="text bubble" transform="translate(-903.313 5242.986)">
      <g id="Grupo_165639" data-name="Grupo 165639" transform="translate(1838.047 413.949)">
        <g id="Grupo_165627" data-name="Grupo 165627" transform="translate(0.639 0.639)">
          <g id="Grupo_165622" data-name="Grupo 165622" transform="translate(7.447)">
            <path id="Trazado_230519" data-name="Trazado 230519" d="M1899.25,415.45v32.936l-25.665,14.82c-.012.232-.018.461-.018.69,0,3.364,1.171,5.738,3.064,6.865-2.16,1.021-6.164-.681-7.247-5.131l-12.348,7.13V439.824Zm-25.572,36.223a13.17,13.17,0,0,0,1.943-6.44c0-4.1-2.88-5.765-6.428-3.716a14.219,14.219,0,0,0-6.431,11.139c0,2.087.746,3.543,1.943,4.2,1.159.634,2.741.522,4.488-.484A13.092,13.092,0,0,0,1873.678,451.673Z" transform="translate(-1857.036 -415.45)" fill="#fff"/>
          </g>
          <g id="Grupo_165623" data-name="Grupo 165623" transform="translate(13.173 25.191)">
            <path id="Trazado_230520" data-name="Trazado 230520" d="M1883.344,479.205a13.172,13.172,0,0,1-1.943,6.44,5.039,5.039,0,0,0-3.587-2.231l-.005,0a3.237,3.237,0,0,0,.622-1.767c0-.966-.681-1.356-1.515-.875a3.352,3.352,0,0,0-1.517,2.63c0,.578.246.948.619,1.05a25.01,25.01,0,0,0-3.59,6.375c-1.2-.654-1.943-2.11-1.943-4.2a14.22,14.22,0,0,1,6.431-11.139C1880.465,473.44,1883.344,475.1,1883.344,479.205Z" transform="translate(-1870.485 -474.612)" fill="#f1dff3"/>
          </g>
          <g id="Grupo_165624" data-name="Grupo 165624" transform="translate(15.116 33.989)">
            <path id="Trazado_230521" data-name="Trazado 230521" d="M1880.435,495.28a5.039,5.039,0,0,1,3.587,2.231,13.092,13.092,0,0,1-4.485,4.7c-1.747,1.007-3.328,1.118-4.488.484a25,25,0,0,1,3.59-6.375,1.2,1.2,0,0,0,.9-.179,2.882,2.882,0,0,0,.892-.86Z" transform="translate(-1875.049 -495.277)" fill="#5c22c3"/>
          </g>
          <g id="Grupo_165625" data-name="Grupo 165625" transform="translate(18.087 31.142)">
            <path id="Trazado_230522" data-name="Trazado 230522" d="M1885.057,489.669a3.237,3.237,0,0,1-.622,1.767,2.88,2.88,0,0,1-.893.86,1.192,1.192,0,0,1-.9.179c-.373-.1-.619-.472-.619-1.05a3.352,3.352,0,0,1,1.517-2.63C1884.376,488.313,1885.057,488.7,1885.057,489.669Z" transform="translate(-1882.025 -488.589)" fill="#fff"/>
          </g>
          <g id="Grupo_165626" data-name="Grupo 165626" transform="translate(0 6.381)">
            <path id="Trazado_230523" data-name="Trazado 230523" d="M1858.4,430.436v11.409l-11.4,6.584v9.739l-7.447,4.3V441.32Z" transform="translate(-1839.547 -430.436)" fill="#ac8ee0"/>
          </g>
        </g>
        <g id="Grupo_165638" data-name="Grupo 165638" transform="translate(0)">
          <g id="Grupo_165628" data-name="Grupo 165628" transform="translate(13.173 25.187)">
            <path id="Trazado_230524" data-name="Trazado 230524" d="M1873.179,490.993a3.952,3.952,0,0,1-1.919-.474c-1.467-.8-2.275-2.492-2.275-4.757a14.945,14.945,0,0,1,6.75-11.692c1.921-1.109,3.761-1.269,5.182-.449s2.2,2.5,2.2,4.718a13.736,13.736,0,0,1-2.031,6.764h0a13.69,13.69,0,0,1-4.716,4.926A6.486,6.486,0,0,1,1873.179,490.993Zm5.74-16.611a5.211,5.211,0,0,0-2.546.793,13.533,13.533,0,0,0-6.112,10.586c0,1.777.572,3.069,1.611,3.637,1,.548,2.375.379,3.862-.478a12.4,12.4,0,0,0,4.253-4.467h0a12.45,12.45,0,0,0,1.855-6.116c0-1.746-.556-3.029-1.566-3.611A2.677,2.677,0,0,0,1878.92,474.383Z" transform="translate(-1868.985 -473.104)" fill="#5c22c3"/>
          </g>
          <g id="Grupo_165629" data-name="Grupo 165629" transform="translate(18.086 31.143)">
            <path id="Trazado_230525" data-name="Trazado 230525" d="M1882,492.284a1.478,1.478,0,0,1-.39-.052,1.6,1.6,0,0,1-1.09-1.667,4.007,4.007,0,0,1,1.837-3.184,1.55,1.55,0,0,1,2.472,1.428,3.875,3.875,0,0,1-.737,2.132h0a3.527,3.527,0,0,1-1.1,1.048A2,2,0,0,1,1882,492.284Zm1.351-3.916a.765.765,0,0,0-.355.121,2.736,2.736,0,0,0-1.2,2.077c0,.232.061.41.148.434a.617.617,0,0,0,.411-.115,2.279,2.279,0,0,0,.688-.673,2.619,2.619,0,0,0,.508-1.4c0-.244-.065-.392-.124-.427A.159.159,0,0,0,1883.355,488.367Zm.218,2.209h0Z" transform="translate(-1880.524 -487.091)" fill="#5c22c3"/>
          </g>
          <g id="Grupo_165630" data-name="Grupo 165630" transform="translate(15.116 35.029)">
            <path id="Trazado_230526" data-name="Trazado 230526" d="M1874.187,503.87a.639.639,0,0,1-.6-.861,25.809,25.809,0,0,1,3.683-6.544.639.639,0,0,1,1.01.782,24.487,24.487,0,0,0-3.5,6.207A.639.639,0,0,1,1874.187,503.87Z" transform="translate(-1873.548 -496.217)" fill="#5c22c3"/>
          </g>
          <g id="Grupo_165631" data-name="Grupo 165631" transform="translate(20.502 33.992)">
            <path id="Trazado_230527" data-name="Trazado 230527" d="M1890.424,497.291a.638.638,0,0,1-.535-.29,4.43,4.43,0,0,0-3.14-1.947.639.639,0,0,1,.176-1.265,5.694,5.694,0,0,1,4.034,2.514.639.639,0,0,1-.534.988Z" transform="translate(-1886.199 -493.783)" fill="#5c22c3"/>
          </g>
          <g id="Grupo_165632" data-name="Grupo 165632" transform="translate(31.251 15.134)">
            <path id="Trazado_230528" data-name="Trazado 230528" d="M1912.081,457.68a.639.639,0,0,1-.32-1.192l11.973-6.91a.639.639,0,0,1,.639,1.107l-11.973,6.91A.638.638,0,0,1,1912.081,457.68Z" transform="translate(-1911.443 -449.492)" fill="#5c22c3"/>
          </g>
          <g id="Grupo_165633" data-name="Grupo 165633" transform="translate(31.251 18.474)">
            <path id="Trazado_230529" data-name="Trazado 230529" d="M1912.081,465.527a.639.639,0,0,1-.32-1.192l11.973-6.912a.638.638,0,0,1,.639,1.106l-11.973,6.913A.636.636,0,0,1,1912.081,465.527Z" transform="translate(-1911.442 -457.337)" fill="#5c22c3"/>
          </g>
          <g id="Grupo_165634" data-name="Grupo 165634" transform="translate(31.251 21.815)">
            <path id="Trazado_230530" data-name="Trazado 230530" d="M1912.081,473.372a.639.639,0,0,1-.32-1.192l11.973-6.912a.638.638,0,0,1,.639,1.106l-11.973,6.913A.632.632,0,0,1,1912.081,473.372Z" transform="translate(-1911.442 -465.183)" fill="#5c22c3"/>
          </g>
          <g id="Grupo_165635" data-name="Grupo 165635" transform="translate(31.251 26.572)">
            <path id="Trazado_230531" data-name="Trazado 230531" d="M1912.081,483.129a.639.639,0,0,1-.32-1.192l9.516-5.495a.639.639,0,1,1,.639,1.106l-9.516,5.495A.636.636,0,0,1,1912.081,483.129Z" transform="translate(-1911.442 -476.357)" fill="#5c22c3"/>
          </g>
          <g id="Grupo_165636" data-name="Grupo 165636" transform="translate(7.447)">
            <path id="Trazado_230532" data-name="Trazado 230532" d="M1856.175,472.536a.639.639,0,0,1-.639-.639V438.962a.639.639,0,0,1,.319-.553l42.214-24.374a.639.639,0,0,1,.958.553v32.936a.639.639,0,0,1-.319.553l-25.36,14.643q0,.157,0,.313c0,3.017.978,5.26,2.753,6.317a.639.639,0,0,1-.054,1.126,4.811,4.811,0,0,1-4.041-.226,7.663,7.663,0,0,1-3.863-4.523l-11.644,6.723A.638.638,0,0,1,1856.175,472.536Zm.639-33.205v31.461l11.39-6.576a.638.638,0,0,1,.94.4,6.561,6.561,0,0,0,3.408,4.481,4.409,4.409,0,0,0,1.737.449,9.017,9.017,0,0,1-2.222-6.513c0-.239.006-.479.018-.722a.639.639,0,0,1,.318-.521l25.346-14.635V415.694Z" transform="translate(-1855.536 -413.949)" fill="#5c22c3"/>
          </g>
          <g id="Grupo_165637" data-name="Grupo 165637" transform="translate(0 6.381)">
            <path id="Trazado_230533" data-name="Trazado 230533" d="M1838.686,462.242a.639.639,0,0,1-.639-.639V440.459a.638.638,0,0,1,.319-.553l18.85-10.884a.639.639,0,0,1,.958.553v11.409a.639.639,0,0,1-1.277,0v-10.3l-17.572,10.147V460.5l6.489-3.744a.639.639,0,0,1,.639,1.107l-7.447,4.3A.639.639,0,0,1,1838.686,462.242Z" transform="translate(-1838.047 -428.936)" fill="#5c22c3"/>
          </g>
        </g>
      </g>
    </g>
  </g>
</svg>
