<svg xmlns="http://www.w3.org/2000/svg" width="66.513" height="55.314" viewBox="0 0 66.513 55.314">
  <g id="Grupo_186963" data-name="Grupo 186963" transform="translate(-278.243 -5656.936)">
    <g id="Grupo_167173" data-name="Grupo 167173" transform="translate(144.479 4370.6)">
      <g id="Grupo_162604" data-name="Grupo 162604" transform="translate(133.764 1286.336)">
        <g id="laptop_front" data-name="laptop front" transform="translate(0 0)">
          <g id="Grupo_162563" data-name="Grupo 162563" transform="translate(0.544 0.544)">
            <g id="Grupo_162558" data-name="Grupo 162558" transform="translate(21.807)">
              <path id="Trazado_228320" data-name="Trazado 228320" d="M229.076,1302.935a2.281,2.281,0,0,1,.717,1.733,1.531,1.531,0,0,1-.048.49l-5.861,20.685c-.211.74-.442,1.23-1.247,1.047a1.6,1.6,0,0,0-.819-.954l-24.749-14.287a3.65,3.65,0,0,0-1.23-.42,2.148,2.148,0,0,1-.355-1.956c.208-.727,5.428-19.433,5.64-20.189.352-1.265,1.512-1.611,2.831-.849l24.458,14.12A2.507,2.507,0,0,1,229.076,1302.935Z" transform="translate(-195.389 -1287.834)" fill="#fff"/>
            </g>
            <g id="Grupo_162559" data-name="Grupo 162559" transform="translate(0 35.709)">
              <path id="Trazado_228321" data-name="Trazado 228321" d="M184.347,1389.863v2.562a1.44,1.44,0,0,1-.845,1.182l-18.556,10.713a4.512,4.512,0,0,1-4.09,0l-24.746-14.287a1.437,1.437,0,0,1-.845-1.179v-2.562a1.437,1.437,0,0,0,.845,1.179l24.746,14.287a4.512,4.512,0,0,0,4.09,0l18.556-10.713A1.44,1.44,0,0,0,184.347,1389.863Z" transform="translate(-135.264 -1386.292)" fill="#5c22c3"/>
            </g>
            <g id="Grupo_162560" data-name="Grupo 162560" transform="translate(0 23.325)">
              <path id="Trazado_228322" data-name="Trazado 228322" d="M184.32,1367.877a1,1,0,0,1,.026.224,1.44,1.44,0,0,1-.845,1.182L164.945,1380a4.512,4.512,0,0,1-4.09,0l-24.746-14.287a1.247,1.247,0,0,1,0-2.36l18.556-10.713a4.163,4.163,0,0,1,2.046-.49,4.8,4.8,0,0,1,.81.07,3.749,3.749,0,0,1,1.23.42l24.749,14.287A1.586,1.586,0,0,1,184.32,1367.877Zm-3.919.672c.317-.186.352-.464.077-.625l-23.459-13.543a1.2,1.2,0,0,0-1.083.045l-8.016,4.628c-.317.186-.355.461-.077.625l23.459,13.544a1.211,1.211,0,0,0,1.083-.045Zm-19.366,2.139c.182-.106.2-.266.045-.359l-8.231-4.75a.684.684,0,0,0-.615.022l-4.967,2.87c-.186.1-.2.263-.045.355l8.23,4.753a.686.686,0,0,0,.615-.026Z" transform="translate(-135.264 -1352.146)" fill="#fff"/>
            </g>
            <g id="Grupo_162561" data-name="Grupo 162561" transform="translate(12.393 25.452)">
              <path id="Trazado_228323" data-name="Trazado 228323" d="M202.254,1371.663c.276.16.24.439-.077.625l-8.016,4.628a1.211,1.211,0,0,1-1.083.045l-23.459-13.543c-.279-.164-.24-.439.077-.624l8.016-4.628a1.2,1.2,0,0,1,1.083-.045Z" transform="translate(-169.433 -1358.011)" fill="#f1dff3"/>
            </g>
            <g id="Grupo_162562" data-name="Grupo 162562" transform="translate(11.85 36.697)">
              <path id="Trazado_228324" data-name="Trazado 228324" d="M181.9,1393.828c.157.093.137.253-.045.359l-4.967,2.866a.686.686,0,0,1-.615.026l-8.23-4.753c-.16-.093-.141-.253.045-.356l4.967-2.87a.684.684,0,0,1,.615-.022Z" transform="translate(-167.937 -1389.016)" fill="#ac8ee0"/>
            </g>
          </g>
          <g id="Grupo_162592" data-name="Grupo 162592">
            <g id="Grupo_162564" data-name="Grupo 162564" transform="translate(12.393 25.451)">
              <path id="Trazado_228325" data-name="Trazado 228325" d="M192.6,1376.654a1.515,1.515,0,0,1-.741-.178l-23.462-13.545a.861.861,0,0,1-.459-.743.973.973,0,0,1,.533-.823l8.019-4.629a1.731,1.731,0,0,1,1.623-.047l23.462,13.546a.855.855,0,0,1,.458.741.97.97,0,0,1-.531.824l-8.019,4.629,0,0A1.815,1.815,0,0,1,192.6,1376.654Zm.61-.7h0ZM169.25,1362.17l23.145,13.362a.694.694,0,0,0,.542-.047l7.776-4.489-23.145-13.363a.691.691,0,0,0-.537.044Zm-.272.162Z" transform="translate(-167.933 -1356.51)" fill="#5c22c3"/>
            </g>
            <g id="Grupo_162565" data-name="Grupo 162565" transform="translate(0 23.325)">
              <path id="Trazado_228326" data-name="Trazado 228326" d="M161.943,1380.074a4.69,4.69,0,0,1-2.316-.564l-24.746-14.286a1.779,1.779,0,0,1,0-3.3l18.554-10.712a4.979,4.979,0,0,1,3.221-.486,4.279,4.279,0,0,1,1.409.486l24.75,14.287a2.1,2.1,0,0,1,1.078,1.3h0a1.563,1.563,0,0,1,.04.344,1.975,1.975,0,0,1-1.117,1.653l-18.555,10.712A4.68,4.68,0,0,1,161.943,1380.074Zm-6.187-28.34a3.639,3.639,0,0,0-1.772.416l-18.558,10.714c-.365.209-.573.468-.573.711s.209.5.574.708l24.745,14.286a3.977,3.977,0,0,0,3.544,0l18.557-10.713c.365-.21.573-.47.573-.711a.485.485,0,0,0-.013-.1,1.107,1.107,0,0,0-.563-.6l-24.748-14.286a3.208,3.208,0,0,0-1.051-.356A4.242,4.242,0,0,0,155.756,1351.734Z" transform="translate(-133.764 -1350.646)" fill="#5c22c3"/>
            </g>
            <g id="Grupo_162566" data-name="Grupo 162566" transform="translate(11.85 36.696)">
              <path id="Trazado_228327" data-name="Trazado 228327" d="M175.59,1396.728a1.094,1.094,0,0,1-.54-.134l-8.233-4.754a.727.727,0,0,1-.38-.636.775.775,0,0,1,.435-.667l4.958-2.865a1.217,1.217,0,0,1,1.16-.022l8.23,4.749.006,0a.728.728,0,0,1,.372.628.781.781,0,0,1-.423.669l-4.967,2.867A1.244,1.244,0,0,1,175.59,1396.728Zm-7.7-5.523,7.7,4.446c-.006-.008.05-.015.071-.026l4.484-2.587-7.7-4.445c0,.007-.053.013-.074.024Zm-.483.279h0Z" transform="translate(-166.437 -1387.514)" fill="#5c22c3"/>
            </g>
            <g id="Grupo_162567" data-name="Grupo 162567" transform="translate(0 35.709)">
              <path id="Trazado_228328" data-name="Trazado 228328" d="M161.943,1404.4a4.692,4.692,0,0,1-2.316-.563l-24.746-14.287a1.95,1.95,0,0,1-1.117-1.65v-2.562a.544.544,0,1,1,1.088,0v2.562c0,.239.209.5.574.708l24.746,14.286a3.978,3.978,0,0,0,3.544,0l18.557-10.714c.365-.21.573-.469.573-.711v-2.562a.544.544,0,1,1,1.088,0v2.562a1.973,1.973,0,0,1-1.117,1.653l-18.555,10.713A4.678,4.678,0,0,1,161.943,1404.4Z" transform="translate(-133.764 -1384.792)" fill="#5c22c3"/>
            </g>
            <g id="Grupo_162568" data-name="Grupo 162568" transform="translate(21.807)">
              <path id="Trazado_228329" data-name="Trazado 228329" d="M222,1326.519a1.977,1.977,0,0,1-.44-.053.544.544,0,1,1,.241-1.061c.3.066.387.088.6-.666l5.86-20.684a.979.979,0,0,0,.028-.311c0-.02,0-.039,0-.059a1.725,1.725,0,0,0-.564-1.325l-.029-.033a1.982,1.982,0,0,0-.516-.455l-24.457-14.12a1.693,1.693,0,0,0-1.432-.257,1.127,1.127,0,0,0-.6.781l-.825,2.957c-1.511,5.413-4.655,16.675-4.815,17.236a1.6,1.6,0,0,0,.27,1.482.544.544,0,1,1-.874.647,2.694,2.694,0,0,1-.441-2.431c.159-.556,3.3-11.816,4.813-17.228l.826-2.957a2.173,2.173,0,0,1,1.24-1.5,2.724,2.724,0,0,1,2.387.322l24.458,14.12a3.016,3.016,0,0,1,.8.688,2.787,2.787,0,0,1,.857,2.1,2.044,2.044,0,0,1-.069.635l-5.861,20.689C223.31,1325.538,223.03,1326.519,222,1326.519Z" transform="translate(-193.89 -1286.336)" fill="#5c22c3"/>
            </g>
            <g id="Grupo_162569" data-name="Grupo 162569" transform="translate(22.527 33.589)">
              <path id="Trazado_228330" data-name="Trazado 228330" d="M204.614,1384.768a.538.538,0,0,1-.272-.073l-8.2-4.734a.544.544,0,1,1,.544-.942l8.2,4.734a.544.544,0,0,1-.273,1.015Z" transform="translate(-195.875 -1378.946)" fill="#5c22c3"/>
            </g>
            <g id="Grupo_162570" data-name="Grupo 162570" transform="translate(32.195 39.174)">
              <path id="Trazado_228331" data-name="Trazado 228331" d="M224.466,1396.235a.545.545,0,0,1-.271-.073l-1.39-.8a.544.544,0,1,1,.543-.943l1.39.8a.544.544,0,0,1-.272,1.016Z" transform="translate(-222.533 -1394.346)" fill="#5c22c3"/>
            </g>
            <g id="Grupo_162571" data-name="Grupo 162571" transform="translate(34.972 40.775)">
              <path id="Trazado_228332" data-name="Trazado 228332" d="M232.122,1400.653a.541.541,0,0,1-.272-.073l-1.39-.8a.544.544,0,0,1,.545-.942l1.39.8a.544.544,0,0,1-.273,1.015Z" transform="translate(-230.189 -1398.761)" fill="#5c22c3"/>
            </g>
            <g id="Grupo_162572" data-name="Grupo 162572" transform="translate(16.954 30.373)">
              <path id="Trazado_228333" data-name="Trazado 228333" d="M182.444,1371.973a.545.545,0,0,1-.272-.073l-1.39-.8a.544.544,0,1,1,.545-.942l1.39.8a.544.544,0,0,1-.273,1.015Z" transform="translate(-180.51 -1370.08)" fill="#5c22c3"/>
            </g>
            <g id="Grupo_162573" data-name="Grupo 162573" transform="translate(19.731 31.978)">
              <path id="Trazado_228334" data-name="Trazado 228334" d="M190.1,1376.394a.544.544,0,0,1-.272-.073l-1.387-.8a.544.544,0,1,1,.544-.942l1.387.8a.544.544,0,0,1-.272,1.015Z" transform="translate(-188.166 -1374.505)" fill="#5c22c3"/>
            </g>
            <g id="Grupo_162574" data-name="Grupo 162574" transform="translate(19.078 29.147)">
              <path id="Trazado_228335" data-name="Trazado 228335" d="M188.3,1368.591a.543.543,0,0,1-.272-.073l-1.39-.8a.544.544,0,0,1,.545-.942l1.39.8a.544.544,0,0,1-.273,1.015Z" transform="translate(-186.365 -1366.698)" fill="#5c22c3"/>
            </g>
            <g id="Grupo_162575" data-name="Grupo 162575" transform="translate(22.082 30.88)">
              <path id="Trazado_228336" data-name="Trazado 228336" d="M196.581,1373.368a.539.539,0,0,1-.272-.073l-1.39-.8a.544.544,0,0,1,.545-.942l1.39.8a.544.544,0,0,1-.273,1.015Z" transform="translate(-194.648 -1371.477)" fill="#5c22c3"/>
            </g>
            <g id="Grupo_162576" data-name="Grupo 162576" transform="translate(21.201 27.92)">
              <path id="Trazado_228337" data-name="Trazado 228337" d="M194.153,1365.209a.539.539,0,0,1-.272-.073l-1.39-.8a.544.544,0,1,1,.545-.942l1.39.8a.544.544,0,0,1-.273,1.015Z" transform="translate(-192.219 -1363.317)" fill="#5c22c3"/>
            </g>
            <g id="Grupo_162577" data-name="Grupo 162577" transform="translate(24.202 29.656)">
              <path id="Trazado_228338" data-name="Trazado 228338" d="M202.426,1369.992a.543.543,0,0,1-.271-.073l-1.39-.8a.544.544,0,1,1,.543-.943l1.39.8a.544.544,0,0,1-.272,1.016Z" transform="translate(-200.493 -1368.104)" fill="#5c22c3"/>
            </g>
            <g id="Grupo_162578" data-name="Grupo 162578" transform="translate(25.086 32.615)">
              <path id="Trazado_228339" data-name="Trazado 228339" d="M204.86,1378.151a.542.542,0,0,1-.271-.073l-1.387-.8a.544.544,0,0,1,.544-.942l1.387.8a.544.544,0,0,1-.273,1.015Z" transform="translate(-202.93 -1376.262)" fill="#5c22c3"/>
            </g>
            <g id="Grupo_162579" data-name="Grupo 162579" transform="translate(27.206 31.389)">
              <path id="Trazado_228340" data-name="Trazado 228340" d="M210.71,1374.773a.544.544,0,0,1-.272-.073l-1.39-.8a.544.544,0,0,1,.545-.942l1.39.8a.544.544,0,0,1-.273,1.015Z" transform="translate(-208.776 -1372.881)" fill="#5c22c3"/>
            </g>
            <g id="Grupo_162580" data-name="Grupo 162580" transform="translate(28.086 34.348)">
              <path id="Trazado_228341" data-name="Trazado 228341" d="M213.137,1382.928a.538.538,0,0,1-.271-.073l-1.39-.8a.544.544,0,0,1,.543-.943l1.39.8a.544.544,0,0,1-.272,1.015Z" transform="translate(-211.204 -1381.039)" fill="#5c22c3"/>
            </g>
            <g id="Grupo_162581" data-name="Grupo 162581" transform="translate(30.21 33.124)">
              <path id="Trazado_228342" data-name="Trazado 228342" d="M218.988,1379.554a.539.539,0,0,1-.271-.073l-1.387-.8a.544.544,0,1,1,.544-.942l1.387.8a.544.544,0,0,1-.273,1.015Z" transform="translate(-217.058 -1377.665)" fill="#5c22c3"/>
            </g>
            <g id="Grupo_162582" data-name="Grupo 162582" transform="translate(31.09 36.081)">
              <path id="Trazado_228343" data-name="Trazado 228343" d="M221.42,1387.708a.541.541,0,0,1-.272-.073l-1.39-.8a.544.544,0,1,1,.545-.942l1.39.8a.544.544,0,0,1-.273,1.015Z" transform="translate(-219.486 -1385.817)" fill="#5c22c3"/>
            </g>
            <g id="Grupo_162583" data-name="Grupo 162583" transform="translate(33.211 34.857)">
              <path id="Trazado_228344" data-name="Trazado 228344" d="M227.269,1384.335a.541.541,0,0,1-.272-.073l-1.393-.8a.544.544,0,1,1,.544-.942l1.393.8a.544.544,0,0,1-.272,1.015Z" transform="translate(-225.332 -1382.443)" fill="#5c22c3"/>
            </g>
            <g id="Grupo_162584" data-name="Grupo 162584" transform="translate(34.091 37.817)">
              <path id="Trazado_228345" data-name="Trazado 228345" d="M229.7,1392.492a.543.543,0,0,1-.271-.073l-1.393-.8a.544.544,0,0,1,.542-.943l1.393.8a.544.544,0,0,1-.272,1.016Z" transform="translate(-227.76 -1390.604)" fill="#5c22c3"/>
            </g>
            <g id="Grupo_162585" data-name="Grupo 162585" transform="translate(36.215 36.59)">
              <path id="Trazado_228346" data-name="Trazado 228346" d="M235.548,1389.112a.541.541,0,0,1-.272-.073l-1.39-.8a.544.544,0,1,1,.545-.942l1.39.8a.544.544,0,0,1-.273,1.015Z" transform="translate(-233.614 -1387.22)" fill="#5c22c3"/>
            </g>
            <g id="Grupo_162586" data-name="Grupo 162586" transform="translate(37.095 39.549)">
              <path id="Trazado_228347" data-name="Trazado 228347" d="M237.976,1397.271a.543.543,0,0,1-.272-.073l-1.39-.8a.544.544,0,1,1,.545-.942l1.39.8a.544.544,0,0,1-.273,1.015Z" transform="translate(-236.043 -1395.379)" fill="#5c22c3"/>
            </g>
            <g id="Grupo_162587" data-name="Grupo 162587" transform="translate(39.219 38.326)">
              <path id="Trazado_228348" data-name="Trazado 228348" d="M243.828,1393.9a.544.544,0,0,1-.272-.073l-1.387-.8a.544.544,0,1,1,.544-.942l1.387.8a.544.544,0,0,1-.272,1.015Z" transform="translate(-241.897 -1392.007)" fill="#5c22c3"/>
            </g>
            <g id="Grupo_162591" data-name="Grupo 162591" transform="translate(28.797 15.984)">
              <g id="Grupo_162588" data-name="Grupo 162588" transform="translate(6.093)">
                <path id="Trazado_228349" data-name="Trazado 228349" d="M233.9,1339.417a3,3,0,0,1-1.517-.435,4.533,4.533,0,0,1-1.724-1.884c-.052-.1-.1-.2-.143-.294a5.97,5.97,0,0,1-.436-3.642,3.474,3.474,0,0,1,1.865-2.532,2.787,2.787,0,0,1,2.564.2,5.613,5.613,0,0,1,2.3,5.828,3.441,3.441,0,0,1-1.906,2.551,2.592,2.592,0,0,1-.261.092A2.519,2.519,0,0,1,233.9,1339.417Zm-.9-7.923a1.519,1.519,0,0,0-.618.131,2.41,2.41,0,0,0-1.24,1.768,4.941,4.941,0,0,0,.367,2.966c.036.08.073.157.115.238a3.507,3.507,0,0,0,1.3,1.443,1.723,1.723,0,0,0,1.4.225,1.443,1.443,0,0,0,.157-.054h0a2.381,2.381,0,0,0,1.264-1.779,4.536,4.536,0,0,0-1.784-4.655A1.926,1.926,0,0,0,233,1331.495Z" transform="translate(-229.964 -1330.407)" fill="#5c22c3"/>
              </g>
              <g id="Grupo_162589" data-name="Grupo 162589" transform="translate(10.279 7.761)">
                <path id="Trazado_228350" data-name="Trazado 228350" d="M245.017,1363.676a.543.543,0,0,1-.539-.477,31.739,31.739,0,0,0-2.911-10.6.544.544,0,0,1,.966-.5,32.825,32.825,0,0,1,3.025,10.965.544.544,0,0,1-.472.607A.613.613,0,0,1,245.017,1363.676Z" transform="translate(-241.506 -1351.807)" fill="#5c22c3"/>
              </g>
              <g id="Grupo_162590" data-name="Grupo 162590" transform="translate(0 5.631)">
                <path id="Trazado_228351" data-name="Trazado 228351" d="M213.708,1352.458a.544.544,0,0,1-.437-.869c2.948-3.968,5.569-5.231,6.869-5.632a.544.544,0,0,1,.32,1.04c-1.173.361-3.552,1.522-6.315,5.241A.543.543,0,0,1,213.708,1352.458Z" transform="translate(-213.164 -1345.933)" fill="#5c22c3"/>
              </g>
            </g>
          </g>
        </g>
        <g id="Grupo_162593" data-name="Grupo 162593" transform="translate(44.315 2.129)">
          <path id="Trazado_228352" data-name="Trazado 228352" d="M265.087,1313.674l10.788,6.229c1.482.856,2.684.162,2.684-1.549v-10.538a5.931,5.931,0,0,0-2.684-4.648l-15.744-9.09c-1.482-.856-2.684-.162-2.684,1.549v10.537a5.932,5.932,0,0,0,2.684,4.648l1.314.758-.7,4.6Z" transform="translate(-256.904 -1293.166)" fill="#ebd3ef"/>
          <path id="Trazado_228353" data-name="Trazado 228353" d="M276.119,1319.856a2.976,2.976,0,0,1-1.472-.441l-10.517-6.073-4.07,2.338a.544.544,0,0,1-.809-.554l.645-4.229-.992-.573a6.444,6.444,0,0,1-2.956-5.119v-10.538a2.167,2.167,0,0,1,3.5-2.021l15.744,9.09a6.445,6.445,0,0,1,2.956,5.119v10.537a2.4,2.4,0,0,1-1.058,2.209A1.918,1.918,0,0,1,276.119,1319.856Zm-11.988-7.686a.542.542,0,0,1,.272.073l10.788,6.229a1.112,1.112,0,0,0,1.867-1.079v-10.537a5.42,5.42,0,0,0-2.412-4.177l-15.744-9.09a1.112,1.112,0,0,0-1.867,1.078v10.538a5.42,5.42,0,0,0,2.411,4.177l1.314.759a.544.544,0,0,1,.266.553l-.531,3.48,3.364-1.931A.54.54,0,0,1,264.131,1312.17Z" transform="translate(-255.948 -1292.206)" fill="#5c22c3"/>
        </g>
        <g id="Grupo_162603" data-name="Grupo 162603" transform="translate(48.801 11.29)">
          <g id="Grupo_162594" data-name="Grupo 162594" transform="translate(9.283 5.591)">
            <path id="Trazado_228354" data-name="Trazado 228354" d="M293.913,1333.615a2.253,2.253,0,0,0,1.022,1.773c.566.326,1.023.062,1.024-.591a2.275,2.275,0,0,0-1.024-1.777C294.37,1332.693,293.911,1332.958,293.913,1333.615Z" transform="translate(-293.913 -1332.88)" fill="#fff"/>
          </g>
          <g id="Grupo_162595" data-name="Grupo 162595" transform="translate(4.911 3.071)">
            <path id="Trazado_228355" data-name="Trazado 228355" d="M281.86,1326.66a2.275,2.275,0,0,0,1.025,1.776c.566.326,1.023.062,1.024-.591a2.266,2.266,0,0,0-1.022-1.773C282.32,1325.746,281.863,1326.01,281.86,1326.66Z" transform="translate(-281.86 -1325.932)" fill="#fff"/>
          </g>
          <g id="Grupo_162596" data-name="Grupo 162596" transform="translate(0.544 0.544)">
            <path id="Trazado_228356" data-name="Trazado 228356" d="M269.819,1319.694a2.265,2.265,0,0,0,1.024,1.776c.565.327,1.023.062,1.023-.59a2.262,2.262,0,0,0-1.024-1.776C270.277,1318.777,269.818,1319.042,269.819,1319.694Z" transform="translate(-269.819 -1318.964)" fill="#fff"/>
          </g>
          <g id="Grupo_162597" data-name="Grupo 162597" transform="translate(9.283 5.591)">
            <path id="Trazado_228357" data-name="Trazado 228357" d="M295.959,1334.8a2.275,2.275,0,0,0-1.024-1.777c-.565-.327-1.024-.062-1.022.595a2.253,2.253,0,0,0,1.022,1.773C295.5,1335.714,295.958,1335.45,295.959,1334.8Z" transform="translate(-293.913 -1332.88)" fill="#5c22c3"/>
          </g>
          <g id="Grupo_162598" data-name="Grupo 162598" transform="translate(4.911 3.071)">
            <path id="Trazado_228358" data-name="Trazado 228358" d="M283.909,1327.844a2.266,2.266,0,0,0-1.022-1.773c-.567-.325-1.025-.061-1.027.589a2.275,2.275,0,0,0,1.025,1.776C283.451,1328.762,283.909,1328.5,283.909,1327.844Z" transform="translate(-281.86 -1325.932)" fill="#5c22c3"/>
          </g>
          <g id="Grupo_162599" data-name="Grupo 162599" transform="translate(0.544 0.544)">
            <path id="Trazado_228359" data-name="Trazado 228359" d="M271.866,1320.88a2.262,2.262,0,0,0-1.024-1.776c-.565-.327-1.024-.062-1.023.591a2.265,2.265,0,0,0,1.024,1.776C271.408,1321.8,271.867,1321.533,271.866,1320.88Z" transform="translate(-269.819 -1318.964)" fill="#5c22c3"/>
          </g>
          <g id="Grupo_162600" data-name="Grupo 162600">
            <path id="Trazado_228360" data-name="Trazado 228360" d="M270.347,1321.2a1.471,1.471,0,0,1-.732-.213,2.783,2.783,0,0,1-1.3-2.247,1.158,1.158,0,0,1,1.84-1.061,2.788,2.788,0,0,1,1.3,2.248,1.251,1.251,0,0,1-.571,1.133A1.063,1.063,0,0,1,270.347,1321.2Zm-.924-2.646c.012,0-.015.062-.015.185a1.743,1.743,0,0,0,.752,1.305.414.414,0,0,0,.193.068c-.009,0,.015-.06.015-.186v0a1.72,1.72,0,0,0-.753-1.3.36.36,0,0,0-.191-.066Z" transform="translate(-268.319 -1317.464)" fill="#5c22c3"/>
          </g>
          <g id="Grupo_162601" data-name="Grupo 162601" transform="translate(4.367 2.528)">
            <path id="Trazado_228361" data-name="Trazado 228361" d="M282.389,1328.164a1.474,1.474,0,0,1-.731-.212,2.8,2.8,0,0,1-1.3-2.245,1.161,1.161,0,0,1,1.842-1.062,2.788,2.788,0,0,1,1.3,2.244h0a1.252,1.252,0,0,1-.572,1.134A1.067,1.067,0,0,1,282.389,1328.164Zm-.923-2.642c.011,0-.017.061-.017.185a1.732,1.732,0,0,0,.754,1.3.372.372,0,0,0,.192.066c-.019,0,.015-.06.015-.186a1.722,1.722,0,0,0-.751-1.3.371.371,0,0,0-.193-.065Z" transform="translate(-280.36 -1324.434)" fill="#5c22c3"/>
          </g>
          <g id="Grupo_162602" data-name="Grupo 162602" transform="translate(8.739 5.048)">
            <path id="Trazado_228362" data-name="Trazado 228362" d="M294.439,1335.116a1.473,1.473,0,0,1-.731-.212,2.776,2.776,0,0,1-1.294-2.246,1.157,1.157,0,0,1,1.838-1.063,2.8,2.8,0,0,1,1.3,2.246h0a1.252,1.252,0,0,1-.572,1.134A1.062,1.062,0,0,1,294.439,1335.116Zm-.923-2.646c.013,0-.015.063-.015.188a1.707,1.707,0,0,0,.75,1.3.372.372,0,0,0,.193.067,1.464,1.464,0,0,0-.739-1.492.365.365,0,0,0-.189-.065Z" transform="translate(-292.413 -1331.382)" fill="#5c22c3"/>
          </g>
        </g>
      </g>
    </g>
  </g>
</svg>
