<svg xmlns="http://www.w3.org/2000/svg" width="36.87" height="53.676" viewBox="0 0 36.87 53.676">
  <g id="Grupo_186966" data-name="Grupo 186966" transform="translate(-1254.112 -5656.936)">
    <g id="Grupo_167175" data-name="Grupo 167175" transform="translate(223.472 4391.924)">
      <g id="Grupo_167166" data-name="Grupo 167166" transform="translate(1030.64 1265.011)">
        <g id="Grupo_167159" data-name="Grupo 167159" transform="translate(0.491 0.492)">
          <g id="Grupo_167156" data-name="Grupo 167156" transform="translate(0.59)">
            <path id="Trazado_231616" data-name="Trazado 231616" d="M1033.943,1269.756l5.4-3.12a1.253,1.253,0,0,1,1.268.126l26.834,15.493a3.964,3.964,0,0,1,1.8,3.108v29.408a1.259,1.259,0,0,1-.527,1.161l-5.426,3.133a1.287,1.287,0,0,0,.489-1.139v-29.408a3.965,3.965,0,0,0-1.795-3.107l-26.834-15.493A1.309,1.309,0,0,0,1033.943,1269.756Z" transform="translate(-1033.943 -1266.516)" fill="#ba68c8"/>
          </g>
          <g id="Grupo_167157" data-name="Grupo 167157" transform="translate(0 3.155)">
            <path id="Trazado_231617" data-name="Trazado 231617" d="M1062.564,1295.006v29.408a1.287,1.287,0,0,1-.489,1.139l-.037.022a1.254,1.254,0,0,1-1.268-.126l-10.455-6.035-2.962,5.076-2.962-8.5-10.455-6.038a3.964,3.964,0,0,1-1.795-3.107V1277.44a1.26,1.26,0,0,1,.527-1.161l.063-.035a1.31,1.31,0,0,1,1.2.161l26.834,15.493A3.964,3.964,0,0,1,1062.564,1295.006Z" transform="translate(-1032.14 -1276.16)" fill="#fff"/>
          </g>
          <g id="Grupo_167158" data-name="Grupo 167158" transform="translate(15.212 46.41)">
            <path id="Trazado_231618" data-name="Trazado 231618" d="M1084.51,1410.04l-5.877,3.395,2.962-5.076Z" transform="translate(-1078.633 -1408.358)" fill="#5c22c3"/>
          </g>
        </g>
        <g id="Grupo_167165" data-name="Grupo 167165">
          <g id="Grupo_167160" data-name="Grupo 167160" transform="translate(0 3.276)">
            <path id="Trazado_231619" data-name="Trazado 231619" d="M1060.562,1325.425a2.11,2.11,0,0,1-1.049-.314l-10.031-5.79-2.716,4.654a.485.485,0,0,1-.471.241.491.491,0,0,1-.416-.327l-2.9-8.323-10.3-5.947a4.444,4.444,0,0,1-2.04-3.532v-29.409a1.742,1.742,0,0,1,.774-1.587.491.491,0,0,1,.488.852.821.821,0,0,0-.28.735v29.409a3.478,3.478,0,0,0,1.549,2.682l10.455,6.038a.492.492,0,0,1,.218.263l2.612,7.49,2.425-4.156a.491.491,0,0,1,.67-.178l10.455,6.035a.818.818,0,0,0,.775.127.491.491,0,1,1,.494.848A1.4,1.4,0,0,1,1060.562,1325.425Z" transform="translate(-1030.64 -1275.025)" fill="#5c22c3"/>
          </g>
          <g id="Grupo_167161" data-name="Grupo 167161" transform="translate(0.59 3.157)">
            <path id="Trazado_231620" data-name="Trazado 231620" d="M1062.279,1325.034a.491.491,0,0,1-.267-.9.849.849,0,0,0,.264-.726V1294a3.479,3.479,0,0,0-1.549-2.682l-26.835-15.493a.875.875,0,0,0-.753-.141.491.491,0,1,1-.414-.89,1.784,1.784,0,0,1,1.658.181l26.834,15.493a4.445,4.445,0,0,1,2.04,3.533v29.408a1.755,1.755,0,0,1-.713,1.551A.487.487,0,0,1,1062.279,1325.034Z" transform="translate(-1032.442 -1274.659)" fill="#5c22c3"/>
          </g>
          <g id="Grupo_167163" data-name="Grupo 167163" transform="translate(0.527)">
            <path id="Trazado_231622" data-name="Trazado 231622" d="M1062.112,1318.565a.491.491,0,0,1-.246-.916l5.464-3.155a.82.82,0,0,0,.281-.736V1284.35a3.477,3.477,0,0,0-1.549-2.682l-26.834-15.493a.819.819,0,0,0-.776-.127l-5.465,3.155a.491.491,0,1,1-.491-.85l5.464-3.155a1.717,1.717,0,0,1,1.76.127l26.833,15.492a4.445,4.445,0,0,1,2.04,3.532v29.409a1.743,1.743,0,0,1-.774,1.587l-5.462,3.153A.488.488,0,0,1,1062.112,1318.565Z" transform="translate(-1032.25 -1265.011)" fill="#5c22c3"/>
          </g>
          <g id="Grupo_167164" data-name="Grupo 167164" transform="translate(15.212 48.093)">
            <path id="Trazado_231623" data-name="Trazado 231623" d="M1077.624,1416.373a.491.491,0,0,1-.246-.916l5.877-3.395a.491.491,0,1,1,.491.85l-5.877,3.395A.487.487,0,0,1,1077.624,1416.373Z" transform="translate(-1077.132 -1411.997)" fill="#5c22c3"/>
          </g>
        </g>
      </g>
    </g>
  </g>
</svg>
