<svg xmlns="http://www.w3.org/2000/svg" width="117.163" height="216.264" viewBox="0 0 117.163 216.264">
  <g id="Grupo_186966" data-name="Grupo 186966" transform="translate(4507.923 7527.3)">
    <g id="Grupo_186956" data-name="Grupo 186956" transform="translate(-4865 -11828)">
      <g id="Grupo_186297" data-name="Grupo 186297" transform="translate(-2984.249 2973.183)">
        <g id="Grupo_186253" data-name="Grupo 186253" transform="translate(3350.501 1516.024)" style="mix-blend-mode: multiply;isolation: isolate">
          <path id="Trazado_245017" data-name="Trazado 245017" d="M3394.5,1744.118c-3.4-1.7-7.259-2.392-10.974-3.03-4.432-.76-9.181-1.771-13.63-.722a7.852,7.852,0,0,0-5.133,4.586,7.034,7.034,0,0,0-3.069,4.425,8.613,8.613,0,0,0,1,6.759c2.112,3.414,5.4,5.3,8.911,6.963,7.088,3.359,15.326,6.848,22.877,2.644a13.082,13.082,0,0,0,6.92-11.116A12.022,12.022,0,0,0,3394.5,1744.118Z" transform="translate(-3361.399 -1739.915)" fill="#d7dce0"/>
        </g>
        <g id="Grupo_186254" data-name="Grupo 186254" transform="translate(3403.641 1410.798)">
          <path id="Trazado_245018" data-name="Trazado 245018" d="M3530.383,1540.154v8.059l-52.731-30.443v-8.059Z" transform="translate(-3477.652 -1509.711)" fill="#fff"/>
        </g>
        <g id="Grupo_186255" data-name="Grupo 186255" transform="translate(3403.641 1371.625)">
          <path id="Trazado_245019" data-name="Trazado 245019" d="M3530.383,1447.607v46.021l-10.262-5.924v-32.422l-6.409-3.7V1484l-6.491-3.744v-24.1l-6.408-3.7v24.1l-6.491-3.748v-18.353l-6.409-3.7v18.357l-10.262-5.924v-32.326l11.862-6.847Z" transform="translate(-3477.652 -1424.011)" fill="#fff"/>
        </g>
        <g id="Grupo_186256" data-name="Grupo 186256" transform="translate(3439.701 1399.192)">
          <path id="Trazado_245020" data-name="Trazado 245020" d="M3562.951,1488.024v32.422l-6.408-3.7v-32.422Z" transform="translate(-3556.542 -1484.321)" fill="#fef536"/>
        </g>
        <g id="Grupo_186257" data-name="Grupo 186257" transform="translate(3426.802 1400.07)">
          <path id="Trazado_245021" data-name="Trazado 245021" d="M3534.731,1489.939v24.1l-6.409-3.7v-24.1Z" transform="translate(-3528.322 -1486.241)" fill="#3a3a3a"/>
        </g>
        <g id="Grupo_186258" data-name="Grupo 186258" transform="translate(3383.491 1333.267)">
          <path id="Trazado_245022" data-name="Trazado 245022" d="M3482.724,1357.5c0,6.1-4.283,13.521-9.567,16.575,0,0-29.153,16.81-29.515,16.981a9.744,9.744,0,0,1-3.113.91,6.052,6.052,0,0,1-3.547-.626l-.064-.032a6.677,6.677,0,0,1-3.108-4.74,12.9,12.9,0,0,1-.238-2.542c0-7.126,5-15.793,11.167-19.354.411-.238.818-.439,1.216-.626.864-8.434,6.729-17.95,13.832-22.051a14.5,14.5,0,0,1,4.155-1.668,7.982,7.982,0,0,1,5.385.516l.142.078c2.633,1.408,4.264,4.576,4.264,9.124,0,.507-.016,1.016-.059,1.527,0,.046-.009.082-.014.123.009,0,.014,0,.019-.009C3478.724,1349.094,3482.724,1351.6,3482.724,1357.5Z" transform="translate(-3433.572 -1340.096)" fill="#64b5f6"/>
        </g>
        <g id="Grupo_186259" data-name="Grupo 186259" transform="translate(3413.903 1398.365)">
          <path id="Trazado_245023" data-name="Trazado 245023" d="M3506.511,1486.214v18.353l-6.408-3.7v-18.357Z" transform="translate(-3500.102 -1482.511)" fill="#fef536"/>
        </g>
        <g id="Grupo_186260" data-name="Grupo 186260" transform="translate(3374.482 1328.431)">
          <path id="Trazado_245024" data-name="Trazado 245024" d="M3449.785,1330.359l8.84,4.745a7.981,7.981,0,0,0-5.385-.516,14.5,14.5,0,0,0-4.155,1.668c-7.1,4.1-12.968,13.617-13.832,22.051-.4.188-.8.389-1.216.626-6.171,3.561-11.167,12.227-11.167,19.354a12.907,12.907,0,0,0,.238,2.542,6.675,6.675,0,0,0,3.108,4.74l-8.941-4.8c-2.107-1.124-3.415-3.666-3.415-7.309a16.983,16.983,0,0,1,.164-2.336,24.9,24.9,0,0,1,3.506-9.357,22.492,22.492,0,0,1,7.5-7.666c.412-.233.814-.443,1.211-.622.869-8.433,6.729-17.95,13.827-22.051,3.767-2.176,7.181-2.427,9.686-1.079Z" transform="translate(-3413.862 -1329.516)" fill="#4698da"/>
        </g>
        <g id="Grupo_186261" data-name="Grupo 186261" transform="translate(3376.201 1439.073)">
          <path id="Trazado_245025" data-name="Trazado 245025" d="M3426.165,1586.466l8.863-9.055a6.466,6.466,0,0,1,1.412-2.935c1.193-1.413,2.788-3.172,3.241-2.875s-1.55,3.8-1.55,3.8,2.546,3.5,1.248,4.845a19.4,19.4,0,0,1-2.6,2.249l-7.085,12.314a5.18,5.18,0,0,1-9.325-.722c-.384-1.006-.754-1.993-1.106-2.976-.58-1.609-1.124-3.2-1.645-4.822,2.381.836,6.386.739,7.848-2.054Z" transform="translate(-3417.622 -1571.568)" fill="#fff"/>
        </g>
        <g id="Grupo_186262" data-name="Grupo 186262" transform="translate(3351.065 1426.714)">
          <path id="Trazado_245026" data-name="Trazado 245026" d="M3366.8,1565.612c.05-1.591.06-3.118.05-4.512a10.207,10.207,0,0,1-1.44-.686,9.526,9.526,0,0,1-2.774-2.441c1.476-5.243,3.817-11.839,6.5-13.05,2.148-.974,5.143.009,7.707,1.316l.188.018c-.133,1.175-.265,2.313-.416,3.314-.521,3.442,4.438,3.18,5.311,2.528a3.373,3.373,0,0,0,.558-2.016h.471c2.235,1.275,7.963,4.8,9.092,8.2.818,2.445,2.39,7.472,3.579,11.275-1.463,2.793-5.467,2.891-7.848,2.054.521,1.623,1.065,3.213,1.646,4.822a39.325,39.325,0,0,0-.169,8.3,1.572,1.572,0,0,1-1.257,1.732c-.27.054-.558.105-.859.151a36.664,36.664,0,0,1-10.381.041c-3.241-.617-6.483-2.379-10.39-7.711-.2-.274-.406-.563-.613-.859a1.438,1.438,0,0,1-.224-1.166A55.993,55.993,0,0,0,3366.8,1565.612Z" transform="translate(-3362.632 -1544.53)" fill="#ba68c8"/>
        </g>
        <g id="Grupo_186263" data-name="Grupo 186263" transform="translate(3353.495 1461.125)">
          <path id="Trazado_245027" data-name="Trazado 245027" d="M3379.2,1644.654c-1.751,10.98-4.882,29.035-6.2,35.412a18.372,18.372,0,0,1-.544,2.272,1.918,1.918,0,0,1-2.7,1.028,2.624,2.624,0,0,1-1.721-1.924,2.527,2.527,0,0,1-.062-.475c-.226-6.547.686-20.163,2.185-26.96-.658-4.045-.877-17.6.329-23.948a18.55,18.55,0,0,1-1.252-10.248c3.9,5.334,7.149,7.094,10.39,7.711a36.6,36.6,0,0,0,10.381-.041c-.233,24.446-.811,38.67-3.7,60.52l-.165,1.244a1.774,1.774,0,0,1-1.6,1.54,3.484,3.484,0,0,1-1.559-.224,1.685,1.685,0,0,1-.818-.681,1.868,1.868,0,0,1-.265-.7c-1.012-6.461-.937-26.658-.315-30.5C3381.059,1656.832,3379.917,1650.135,3379.2,1644.654Z" transform="translate(-3367.947 -1619.811)" fill="#3a3a3a"/>
        </g>
        <g id="Grupo_186264" data-name="Grupo 186264" transform="translate(3367.139 1528.289)">
          <path id="Trazado_245028" data-name="Trazado 245028" d="M3406.347,1767.764a14.723,14.723,0,0,1-2.838,5.065,4.576,4.576,0,0,1-4.671.434c-1.582-.681-1.038-2.244-.458-3.611a1.685,1.685,0,0,0,.818.681,3.482,3.482,0,0,0,1.559.224,1.774,1.774,0,0,0,1.6-1.54l.165-1.243a19.179,19.179,0,0,1,1.957-.983C3405.057,1766.608,3406.347,1767.028,3406.347,1767.764Z" transform="translate(-3397.798 -1766.748)" fill="#fff"/>
        </g>
        <g id="Grupo_186265" data-name="Grupo 186265" transform="translate(3365 1419.542)">
          <path id="Trazado_245029" data-name="Trazado 245029" d="M3402.723,1528.841c.146,3.314.21,7.78-.467,8.429-1.088,1.042-3.222.695-3.222.695a30.9,30.9,0,0,1-.009,3.6,3.375,3.375,0,0,1-.558,2.016c-.874.652-5.833.914-5.312-2.528.151-1,.283-2.139.416-3.314l.192-1.764a4.3,4.3,0,0,0,2.35,1.156c1.074,0,1.618-.951,1.988-1.938C3399.231,1532.214,3401.078,1531.487,3402.723,1528.841Z" transform="translate(-3393.118 -1528.841)" fill="#fff"/>
        </g>
        <g id="Grupo_186266" data-name="Grupo 186266" transform="translate(3365.646 1416.085)">
          <path id="Trazado_245030" data-name="Trazado 245030" d="M3403.409,1523.043c.028.5.06,1.079.083,1.691-1.646,2.647-3.492,3.373-4.621,6.354-.371.987-.914,1.938-1.989,1.938a4.3,4.3,0,0,1-2.349-1.156,45.825,45.825,0,0,1,.873-5.846,5.451,5.451,0,0,1,3.611-4.182,11.934,11.934,0,0,1,2.262-.544A1.866,1.866,0,0,1,3403.409,1523.043Z" transform="translate(-3394.532 -1521.277)" fill="#3a3a3a"/>
        </g>
        <g id="Grupo_186267" data-name="Grupo 186267" transform="translate(3353.204 1521.228)">
          <path id="Trazado_245031" data-name="Trazado 245031" d="M3375.987,1751.611c.508.736.114,1.467-.562,2.482a23.074,23.074,0,0,1-3.917,3.2,2.281,2.281,0,0,1-1.472.411,3.413,3.413,0,0,1-2.335-.96c-.69-.8-.313-2.747,0-3.917a2.612,2.612,0,0,0,1.721,1.924,1.918,1.918,0,0,0,2.7-1.028,18.505,18.505,0,0,0,.544-2.272C3373.939,1751.286,3375.676,1751.158,3375.987,1751.611Z" transform="translate(-3367.311 -1751.299)" fill="#fff"/>
        </g>
        <g id="Grupo_186268" data-name="Grupo 186268" transform="translate(3342.24 1440.157)">
          <path id="Trazado_245032" data-name="Trazado 245032" d="M3356.365,1577.068c.009,1.394,0,2.921-.05,4.512-2.437,6.1-5.521,14.8-6.29,17.274-.813,2.633-1.773,7.058-2.2,9.105a.72.72,0,0,1-1.147.421c-1.234-.974-3.3-2.774-3.351-4-.086-1.76,2.071-3.1,2.071-3.1s5.714-23.65,6.751-27.339a9.526,9.526,0,0,0,2.774,2.441A10.171,10.171,0,0,0,3356.365,1577.068Z" transform="translate(-3343.326 -1573.941)" fill="#fff"/>
        </g>
        <g id="Grupo_186269" data-name="Grupo 186269" transform="translate(3370.464 1431.353)">
          <path id="Trazado_245033" data-name="Trazado 245033" d="M3418.656,1575.98a.915.915,0,0,1-.872-.642c-1.019-3.262-2.725-8.722-3.573-11.257-.705-2.119-3.949-4.994-8.677-7.692a.914.914,0,0,1,.906-1.588c3.048,1.739,8.335,5.181,9.506,8.7.854,2.552,2.564,8.023,3.584,11.291a.915.915,0,0,1-.6,1.146A.933.933,0,0,1,3418.656,1575.98Z" transform="translate(-3405.072 -1554.68)" fill="#3a3a3a"/>
        </g>
        <g id="Grupo_186270" data-name="Grupo 186270" transform="translate(3383.135 1450.824)">
          <path id="Trazado_245034" data-name="Trazado 245034" d="M3435.228,1604.008a.916.916,0,0,1-.873-.644l-1.522-4.9a.914.914,0,1,1,1.746-.542l1.522,4.9a.914.914,0,0,1-.6,1.144A.9.9,0,0,1,3435.228,1604.008Z" transform="translate(-3432.792 -1597.277)" fill="#3a3a3a"/>
        </g>
        <g id="Grupo_186271" data-name="Grupo 186271" transform="translate(3341.326 1425.799)">
          <path id="Trazado_245035" data-name="Trazado 245035" d="M3346.033,1592.394a1.623,1.623,0,0,1-1-.348c-3.619-2.855-3.681-4.227-3.7-4.678-.09-1.826,1.467-3.178,2.18-3.7l5.017-20.291h0s.623-3.064,1.658-6.739c2.24-7.961,4.595-12.548,7-13.635,2.066-.936,4.925-.487,8.5,1.335a.914.914,0,0,1-.83,1.629c-3.01-1.535-5.4-1.984-6.914-1.3-1.81.818-3.994,5.361-5.992,12.465-1.018,3.614-1.628,6.614-1.635,6.644l-5.109,20.666a.914.914,0,0,1-.406.557c-.47.3-1.688,1.286-1.639,2.278.015.358.62,1.4,2.754,3.128.362-1.727,1.327-6.2,2.156-8.879.744-2.4,3.848-11.166,6.314-17.343a.587.587,0,0,1,.024-.056.914.914,0,0,1,1.743.386.929.929,0,0,1-.078.369c-2.449,6.136-5.522,14.813-6.257,17.185-.86,2.781-1.884,7.608-2.177,9.021a1.639,1.639,0,0,1-1.6,1.3Z" transform="translate(-3341.326 -1542.53)" fill="#3a3a3a"/>
        </g>
        <g id="Grupo_186272" data-name="Grupo 186272" transform="translate(3372.315 1442.867)">
          <path id="Trazado_245036" data-name="Trazado 245036" d="M3413,1591.709a.914.914,0,0,1-.869-.633c-.945-2.918-1.892-6.11-2.979-10.049a.914.914,0,0,1,1.763-.486c1.079,3.912,2.018,7.081,2.955,9.972a.916.916,0,0,1-.87,1.2Z" transform="translate(-3409.121 -1579.869)" fill="#3a3a3a"/>
        </g>
        <g id="Grupo_186273" data-name="Grupo 186273" transform="translate(3375.287 1438.145)">
          <path id="Trazado_245037" data-name="Trazado 245037" d="M3424.135,1597.219c-.163,0-.327-.006-.492-.019a6.037,6.037,0,0,1-5.209-3.889c-.422-1.106-.786-2.085-1.113-2.993-.612-1.7-1.153-3.287-1.656-4.852a.914.914,0,1,1,1.741-.56c.5,1.545,1.031,3.113,1.635,4.793.323.9.683,1.865,1.1,2.958a4.265,4.265,0,0,0,7.678.593l7.085-12.313a.917.917,0,0,1,.271-.3,18.685,18.685,0,0,0,2.459-2.133c.431-.448-.36-2.343-1.329-3.673a.914.914,0,0,1-.054-.991c.061-.107.123-.218.185-.329q-.182.211-.385.45a5.629,5.629,0,0,0-1.205,2.475.915.915,0,0,1-.251.509l-8.864,9.055a.914.914,0,0,1-1.307-1.279l8.675-8.863a7.587,7.587,0,0,1,1.556-3.077c2.485-2.943,3.524-3.653,4.441-3.05.633.426.954,1.037-.975,4.515.8,1.222,2.308,3.991.83,5.527a20.671,20.671,0,0,1-2.561,2.243l-6.987,12.142A6.041,6.041,0,0,1,3424.135,1597.219Z" transform="translate(-3415.621 -1569.537)" fill="#3a3a3a"/>
        </g>
        <g id="Grupo_186274" data-name="Grupo 186274" transform="translate(3375.284 1450.824)">
          <path id="Trazado_245038" data-name="Trazado 245038" d="M3419.329,1601.611a9.567,9.567,0,0,1-3.074-.495.914.914,0,0,1,.274-1.785h0a.912.912,0,0,1,.3.052c2.005.7,5.535.678,6.736-1.616a.914.914,0,1,1,1.619.848C3424.039,1600.817,3421.612,1601.611,3419.329,1601.611Z" transform="translate(-3415.617 -1597.276)" fill="#3a3a3a"/>
        </g>
        <g id="Grupo_186275" data-name="Grupo 186275" transform="translate(3352.999 1436.189)">
          <path id="Trazado_245039" data-name="Trazado 245039" d="M3383.7,1599.173a27.11,27.11,0,0,1-4.825-.368c-4.111-.783-7.387-3.2-10.957-8.069-.205-.28-.414-.574-.625-.877a2.349,2.349,0,0,1-.362-1.909,54.162,54.162,0,0,0,1.249-11.111c.042-1.371.058-2.837.05-4.48-.006-1.265-.025-2.419-.041-3.4-.021-1.228-.036-2.2-.018-2.809a.9.9,0,0,1,.941-.886.914.914,0,0,1,.886.941c-.017.569,0,1.52.018,2.723.016.99.035,2.151.042,3.424.008,1.665-.009,3.151-.051,4.544a55.949,55.949,0,0,1-1.3,11.5.522.522,0,0,0,.086.423c.2.29.4.573.6.843,4.113,5.614,7.274,6.867,9.823,7.353a35.735,35.735,0,0,0,10.072-.047c.287-.043.56-.092.817-.143a.655.655,0,0,0,.529-.724,40.036,40.036,0,0,1,.168-8.508.914.914,0,1,1,1.818.2,38.213,38.213,0,0,0-.171,8.085,2.5,2.5,0,0,1-1.984,2.741c-.284.057-.586.11-.9.158A41.27,41.27,0,0,1,3383.7,1599.173Z" transform="translate(-3366.863 -1565.26)" fill="#3a3a3a"/>
        </g>
        <g id="Grupo_186276" data-name="Grupo 186276" transform="translate(3350.151 1439.243)">
          <path id="Trazado_245040" data-name="Trazado 245040" d="M3365.766,1576.9a.933.933,0,0,1-.332-.061,11.053,11.053,0,0,1-1.569-.746,10.405,10.405,0,0,1-3.037-2.669.914.914,0,1,1,1.439-1.128,8.624,8.624,0,0,0,2.511,2.212,9.2,9.2,0,0,0,1.29.616.914.914,0,0,1-.3,1.776Z" transform="translate(-3360.633 -1571.941)" fill="#3a3a3a"/>
        </g>
        <g id="Grupo_186277" data-name="Grupo 186277" transform="translate(3352.58 1460.211)">
          <path id="Trazado_245041" data-name="Trazado 245041" d="M3369.67,1683.376a4.032,4.032,0,0,1-1.284-.229,3.515,3.515,0,0,1-2.321-2.588,3.473,3.473,0,0,1-.084-.648c-.23-6.675.685-20.136,2.17-27.019-.621-4.146-.855-17.28.308-23.809a19.616,19.616,0,0,1-1.207-10.491.914.914,0,1,1,1.809.266,17.715,17.715,0,0,0,1.183,9.741.916.916,0,0,1,.064.544c-1.207,6.347-.958,19.74-.325,23.63a.9.9,0,0,1-.009.344c-1.479,6.7-2.393,20.106-2.164,26.731a1.663,1.663,0,0,0,.039.305,1.7,1.7,0,0,0,1.118,1.259c.964.326,1.288.069,1.582-.551.019-.049.131-.4.475-2.066,1.349-6.542,4.489-24.7,6.191-35.371a.914.914,0,0,1,1.805.287c-1.7,10.69-4.853,28.887-6.205,35.452a13.382,13.382,0,0,1-.613,2.477A2.71,2.71,0,0,1,3369.67,1683.376Z" transform="translate(-3365.945 -1617.812)" fill="#3a3a3a"/>
        </g>
        <g id="Grupo_186278" data-name="Grupo 186278" transform="translate(3359.284 1467.881)">
          <path id="Trazado_245042" data-name="Trazado 245042" d="M3391.127,1699.736a4.394,4.394,0,0,1-1.587-.3,2.583,2.583,0,0,1-1.263-1.047,2.777,2.777,0,0,1-.395-1.044c-.992-6.327-.963-26.149-.345-30.588-.565-2.12-1.667-8.614-2.365-13.962a65.715,65.715,0,0,1-.63-6.814c-1.163-1.118-3.653-4.244-3.927-7.648a.914.914,0,0,1,1.822-.146c.252,3.129,3.007,6.232,3.578,6.661a.913.913,0,0,1,.364.783,50.98,50.98,0,0,0,.606,6.928c.711,5.455,1.837,12.075,2.363,13.888a.925.925,0,0,1,.024.4c-.634,3.917-.674,23.9.316,30.215a.936.936,0,0,0,.136.355.77.77,0,0,0,.373.314,2.562,2.562,0,0,0,1.153.166.864.864,0,0,0,.771-.75l.165-1.242c2.871-21.732,3.459-36.2,3.69-60.409a.914.914,0,0,1,.914-.905h.006a.915.915,0,0,1,.909.923c-.232,24.286-.822,38.8-3.706,60.631l-.165,1.244a2.7,2.7,0,0,1-2.429,2.331C3391.378,1699.731,3391.252,1699.736,3391.127,1699.736Z" transform="translate(-3380.612 -1634.592)" fill="#3a3a3a"/>
        </g>
        <g id="Grupo_186279" data-name="Grupo 186279" transform="translate(3352.287 1520.312)">
          <path id="Trazado_245043" data-name="Trazado 245043" d="M3369.1,1757.536c-.073,0-.146,0-.218-.007a4.2,4.2,0,0,1-2.967-1.278c-.746-.869-.809-2.422-.191-4.747a.914.914,0,0,1,1.767.469c-.53,2-.355,2.892-.188,3.087a2.505,2.505,0,0,0,1.711.644,1.353,1.353,0,0,0,.878-.248,20.815,20.815,0,0,0,3.683-2.961c.558-.837.664-1.147.627-1.325a8.9,8.9,0,0,0-2.517.1.914.914,0,1,1-.233-1.813c2.912-.376,3.785-.052,4.2.549.906,1.314.027,2.633-.555,3.506a21.415,21.415,0,0,1-4.155,3.442A3.212,3.212,0,0,1,3369.1,1757.536Z" transform="translate(-3365.306 -1749.296)" fill="#3a3a3a"/>
        </g>
        <g id="Grupo_186280" data-name="Grupo 186280" transform="translate(3366.226 1527.375)">
          <path id="Trazado_245044" data-name="Trazado 245044" d="M3399.8,1773.531a6.067,6.067,0,0,1-2.4-.513c-2.519-1.084-1.411-3.694-.937-4.808a.914.914,0,0,1,1.683.715c-.809,1.907-.535,2.194-.023,2.414a3.692,3.692,0,0,0,3.74-.308,16.44,16.44,0,0,0,2.468-4.269,1.187,1.187,0,0,0-.665-.18,17.011,17.011,0,0,0-1.782.91.914.914,0,0,1-.875-1.605,14.527,14.527,0,0,1,2.119-1.051,2.8,2.8,0,0,1,2.3.466,1.709,1.709,0,0,1,.759,1.38c0,1.151-2.232,5.024-3.184,5.78A5.162,5.162,0,0,1,3399.8,1773.531Z" transform="translate(-3395.8 -1764.748)" fill="#3a3a3a"/>
        </g>
        <g id="Grupo_186281" data-name="Grupo 186281" transform="translate(3364.087 1415.17)">
          <path id="Trazado_245045" data-name="Trazado 245045" d="M3395.441,1539.7a4.8,4.8,0,0,1-3.608-1.343,3.153,3.153,0,0,1-.665-2.635c.159-1.057.3-2.25.411-3.278q.073-.659.144-1.323l.048-.439a46.471,46.471,0,0,1,.9-5.983,6.391,6.391,0,0,1,4.174-4.8,12.487,12.487,0,0,1,2.443-.592,2.771,2.771,0,0,1,3.183,2.6c.028.506.058,1.087.083,1.7.3,7.469-.2,8.6-.747,9.126a4.307,4.307,0,0,1-2.9,1,26.716,26.716,0,0,1-.052,2.707c-.119,1.482-.394,2.281-.922,2.675A4.667,4.667,0,0,1,3395.441,1539.7Zm4.258-18.6a.967.967,0,0,0-.139.01,10.812,10.812,0,0,0-2.076.5,4.532,4.532,0,0,0-3.048,3.562,45.627,45.627,0,0,0-.847,5.708l-.047.438q-.071.667-.145,1.329c-.116,1.045-.257,2.261-.421,3.349a1.388,1.388,0,0,0,.244,1.17,3.009,3.009,0,0,0,2.221.707,4.028,4.028,0,0,0,1.344-.2,4.775,4.775,0,0,0,.244-1.379,29.519,29.519,0,0,0,.008-3.473.914.914,0,0,1,1.06-.958,4.909,4.909,0,0,0,.673.043,2.714,2.714,0,0,0,1.728-.458c.136-.288.478-1.636.228-7.77-.025-.607-.054-1.179-.082-1.678A.95.95,0,0,0,3399.7,1521.105Z" transform="translate(-3391.12 -1519.277)" fill="#3a3a3a"/>
        </g>
        <g id="Grupo_186282" data-name="Grupo 186282" transform="translate(3364.732 1418.629)">
          <path id="Trazado_245046" data-name="Trazado 245046" d="M3395.8,1536.962a4.977,4.977,0,0,1-2.917-1.353.914.914,0,0,1,1.133-1.435,3.9,3.9,0,0,0,1.784.96c.31,0,.687-.16,1.132-1.345a11.518,11.518,0,0,1,2.727-4.06,15.288,15.288,0,0,0,1.975-2.455.914.914,0,0,1,1.552.966,17.051,17.051,0,0,1-2.19,2.737,9.728,9.728,0,0,0-2.352,3.457C3398.405,1535.057,3397.69,1536.962,3395.8,1536.962Z" transform="translate(-3392.532 -1526.842)" fill="#3a3a3a"/>
        </g>
        <g id="Grupo_186283" data-name="Grupo 186283" transform="translate(3385.924 1333.105)">
          <path id="Trazado_245047" data-name="Trazado 245047" d="M3442.642,1392.732a6.652,6.652,0,0,1-3.207-.777l-.036-.017a.914.914,0,0,1,.813-1.637l.064.032a5.151,5.151,0,0,0,3.046.536,8.824,8.824,0,0,0,2.817-.827c.566-.3,19.513-11.218,29.449-16.946,5.023-2.9,9.11-9.983,9.11-15.782,0-2.565-.806-4.469-2.271-5.362-1.4-.853-3.332-.725-5.443.36h0a.942.942,0,0,1-1.117-.193.912.912,0,0,1-.229-.709s.006-.052.007-.056l.006-.049c.037-.439.056-.913.056-1.447,0-4.059-1.344-7.014-3.782-8.317l-.149-.082a.914.914,0,0,1,.878-1.6l.142.078c3.054,1.633,4.74,5.16,4.74,9.926,0,.075,0,.15,0,.223a6.666,6.666,0,0,1,5.846.31c2.029,1.238,3.146,3.7,3.146,6.923,0,6.382-4.5,14.172-10.023,17.366-6.848,3.948-29.215,16.843-29.582,17.016a10.653,10.653,0,0,1-3.406.992A8.408,8.408,0,0,1,3442.642,1392.732Z" transform="translate(-3438.893 -1339.741)" fill="#3a3a3a"/>
        </g>
        <g id="Grupo_186284" data-name="Grupo 186284" transform="translate(3373.568 1327.517)">
          <path id="Trazado_245048" data-name="Trazado 245048" d="M3425.131,1385.4a.907.907,0,0,1-.432-.109l-8.941-4.8c-2.512-1.341-3.9-4.223-3.9-8.115a18.026,18.026,0,0,1,.173-2.462,25.966,25.966,0,0,1,3.633-9.71,23.406,23.406,0,0,1,7.823-7.978c.291-.166.562-.311.818-.438,1.086-8.654,7.126-18.137,14.22-22.234a13.494,13.494,0,0,1,6.691-2.031,8.107,8.107,0,0,1,3.885.938l8.793,4.719a.914.914,0,0,1-.338,1.759.988.988,0,0,1-.433-.1,7.119,7.119,0,0,0-4.776-.44,13.636,13.636,0,0,0-3.894,1.568c-6.782,3.914-12.534,13.094-13.381,21.351a.914.914,0,0,1-.519.734c-.316.149-.732.351-1.148.591-5.905,3.408-10.71,11.734-10.71,18.562a11.959,11.959,0,0,0,.22,2.361,5.782,5.782,0,0,0,2.655,4.122.914.914,0,0,1-.444,1.714Zm20.089-56.052a11.875,11.875,0,0,0-5.777,1.785c-6.774,3.913-12.524,13.092-13.375,21.353a.912.912,0,0,1-.535.74c-.341.153-.712.343-1.134.582a21.564,21.564,0,0,0-7.174,7.35,24.11,24.11,0,0,0-3.379,9,16.234,16.234,0,0,0-.156,2.21c0,3.184,1.041,5.494,2.93,6.5l4.971,2.671a10.368,10.368,0,0,1-.464-1.618,13.837,13.837,0,0,1-.257-2.724c0-7.41,5.215-16.447,11.624-20.145.287-.166.567-.312.822-.438,1.08-8.654,7.124-18.138,14.227-22.238a15.446,15.446,0,0,1,4.419-1.77q.38-.083.756-.139l-4.478-2.4A6.3,6.3,0,0,0,3445.22,1329.345Z" transform="translate(-3411.862 -1327.517)" fill="#3a3a3a"/>
        </g>
        <g id="Grupo_186285" data-name="Grupo 186285" transform="translate(3402.726 1370.71)">
          <path id="Trazado_245049" data-name="Trazado 245049" d="M3529.3,1501.514a.907.907,0,0,1-.457-.122l-52.731-30.443a.913.913,0,0,1-.457-.792v-40.385a.914.914,0,0,1,1.828,0v39.858l50.9,29.387v-51.969l-40.412-23.331a.914.914,0,1,1,.914-1.584l40.869,23.6a.915.915,0,0,1,.457.792V1500.6a.914.914,0,0,1-.914.914Z" transform="translate(-3475.652 -1422.01)" fill="#3a3a3a"/>
        </g>
        <g id="Grupo_186286" data-name="Grupo 186286" transform="translate(3445.196 1434.402)">
          <path id="Trazado_245050" data-name="Trazado 245050" d="M3579.738,1569.1a.909.909,0,0,1-.456-.123l-10.262-5.924a.914.914,0,1,1,.914-1.584l10.262,5.924a.914.914,0,0,1-.458,1.706Z" transform="translate(-3568.562 -1561.35)" fill="#3a3a3a"/>
        </g>
        <g id="Grupo_186287" data-name="Grupo 186287" transform="translate(3432.296 1426.956)">
          <path id="Trazado_245051" data-name="Trazado 245051" d="M3547.746,1550.633a.907.907,0,0,1-.456-.122l-6.49-3.743a.914.914,0,0,1,.913-1.584l6.49,3.744a.914.914,0,0,1-.458,1.706Z" transform="translate(-3540.343 -1545.06)" fill="#3a3a3a"/>
        </g>
        <g id="Grupo_186288" data-name="Grupo 186288" transform="translate(3419.396 1419.506)">
          <path id="Trazado_245052" data-name="Trazado 245052" d="M3519.526,1534.338a.908.908,0,0,1-.456-.123l-6.491-3.748a.914.914,0,0,1,.914-1.584l6.491,3.748a.914.914,0,0,1-.458,1.706Z" transform="translate(-3512.121 -1528.761)" fill="#3a3a3a"/>
        </g>
        <g id="Grupo_186289" data-name="Grupo 186289" transform="translate(3402.726 1409.883)">
          <path id="Trazado_245053" data-name="Trazado 245053" d="M3486.827,1515.464a.91.91,0,0,1-.456-.122l-10.262-5.925a.914.914,0,0,1,.914-1.583l10.262,5.924a.914.914,0,0,1-.458,1.706Z" transform="translate(-3475.652 -1507.71)" fill="#3a3a3a"/>
        </g>
        <g id="Grupo_186290" data-name="Grupo 186290" transform="translate(3412.989 1397.451)">
          <path id="Trazado_245054" data-name="Trazado 245054" d="M3505.426,1504.4a.914.914,0,0,1-.458-.123l-6.408-3.7a.913.913,0,0,1-.457-.792v-18.357a.914.914,0,0,1,1.372-.792l6.408,3.7a.914.914,0,0,1,.457.791v18.353a.915.915,0,0,1-.914.914Zm-5.494-5.14,4.58,2.643v-16.242l-4.58-2.646Z" transform="translate(-3498.103 -1480.512)" fill="#3a3a3a"/>
        </g>
        <g id="Grupo_186291" data-name="Grupo 186291" transform="translate(3425.887 1399.155)">
          <path id="Trazado_245055" data-name="Trazado 245055" d="M3533.645,1513.871a.912.912,0,0,1-.458-.123l-6.409-3.7a.914.914,0,0,1-.457-.791v-24.1a.915.915,0,0,1,1.371-.792l6.409,3.7a.914.914,0,0,1,.458.792v24.1a.915.915,0,0,1-.914.914Zm-5.495-5.145,4.581,2.646v-21.991l-4.581-2.643Z" transform="translate(-3526.322 -1484.241)" fill="#3a3a3a"/>
        </g>
        <g id="Grupo_186292" data-name="Grupo 186292" transform="translate(3438.787 1398.278)">
          <path id="Trazado_245056" data-name="Trazado 245056" d="M3561.865,1520.275a.913.913,0,0,1-.457-.123l-6.409-3.7a.914.914,0,0,1-.457-.791v-32.422a.914.914,0,0,1,1.372-.791l6.409,3.7a.915.915,0,0,1,.457.792v32.422a.914.914,0,0,1-.914.914Zm-5.495-5.145,4.581,2.646v-30.31l-4.581-2.646Z" transform="translate(-3554.542 -1482.321)" fill="#3a3a3a"/>
        </g>
        <g id="Grupo_186293" data-name="Grupo 186293" transform="translate(3429.092 1445.263)">
          <path id="Trazado_245057" data-name="Trazado 245057" d="M3561.813,1604.282a.911.911,0,0,1-.486-.14l-27.568-17.342a.915.915,0,0,1,.974-1.548l27.568,17.342a.914.914,0,0,1-.488,1.688Z" transform="translate(-3533.332 -1585.111)" fill="#3a3a3a"/>
        </g>
        <g id="Grupo_186294" data-name="Grupo 186294" transform="translate(3420.461 1443.667)">
          <path id="Trazado_245058" data-name="Trazado 245058" d="M3524,1585.044a.918.918,0,0,1-.167-.015l-8.63-1.6a.914.914,0,1,1,.332-1.8l8.63,1.6a.914.914,0,0,1-.165,1.813Z" transform="translate(-3514.451 -1581.62)" fill="#3a3a3a"/>
        </g>
        <g id="Grupo_186295" data-name="Grupo 186295" transform="translate(3410.154 1445.263)">
          <path id="Trazado_245059" data-name="Trazado 245059" d="M3492.815,1612.908a.915.915,0,0,1-.738-1.453l18.938-25.968a.914.914,0,1,1,1.477,1.077l-18.937,25.968A.915.915,0,0,1,3492.815,1612.908Z" transform="translate(-3491.902 -1585.112)" fill="#3a3a3a"/>
        </g>
        <g id="Grupo_186296" data-name="Grupo 186296" transform="translate(3429.092 1433.164)">
          <path id="Trazado_245060" data-name="Trazado 245060" d="M3534.246,1572.638a.914.914,0,0,1-.914-.914v-12.168a.914.914,0,1,1,1.828,0v12.168A.914.914,0,0,1,3534.246,1572.638Z" transform="translate(-3533.332 -1558.642)" fill="#3a3a3a"/>
        </g>
      </g>
    </g>
  </g>
</svg>
